SplineFontDB: 3.2
FontName: NameItRounded-Bold
FullName: NameIt Rounded Bold
FamilyName: NameIt Rounded
Weight: Bold
Copyright: Copyright (c) 2022 by 5@xes. All rights reserved.
Version: 1.00 2022
ItalicAngle: 0
UnderlinePosition: -100
UnderlineWidth: 50
Ascent: 835
Descent: 165
InvalidEm: 0
sfntRevision: 0x00010000
LayerCount: 2
Layer: 0 1 "Arri+AOgA-re" 1
Layer: 1 1 "Avant" 0
XUID: [1021 378 143806488 18701]
StyleMap: 0x0020
FSType: 4
OS2Version: 3
OS2_WeightWidthSlopeOnly: 0
OS2_UseTypoMetrics: 0
CreationTime: 1572055200
ModificationTime: 1656053753
PfmFamily: 81
TTFWeight: 700
TTFWidth: 5
LineGap: 0
VLineGap: 0
Panose: 0 0 0 0 0 0 0 0 0 0
OS2TypoAscent: 835
OS2TypoAOffset: 0
OS2TypoDescent: -165
OS2TypoDOffset: 0
OS2TypoLinegap: 235
OS2WinAscent: 960
OS2WinAOffset: 0
OS2WinDescent: 240
OS2WinDOffset: 0
HheadAscent: 952
HheadAOffset: 0
HheadDescent: -283
HheadDOffset: 0
OS2SubXSize: 700
OS2SubYSize: 650
OS2SubXOff: 0
OS2SubYOff: 140
OS2SupXSize: 700
OS2SupYSize: 650
OS2SupXOff: 0
OS2SupYOff: 477
OS2StrikeYSize: 50
OS2StrikeYPos: 250
OS2CapHeight: 800
OS2XHeight: 400
OS2Vendor: 'pyrs'
OS2CodePages: 20000111.40000000
OS2UnicodeRanges: 800000af.5000204a.00000000.00000000
Lookup: 258 0 0 "'kern' Cr+AOkA-nage horizontal dans Latin lookup 0" { "sous-table 'kern' Cr+AOkA-nage horizontal dans Latin lookup 0"  } ['kern' ('DFLT' <'dflt' > 'latn' <'dflt' > ) ]
MarkAttachClasses: 1
DEI: 91125
TtTable: prep
PUSHW_1
 0
CALL
SVTCA[y-axis]
PUSHW_3
 1
 1
 2
CALL
SVTCA[x-axis]
PUSHW_3
 2
 3
 2
CALL
SVTCA[x-axis]
PUSHW_8
 2
 38
 34
 26
 19
 12
 0
 8
CALL
PUSHW_8
 3
 69
 57
 44
 32
 19
 0
 8
CALL
PUSHW_8
 4
 41
 34
 26
 19
 12
 0
 8
CALL
SVTCA[y-axis]
PUSHW_8
 1
 43
 34
 26
 19
 12
 0
 8
CALL
SVTCA[y-axis]
PUSHW_3
 5
 2
 7
CALL
PUSHW_1
 0
DUP
RCVT
RDTG
ROUND[Black]
RTG
WCVTP
EndTTInstrs
TtTable: fpgm
PUSHW_1
 0
FDEF
MPPEM
PUSHW_1
 9
LT
IF
PUSHB_2
 1
 1
INSTCTRL
EIF
PUSHW_1
 511
SCANCTRL
PUSHW_1
 68
SCVTCI
PUSHW_2
 9
 3
SDS
SDB
ENDF
PUSHW_1
 1
FDEF
DUP
DUP
RCVT
ROUND[Black]
WCVTP

StartChar: Eth
Encoding: 208 208 4
Width: 599
Flags: W
LayerCount: 2
Fore
SplineSet
77 427 m 2,0,1
 87 427 87 427 87 437 c 2,2,-1
 87 641 l 2,3,4
 87 665.625 87 665.625 106 687 c 0,5,6
 125 706 125 706 152 706 c 2,7,-1
 304 706 l 2,8,9
 406.142857143 706 406.142857143 706 469 640 c 0,10,11
 529 576.842105263 529 576.842105263 529 474 c 2,12,-1
 529 231 l 2,13,14
 529 93 529 93 424 30 c 0,15,16
 372.571428571 2.60208521397e-18 372.571428571 2.60208521397e-18 304 0 c 2,17,-1
 152 0 l 2,18,19
 111.391304348 0 111.391304348 0 92.5 39.5 c 0,20,21
 87 51 87 51 87 65 c 2,22,-1
 87 294 l 2,23,24
 87 297 87 297 85 301 c 0,25,26
 79 304 79 304 77 304 c 2,27,-1
 62 304 l 2,28,29
 36 304 36 304 18 322 c 256,30,31
 0 340 0 340 0 365.5 c 128,-1,32
 0 391 0 391 18 409 c 256,33,34
 36 427 36 427 62 427 c 2,35,-1
 77 427 l 2,0,1
233 142 m 2,36,37
 233 132 233 132 243 132 c 2,38,-1
 296 132 l 2,39,40
 360.764705882 132 360.764705882 132 379 194 c 0,41,42
 384 219 384 219 384 237 c 2,43,-1
 384 469 l 2,44,45
 384 531 384 531 349 558.5 c 0,46,47
 329.272727273 574 329.272727273 574 296 574 c 2,48,-1
 243 574 l 2,49,50
 233 574 233 574 233 564 c 2,51,-1
 233 437 l 2,52,53
 233 427 233 427 243 427 c 2,54,-1
 263 427 l 2,55,56
 289 427 289 427 307 409 c 256,57,58
 325 391 325 391 325 365.5 c 128,-1,59
 325 340 325 340 307 322 c 256,60,61
 289 304 289 304 263 304 c 2,62,-1
 243 304 l 2,63,64
 239 304 239 304 236 301 c 256,65,66
 233 298 233 298 233 294 c 2,67,-1
 233 142 l 2,36,37
EndSplineSet
Validated: 524289
EndChar

StartChar: eth
Encoding: 240 240 5
Width: 599
Flags: W
LayerCount: 2
Fore
SplineSet
77 427 m 2,0,1
 87 427 87 427 87 437 c 2,2,-1
 87 641 l 2,3,4
 87 665.625 87 665.625 106 687 c 0,5,6
 125 706 125 706 152 706 c 2,7,-1
 304 706 l 2,8,9
 406.142857143 706 406.142857143 706 467.571428571 641.421052632 c 0,10,11
 529 576.842105263 529 576.842105263 529 474 c 2,12,-1
 529 231 l 2,13,14
 529 93 529 93 424 30 c 0,15,16
 372.571428571 2.60208521397e-18 372.571428571 2.60208521397e-18 304 0 c 2,17,-1
 152 0 l 2,18,19
 111.391304348 0 111.391304348 0 92.5 39.5 c 0,20,21
 87 51 87 51 87 65 c 2,22,-1
 87 294 l 2,23,24
 87 297 87 297 85 301 c 0,25,26
 79 304 79 304 77 304 c 2,27,-1
 62 304 l 2,28,29
 36 304 36 304 18 322 c 256,30,31
 0 340 0 340 0 365.5 c 128,-1,32
 0 391 0 391 18 409 c 256,33,34
 36 427 36 427 62 427 c 2,35,-1
 77 427 l 2,0,1
233 142 m 2,36,37
 233 132 233 132 243 132 c 2,38,-1
 296 132 l 2,39,40
 360.764705882 132 360.764705882 132 379 194 c 0,41,42
 384 219 384 219 384 237 c 2,43,-1
 384 469 l 2,44,45
 384 531 384 531 349 558.5 c 0,46,47
 329.272727273 574 329.272727273 574 296 574 c 2,48,-1
 243 574 l 2,49,50
 233 574 233 574 233 564 c 2,51,-1
 233 437 l 2,52,53
 233 427 233 427 243 427 c 2,54,-1
 263 427 l 2,55,56
 289 427 289 427 307 409 c 256,57,58
 325 391 325 391 325 365.5 c 128,-1,59
 325 340 325 340 307 322 c 256,60,61
 289 304 289 304 263 304 c 2,62,-1
 243 304 l 2,63,64
 239 304 239 304 236 301 c 256,65,66
 233 298 233 298 233 294 c 2,67,-1
 233 142 l 2,36,37
EndSplineSet
Validated: 524289
EndChar

StartChar: Lslash
Encoding: 321 321 6
Width: 529
Flags: W
LayerCount: 2
Fore
SplineSet
238 140 m 2,0,1
 238 130 238 130 248 130 c 2,2,-1
 404 130 l 2,3,4
 444.608695652 130 444.608695652 130 463.5 90.5 c 0,5,6
 469 79 469 79 469 65 c 256,7,8
 469 40.375 469 40.375 450 19 c 0,9,10
 431 0 431 0 404 0 c 2,11,-1
 158 0 l 2,12,13
 131 0 131 0 112 19 c 256,14,15
 93 38 93 38 93 65 c 2,16,-1
 93 229 l 2,17,18
 93 232 93 232 90.5 234 c 128,-1,19
 88 236 88 236 85 234 c 1,20,-1
 83 234 l 1,21,-1
 82 233 l 1,22,23
 53 218 53 218 27 234 c 0,24,25
 0 249.75 0 249.75 0 282 c 0,26,27
 0 296 0 296 8 309.5 c 128,-1,28
 16 323 16 323 29 330 c 2,29,-1
 82 358 l 2,30,31
 93 364.6 93 364.6 93 377 c 2,32,-1
 93 641 l 2,33,34
 93 668 93 668 112 687 c 256,35,36
 131 706 131 706 158 706 c 2,37,-1
 173 706 l 2,38,39
 202 706 202 706 219 687 c 0,40,41
 238 668 238 668 238 641 c 2,42,-1
 238 454 l 2,43,44
 238 450 238 450 242 448 c 256,45,46
 246 446 246 446 249 448 c 2,47,-1
 296 473 l 2,48,49
 322.917525773 488.381443299 322.917525773 488.381443299 351 472 c 0,50,51
 361.636363636 464.909090909 361.636363636 464.909090909 378 424 c 1,52,53
 378 409 378 409 370 395.5 c 128,-1,54
 362 382 362 382 349 376 c 2,55,-1
 250 322 l 1,56,57
 245 321 245 321 241.5 315 c 128,-1,58
 238 309 238 309 238 304 c 2,59,-1
 238 140 l 2,0,1
EndSplineSet
Validated: 524321
EndChar

StartChar: lslash
Encoding: 322 322 7
Width: 529
Flags: W
LayerCount: 2
Fore
SplineSet
238 140 m 2,0,1
 238 130 238 130 248 130 c 2,2,-1
 404 130 l 2,3,4
 444.608695652 130 444.608695652 130 463.5 90.5 c 0,5,6
 469 79 469 79 469 65 c 256,7,8
 469 40.375 469 40.375 450 19 c 0,9,10
 431 0 431 0 404 0 c 2,11,-1
 158 0 l 2,12,13
 131 0 131 0 112 19 c 256,14,15
 93 38 93 38 93 65 c 2,16,-1
 93 229 l 2,17,18
 93 232 93 232 90.5 234 c 128,-1,19
 88 236 88 236 85 234 c 1,20,-1
 83 234 l 1,21,-1
 82 233 l 1,22,23
 53 218 53 218 27 234 c 0,24,25
 0 249.75 0 249.75 0 282 c 0,26,27
 0 296 0 296 8 309.5 c 128,-1,28
 16 323 16 323 29 330 c 2,29,-1
 82 358 l 2,30,31
 93 364.6 93 364.6 93 377 c 2,32,-1
 93 641 l 2,33,34
 93 668 93 668 112 687 c 256,35,36
 131 706 131 706 158 706 c 2,37,-1
 173 706 l 2,38,39
 202 706 202 706 219 687 c 0,40,41
 238 668 238 668 238 641 c 2,42,-1
 238 454 l 2,43,44
 238 450 238 450 242 448 c 256,45,46
 246 446 246 446 249 448 c 2,47,-1
 296 473 l 2,48,49
 322.917525773 488.381443299 322.917525773 488.381443299 351 472 c 0,50,51
 361.636363636 464.909090909 361.636363636 464.909090909 378 424 c 1,52,53
 378 409 378 409 370 395.5 c 128,-1,54
 362 382 362 382 349 376 c 2,55,-1
 250 322 l 1,56,57
 245 321 245 321 241.5 315 c 128,-1,58
 238 309 238 309 238 304 c 2,59,-1
 238 140 l 2,0,1
EndSplineSet
Validated: 524321
EndChar

StartChar: Thorn
Encoding: 222 222 14
Width: 514
Flags: W
LayerCount: 2
Fore
SplineSet
358 536 m 0,0,1
 444 473.454545455 444 473.454545455 444 365 c 0,2,3
 444 257.545454545 444 257.545454545 358 195 c 0,4,5
 331.470588235 175.705882353 331.470588235 175.705882353 280 161 c 0,6,7
 251 155 251 155 220 155 c 2,8,-1
 155 155 l 2,9,10
 151 155 151 155 148 152 c 256,11,12
 145 149 145 149 145 145 c 2,13,-1
 145 73 l 2,14,15
 145 42 145 42 124 21 c 256,16,17
 103 0 103 0 72.5 0 c 128,-1,18
 42 0 42 0 21 21 c 256,19,20
 0 42 0 42 0 73 c 2,21,-1
 0 633 l 2,22,23
 0 662 0 662 21 685 c 0,24,25
 42 706 42 706 72.5 706 c 128,-1,26
 103 706 103 706 124 685 c 0,27,28
 145 662 145 662 145 633 c 2,29,-1
 145 586 l 2,30,31
 145 582 145 582 148 579 c 256,32,33
 151 576 151 576 155 576 c 2,34,-1
 220 576 l 2,35,36
 303 576 303 576 358 536 c 0,0,1
213 284 m 2,37,38
 273.285714286 284 273.285714286 284 293 330 c 0,39,40
 299 346 299 346 299 365.5 c 0,41,42
 299 405.692307692 299 405.692307692 275 426 c 0,43,44
 263 437 263 437 247 441 c 0,45,46
 232 447 232 447 213 447 c 2,47,-1
 155 447 l 2,48,49
 151 447 151 447 148 444 c 256,50,51
 145 441 145 441 145 437 c 2,52,-1
 145 294 l 2,53,54
 145 290 145 290 148 287 c 256,55,56
 151 284 151 284 155 284 c 2,57,-1
 213 284 l 2,37,38
EndSplineSet
Validated: 524289
EndChar

StartChar: thorn
Encoding: 254 254 15
Width: 514
Flags: W
LayerCount: 2
Fore
SplineSet
358 536 m 0,0,1
 444 473.454545455 444 473.454545455 444 365.5 c 0,2,3
 444 257.545454545 444 257.545454545 358 195 c 0,4,5
 331.470588235 175.705882353 331.470588235 175.705882353 280 161 c 0,6,7
 251 155 251 155 220 155 c 2,8,-1
 155 155 l 2,9,10
 151 155 151 155 148 152 c 256,11,12
 145 149 145 149 145 145 c 2,13,-1
 145 73 l 2,14,15
 145 42 145 42 124 21 c 256,16,17
 103 0 103 0 72.5 0 c 128,-1,18
 42 0 42 0 21 21 c 256,19,20
 0 42 0 42 0 73 c 2,21,-1
 0 633 l 2,22,23
 0 662 0 662 21 685 c 0,24,25
 42 706 42 706 72.5 706 c 128,-1,26
 103 706 103 706 124 685 c 0,27,28
 145 662 145 662 145 633 c 2,29,-1
 145 586 l 2,30,31
 145 582 145 582 148 579 c 256,32,33
 151 576 151 576 155 576 c 2,34,-1
 220 576 l 2,35,36
 303 576 303 576 358 536 c 0,0,1
213 284 m 2,37,38
 273.285714286 284 273.285714286 284 293 330 c 0,39,40
 299 346 299 346 299 365.5 c 0,41,42
 299 405.692307692 299 405.692307692 275 426 c 0,43,44
 263 437 263 437 247 441 c 0,45,46
 232 447 232 447 213 447 c 2,47,-1
 155 447 l 2,48,49
 151 447 151 447 148 444 c 256,50,51
 145 441 145 441 145 437 c 2,52,-1
 145 294 l 2,53,54
 145 290 145 290 148 287 c 256,55,56
 151 284 151 284 155 284 c 2,57,-1
 213 284 l 2,37,38
EndSplineSet
Validated: 524289
EndChar

StartChar: onehalf
Encoding: 189 189 23
Width: 800
Flags: W
LayerCount: 2
Fore
SplineSet
623 434 m 1
 614 446 614 446 592 446 c 0
 557 446 557 446 535 417 c 0
 520 398 520 398 495 395 c 0
 470 392 470 392 453 405.5 c 0
 436 418 436 418 435 434 c 0
 432 472 432 472 469 503 c 0
 497 528 497 528 530.5 536 c 0
 564 544 564 544 582 544 c 0
 660 544 660 544 702 501 c 0
 744 458 744 458 744 394 c 0
 744 358 744 358 731 330 c 256
 713 291 713 291 705 278.5 c 0
 697 266 697 266 690.5 257.5 c 0
 684 249 684 249 675.5 237 c 0
 667 225 667 225 644 195 c 0
 621 165 621 165 607 144 c 0
 593 123 593 123 586.5 114.5 c 0
 580 106 580 106 582 102 c 0
 584 98 584 98 589 98 c 2
 702 98 l 2
 732 98 732 98 746 70 c 0
 750 62 750 62 750 47 c 0
 750 32 750 32 736 18 c 0
 723 4 723 4 703 4 c 2
 468 4 l 2
 438 4 438 4 424 32 c 256
 409 60 409 60 429 83 c 2
 561 248 l 2
 573 263 573 263 592 290 c 0
 638 352 638 352 638 394 c 0
 638 421 638 421 624 434 c 1
 624 434 l 1
 623 434 l 1
61 740 m 2
 50 740 l 2
 30 740 30 740 16 754 c 256
 2 768 2 768 1 789 c 256
 1 810 1 810 16 824 c 256
 30 838 30 838 50 838 c 2
 129 838 l 2
 160 838 160 838 174 808 c 0
 178 799 178 799 178 789 c 2
 178 357 l 2
 178 338 178 338 163 322 c 0
 149 308 149 308 129 308 c 2
 117 308 l 2
 97 308 97 308 82 322 c 0
 68 337 68 337 69 357 c 2
 69 733 l 2
 69 736 69 736 67 738 c 256
 64 740 64 740 61 740 c 2
EndSplineSet
Refer: 48 47 N 0.999939 0 0 1 126 76 2
Validated: 524325
EndChar

StartChar: onequarter
Encoding: 188 188 24
Width: 700
Flags: W
LayerCount: 2
Fore
SplineSet
61 740 m 2
 50 740 l 2
 30 740 30 740 16 754 c 256
 2 768 2 768 1 789 c 256
 1 810 1 810 16 824 c 256
 30 838 30 838 50 838 c 2
 129 838 l 2
 160 838 160 838 174 808 c 0
 178 799 178 799 178 789 c 2
 178 357 l 2
 178 338 178 338 163 322 c 0
 149 308 149 308 129 308 c 2
 117 308 l 2
 97 308 97 308 82 322 c 0
 68 337 68 337 69 357 c 2
 69 733 l 2
 69 736 69 736 67 738 c 256
 64 740 64 740 61 740 c 2
643.5 97.125 m 2
 640.5 97.125 l 2
 638 97 638 97 635.25 94.875 c 256
 633 93 633 93 633 89.625 c 2
 633 53.625 l 2
 633 30 633 30 618 16.125 c 0
 602 0 602 0 580.5 0.375 c 256
 562 0 562 0 543 16.125 c 0
 527.25 29.783203125 527.25 29.783203125 527.25 53.625 c 2
 527.25 89.625 l 2
 526.995762712 97.125 526.995762712 97.125 519.75 97.125 c 2
 439.5 97.125 l 1
 358.5 96.375 l 2
 330 96 330 96 317.25 118.875 c 0
 303.171964245 142.708867551 303.171964245 142.708867551 314.25 166.125 c 2
 472.5 500.625 l 2
 478 512 478 512 491.25 521.625 c 0
 503 530 503 530 517.875 529.875 c 0
 547 530 547 530 561 505.875 c 0
 574.992446401 481.013421127 574.992446401 481.013421127 564 457.875 c 2
 442.5 202.125 l 2
 441 198 441 198 443.25 194.625 c 0
 446.392857143 191.625 446.392857143 191.625 450 191.625 c 2
 519.75 191.625 l 2
 523 192 523 192 525 193.875 c 256
 527.25 196.265625 527.25 196.265625 527.25 199.125 c 2
 527.25 244.125 l 2
 527 267 527 267 543 281.625 c 0
 559 297 559 297 580.5 297.375 c 256
 602 297 602 297 618 281.625 c 0
 633 268 633 268 633 244.125 c 2
 633 199.125 l 2
 633 198 633 198 633.75 196.5 c 0
 634 195 634 195 635.25 193.875 c 0
 640 192 640 192 640.5 191.625 c 2
 643.5 191.625 l 2
 663 192 663 192 676.5 178.125 c 0
 690 163 690 163 690 144 c 0
 690 125 690 125 676.875 111 c 0
 664 97 664 97 643.5 97.125 c 2
EndSplineSet
Refer: 48 47 N 0.999939 0 0 1 126 76 2
Validated: 524321
EndChar

StartChar: onesuperior
Encoding: 185 185 25
Width: 269
VWidth: 838
Flags: W
LayerCount: 2
Fore
SplineSet
51.25390625 765.25390625 m 132,-1,1
 51.25390625 793.791992188 51.25390625 793.791992188 71.357421875 813.896484375 c 132,-1,2
 91.4619140625 834 91.4619140625 834 120 834 c 6,3,-1
 198.75 834 l 6,4,5
 227.241210938 834 227.241210938 834 246.131835938 815.109375 c 4,6,7
 255.177734375 806.063476562 255.177734375 806.063476562 261.336914062 793.185546875 c 132,-1,8
 267.49609375 780.307617188 267.49609375 780.307617188 267.49609375 765.25390625 c 6,9,-1
 267.49609375 333.25390625 l 6,10,11
 267.49609375 307.17578125 267.49609375 307.17578125 248.208984375 285.478515625 c 4,12,13
 247.811523438 285.030273438 247.811523438 285.030273438 247.385742188 284.60546875 c 4,14,15
 227.288085938 264.5078125 227.288085938 264.5078125 198.75 264.5078125 c 6,16,-1
 186.75 264.5078125 l 6,17,18
 158.211914062 264.5078125 158.211914062 264.5078125 138.107421875 284.611328125 c 4,19,20
 137.727539062 284.9921875 137.727539062 284.9921875 137.368164062 285.391601562 c 4,21,22
 118.75390625 306.07421875 118.75390625 306.07421875 118.75390625 333.25390625 c 6,23,-1
 118.75390625 696.517578125 l 5,24,25
 91.021484375 696.948242188 91.021484375 696.948242188 71.1376953125 716.83203125 c 132,-1,0
 51.25390625 736.715820312 51.25390625 736.715820312 51.25390625 765.25390625 c 132,-1,1
EndSplineSet
Validated: 524289
EndChar

StartChar: threequarters
Encoding: 190 190 26
Width: 830
Flags: W
LayerCount: 2
Fore
SplineSet
190 730 m 1
 190 734 l 1
 188 735 l 1
 44 735 l 2
 24 735 24 735 10 749.5 c 0
 -4 764 -4 764 -4 784 c 256
 -4 812 -4 812 17 825 c 0
 31 833 31 833 44 833 c 2
 269 833 l 2
 285 833 285 833 299 825 c 0
 325 810 325 810 328 775 c 0
 329 759 329 759 320 745 c 2
 239 613 l 2
 235 606 235 606 241 603.5 c 0
 247 601 247 601 251 599 c 0
 255 597 255 597 259 595 c 256
 263 593 263 593 267 590.5 c 0
 271 588 271 588 275.5 585 c 0
 280 582 280 582 288.5 576.5 c 0
 297 571 297 571 315 550 c 0
 354 506 354 506 341 422 c 0
 334 375 334 375 293.5 336.5 c 0
 253 298 253 298 181 293 c 256
 143 290 143 290 97 308 c 0
 86 312 86 312 59 329 c 0
 51 334 51 334 46 339.5 c 0
 41 345 41 345 32.5 353.5 c 0
 24 362 24 362 19 372.5 c 0
 14 383 14 383 10 391.5 c 0
 6 400 6 400 7.5 413.5 c 0
 9 427 9 427 15 436 c 0
 21 445 21 445 33 453 c 0
 45 461 45 461 56.5 461 c 0
 68 461 68 461 73 459 c 0
 82 456 82 456 107 431 c 0
 108 429 108 429 109.5 424.5 c 0
 111 420 111 420 118 413 c 2
 124 408 l 1
 153 379 153 379 198 393 c 0
 221 400 221 400 233 423 c 0
 250 456 250 456 230 482 c 0
 221 495 221 495 209 503 c 0
 196 513 196 513 180 518 c 1
 179 519 l 1
 177 519 l 1
 176 519 l 1
 175 519 l 1
 165 524 l 1
 145 531 l 1
 135 536 l 2
 116 545 116 545 107 566 c 0
 100 585 100 585 113 607 c 1
 190 730 l 1
763 89 m 2
 760 89 l 2
 759 88 759 88 754.75 86.75 c 256
 752.5 86.1363636364 752.5 86.1363636364 752.5 81.5 c 2
 752.5 45.5 l 2
 751.949152542 22.9152542373 751.949152542 22.9152542373 737.5 8 c 0
 722 -8 722 -8 700 -7.75 c 256
 678 -8 678 -8 662.5 8 c 0
 646.75 25.2741935484 646.75 25.2741935484 646.75 45.5 c 2
 646.75 81.5 l 2
 647 89 647 89 639.25 89 c 2
 559 89 l 1
 478 88.25 l 2
 449 88 449 88 436.75 110.75 c 0
 422.928495233 135.126108407 422.928495233 135.126108407 433.75 158 c 2
 592 492.5 l 2
 598 504 598 504 610.75 513.5 c 0
 622 522 622 522 637.375 521.75 c 0
 668 522 668 522 680.5 497.75 c 0
 694.036923077 471.92957265 694.036923077 471.92957265 683.5 449.75 c 2
 562 194 l 2
 559 188 559 188 562.75 186.5 c 0
 569 184 569 184 569.5 183.5 c 2
 639.25 183.5 l 2
 642 186 642 186 644.5 185.75 c 256
 646.75 185.975 646.75 185.975 646.75 191 c 2
 646.75 236 l 2
 647.025316456 258.025316456 647.025316456 258.025316456 662.5 273.5 c 0
 679 290 679 290 700 289.25 c 256
 727 288 727 288 737.5 273.5 c 0
 752.5 249.189655172 752.5 249.189655172 752.5 236 c 2
 752.5 191 l 2
 752 190 752 190 753.25 188.375 c 0
 754 186 754 186 754.75 185.75 c 0
 760 184 760 184 760 183.5 c 2
 763 183.5 l 2
 783 184 783 184 796 170 c 0
 809 155 809 155 809.5 135.875 c 0
 810 118 810 118 796.375 102.875 c 0
 784 89 784 89 763 89 c 2
EndSplineSet
Refer: 48 47 N 0.999939 0 0 1 246 60 2
Validated: 524321
EndChar

StartChar: threesuperior
Encoding: 179 179 27
Width: 460
VWidth: 836
Flags: W
LayerCount: 2
Fore
SplineSet
178.052734375 561.3203125 m 0,0,1
 178.052734375 580.109375 178.052734375 580.109375 189.27734375 598.090820312 c 2,2,-1
 250.713867188 696.5078125 l 1,3,-1
 138 696.5078125 l 2,4,5
 109.461914062 696.5078125 109.461914062 696.5078125 89.357421875 716.611328125 c 128,-1,6
 69.25390625 736.715820312 69.25390625 736.715820312 69.25390625 765.55078125 c 0,7,8
 69.25390625 804.03515625 69.25390625 804.03515625 100.71484375 822.911132812 c 0,9,10
 119.196289062 834 119.196289062 834 138 834 c 2,11,-1
 362.25 834 l 2,12,13
 384.260742188 834 384.260742188 834 402.841796875 822.952148438 c 0,14,15
 441.0859375 800.211914062 441.0859375 800.211914062 441.4921875 757.151367188 c 0,16,17
 441.717773438 754.278320312 441.717773438 754.278320312 441.717773438 751.456054688 c 0,18,19
 441.717773438 731.9296875 441.717773438 731.9296875 430.918945312 714.83203125 c 0,20,21
 394.094726562 655.1640625 394.094726562 655.1640625 357.379882812 595.669921875 c 1,22,23
 360.150390625 594.2421875 360.150390625 594.2421875 363.16796875 592.431640625 c 128,-1,24
 366.185546875 590.62109375 366.185546875 590.62109375 370.517578125 588.2578125 c 128,-1,25
 374.850585938 585.89453125 374.850585938 585.89453125 386.749023438 577.961914062 c 128,-1,26
 398.647460938 570.029296875 398.647460938 570.029296875 407.602539062 561.07421875 c 128,-1,27
 416.557617188 552.120117188 416.557617188 552.120117188 423.3046875 544.5625 c 0,28,29
 458.186523438 505.494140625 458.186523438 505.494140625 458.186523438 442.076171875 c 0,30,31
 458.186523438 422.205078125 458.186523438 422.205078125 454.76171875 399.943359375 c 0,32,33
 446.512695312 346.323242188 446.512695312 346.323242188 400.821289062 303.107421875 c 128,-1,34
 354.93359375 259.701171875 354.93359375 259.701171875 275.935546875 254.05859375 c 0,35,36
 268.53515625 253.530273438 268.53515625 253.530273438 261.259765625 253.530273438 c 0,37,38
 219.974609375 253.530273438 219.974609375 253.530273438 182.73828125 270.555664062 c 0,39,40
 159.013671875 279.654296875 159.013671875 279.654296875 141.3125 293.73828125 c 0,41,42
 131.557617188 300.080078125 131.557617188 300.080078125 125.708984375 306.344726562 c 128,-1,43
 119.860351562 312.609375 119.860351562 312.609375 110.260742188 322.208984375 c 128,-1,44
 100.661132812 331.80859375 100.661132812 331.80859375 95.267578125 343.674804688 c 128,-1,45
 89.8740234375 355.541015625 89.8740234375 355.541015625 85.36328125 364.970703125 c 128,-1,46
 80.853515625 374.401367188 80.853515625 374.401367188 80.853515625 387.685546875 c 0,47,48
 80.853515625 427.698242188 80.853515625 427.698242188 115.604492188 450.6796875 c 0,49,50
 132.723632812 462 132.723632812 462 148.727539062 462 c 128,-1,51
 164.731445312 462 164.731445312 462 173.247070312 458.958984375 c 0,52,53
 205.810546875 447.329101562 205.810546875 447.329101562 217.41796875 422.663085938 c 0,54,55
 219.884765625 419.350585938 219.884765625 419.350585938 221.059570312 415.827148438 c 128,-1,56
 222.233398438 412.3046875 222.233398438 412.3046875 226.017578125 408.521484375 c 2,57,-1
 231.375 403.163085938 l 2,58,59
 245.369140625 390.252929688 245.369140625 390.252929688 264.712890625 390.252929688 c 0,60,61
 274.641601562 390.252929688 274.641601562 390.252929688 285.21484375 393.424804688 c 128,-1,62
 295.787109375 396.596679688 295.787109375 396.596679688 300.639648438 401.44921875 c 128,-1,63
 305.4921875 406.301757812 305.4921875 406.301757812 306.861328125 409.381835938 c 128,-1,64
 308.229492188 412.461914062 308.229492188 412.461914062 308.51953125 413.016601562 c 0,65,66
 313.434570312 422.4375 313.434570312 422.4375 313.434570312 432.181640625 c 0,67,68
 313.434570312 446.990234375 313.434570312 446.990234375 300.901367188 459.522460938 c 0,69,70
 296.572265625 463.852539062 296.572265625 463.852539062 293.65234375 465.741210938 c 128,-1,71
 290.733398438 467.629882812 290.733398438 467.629882812 290.106445312 468.109375 c 0,72,73
 280.016601562 475.825195312 280.016601562 475.825195312 267.438476562 480.024414062 c 0,74,75
 263.81640625 480.618164062 263.81640625 480.618164062 251.05078125 486.525390625 c 1,76,77
 230.803710938 494.024414062 230.803710938 494.024414062 230.09765625 494.349609375 c 2,78,-1
 220.282226562 498.880859375 l 2,79,80
 191.114257812 512.4921875 191.114257812 512.4921875 182.17578125 540.194335938 c 0,81,82
 178.052734375 550.537109375 178.052734375 550.537109375 178.052734375 561.3203125 c 0,0,1
EndSplineSet
Validated: 524289
EndChar

StartChar: twosuperior
Encoding: 178 178 28
Width: 439
Flags: W
LayerCount: 2
Fore
SplineSet
249.333007812 698.5078125 m 4,0,1
 224.147460938 698.5078125 224.147460938 698.5078125 208.12109375 677.370117188 c 4,2,3
 184.986328125 646.858398438 184.986328125 646.858398438 143.446289062 646.858398438 c 4,4,5
 112.095703125 646.858398438 112.095703125 646.858398438 90.0009765625 668.953125 c 4,6,7
 73.8564453125 685.09765625 73.8564453125 685.09765625 72.4296875 705.069335938 c 4,8,9
 72.181640625 708.541992188 72.181640625 708.541992188 72.181640625 711.954101562 c 4,10,11
 72.181640625 756.216796875 72.181640625 756.216796875 113.583984375 790.030273438 c 4,12,13
 145.606445312 818.171875 145.606445312 818.171875 182.091796875 827.0859375 c 132,-1,14
 218.577148438 836 218.577148438 836 239 836 c 4,15,16
 325.764648438 836 325.764648438 836 373.379882812 786.822265625 c 132,-1,17
 420.99609375 737.645507812 420.99609375 737.645507812 420.99609375 666.00390625 c 4,18,19
 420.99609375 625.204101562 420.99609375 625.204101562 406.456054688 593.216796875 c 4,20,21
 387.7890625 552.150390625 387.7890625 552.150390625 378.888671875 539.486328125 c 132,-1,22
 369.98828125 526.822265625 369.98828125 526.822265625 363.64453125 518.23828125 c 132,-1,23
 357.299804688 509.655273438 357.299804688 509.655273438 349.017578125 497.608398438 c 132,-1,24
 340.736328125 485.561523438 340.736328125 485.561523438 317.798828125 455.252929688 c 132,-1,25
 294.862304688 424.943359375 294.862304688 424.943359375 285.181640625 410.826171875 c 132,-1,26
 275.500976562 396.708007812 275.500976562 396.708007812 271.17578125 390.5 c 5,27,-1
 359 390.5 l 6,28,29
 387.291015625 390.5 387.291015625 390.5 406.138671875 371.65234375 c 4,30,31
 414.692382812 363.098632812 414.692382812 363.098632812 420.844726562 350.794921875 c 132,-1,32
 426.99609375 338.4921875 426.99609375 338.4921875 426.99609375 316.978515625 c 132,-1,33
 426.99609375 295.465820312 426.99609375 295.465820312 407.267578125 275.736328125 c 132,-1,34
 387.538085938 256.0078125 387.538085938 256.0078125 359.75 256.0078125 c 6,35,-1
 125 256.0078125 l 6,36,37
 96.5361328125 256.0078125 96.5361328125 256.0078125 77.8115234375 274.732421875 c 4,38,39
 69.4794921875 283.064453125 69.4794921875 283.064453125 62.58984375 296.844726562 c 132,-1,40
 55.69921875 310.625 55.69921875 310.625 55.69921875 326.0859375 c 4,41,42
 55.69921875 348.255859375 55.69921875 348.255859375 71.2138671875 367.350585938 c 6,43,-1
 202.259765625 532.845703125 l 6,44,45
 213.731445312 547.4453125 213.731445312 547.4453125 233.415039062 574.018554688 c 4,46,47
 275.25390625 630.500976562 275.25390625 630.500976562 275.25390625 666.00390625 c 4,48,49
 275.25390625 684.1015625 275.25390625 684.1015625 267.724609375 690.794921875 c 4,50,51
 265.767578125 692.534179688 265.767578125 692.534179688 264.978515625 693.553710938 c 4,52,53
 261.145507812 698.5078125 261.145507812 698.5078125 249.333007812 698.5078125 c 4,0,1
EndSplineSet
Validated: 524289
EndChar

StartChar: brokenbar
Encoding: 166 166 29
Width: 188
Flags: W
LayerCount: 2
Fore
SplineSet
0 735 m 2,0,1
 0 774.772727273 0 774.772727273 36 789.5 c 0,2,3
 47 794 47 794 59 794 c 256,4,5
 98.7727272727 794 98.7727272727 794 113.5 758 c 0,6,7
 118 747 118 747 118 735 c 2,8,-1
 118 -78 l 2,9,10
 118 -103 118 -103 101 -120 c 128,-1,11
 84 -137 84 -137 59 -137 c 256,12,13
 34 -137 34 -137 17 -120 c 0,14,15
 0 -103 0 -103 0 -78 c 2,16,-1
 0 735 l 2,0,1
EndSplineSet
Validated: 524289
EndChar

StartChar: minus
Encoding: 8722 8722 30
Width: 650
Flags: W
LayerCount: 2
Fore
SplineSet
0 364 m 256,0,1
 0 390 0 390 18 408 c 0,2,3
 37 427 37 427 62 427 c 2,4,-1
 404 427 l 1,5,-1
 536 427 l 2,6,7
 562 427 562 427 581 408 c 0,8,9
 599 390 599 390 599 364 c 256,10,11
 599 338 599 338 581 320 c 0,12,13
 561 302 561 302 536 302 c 2,14,-1
 404 302 l 1,15,-1
 62 302 l 2,16,17
 38 302 38 302 18 320 c 0,18,19
 0 338 0 338 0 364 c 256,0,1
EndSplineSet
Validated: 1
EndChar

StartChar: multiply
Encoding: 215 215 31
Width: 511
Flags: W
LayerCount: 2
Fore
SplineSet
316 319 m 2,0,1
 311 314 311 314 311 308.5 c 128,-1,2
 311 303 311 303 316 298 c 2,3,-1
 423 191 l 1,4,5
 439 173 439 173 441 149 c 0,6,7
 441 125 441 125 428.5 111.5 c 0,8,9
 406.740740741 88 406.740740741 88 381 88 c 0,10,11
 357 88 357 88 339 106 c 2,12,-1
 231 214 l 2,13,14
 227 218 227 218 220.5 218 c 128,-1,15
 214 218 214 218 210 214 c 2,16,-1
 102 106 l 2,17,18
 84 88 84 88 59.5 88 c 128,-1,19
 35 88 35 88 17.5 105.5 c 128,-1,20
 0 123 0 123 0 148 c 256,21,22
 0 173 0 173 17 190 c 2,23,-1
 125 298 l 2,24,25
 130 303 130 303 130 308.5 c 128,-1,26
 130 314 130 314 125 319 c 2,27,-1
 17 427 l 1,28,29
 0 446 0 446 0 469.5 c 128,-1,30
 0 493 0 493 17 512 c 0,31,32
 36 529 36 529 59.5 529 c 128,-1,33
 83 529 83 529 102 512 c 1,34,-1
 210 404 l 2,35,36
 214 400 214 400 220.5 400 c 128,-1,37
 227 400 227 400 231 404 c 2,38,-1
 339 512 l 2,39,40
 356 529 356 529 381 529 c 128,-1,41
 406 529 406 529 424 511 c 0,42,43
 441 492 441 492 440 467.5 c 128,-1,44
 439 443 439 443 423 427 c 2,45,-1
 316 319 l 2,0,1
EndSplineSet
Validated: 524321
EndChar

StartChar: exclam
Encoding: 33 33 34
Width: 250
Flags: W
LayerCount: 2
Fore
SplineSet
154 256 m 1,0,1
 151 230 151 230 133 214 c 256,2,3
 115 198 115 198 90 198 c 256,4,5
 51 198 51 198 33.5 233 c 0,6,7
 28 244 28 244 27 256 c 2,8,-1
 0 608 l 2,9,10
 -3 648 -3 648 23.5 677 c 128,-1,11
 50 706 50 706 90 706 c 256,12,13
 130 706 130 706 156.5 677 c 128,-1,14
 183 648 183 648 180 608 c 2,15,-1
 154 256 l 1,0,1
90 163 m 256,16,17
 124.727272727 163 124.727272727 163 152 138 c 256,18,19
 177 115.083333333 177 115.083333333 177 76.5 c 0,20,21
 177 37.9166666667 177 37.9166666667 152 15 c 0,22,23
 127 -10 127 -10 90 -10 c 256,24,25
 50.9166666667 -10 50.9166666667 -10 28 15 c 0,26,27
 3 40 3 40 3 77 c 0,28,29
 3 132.058823529 3 132.058823529 56 157 c 0,30,31
 71 163 71 163 90 163 c 256,16,17
EndSplineSet
Validated: 524321
EndChar

StartChar: quotedbl
Encoding: 34 34 35
Width: 319
Flags: W
LayerCount: 2
Fore
SplineSet
217 706 m 1,0,1
 245 703 245 703 263 681.5 c 128,-1,2
 281 660 281 660 276 632 c 1,3,-1
 276 631 l 1,4,-1
 244 460 l 2,5,6
 241 443 241 443 227 430 c 0,7,8
 214 420 214 420 197 420 c 2,9,-1
 193 420 l 1,10,11
 174 422 174 422 161.5 435 c 128,-1,12
 149 448 149 448 149 467 c 2,13,-1
 148 641 l 2,14,15
 148 669 148 669 167.5 687.5 c 128,-1,16
 187 706 187 706 213 706 c 2,17,-1
 217 706 l 1,0,1
65 706 m 1,18,19
 93 703 93 703 111 681.5 c 128,-1,20
 129 660 129 660 124 632 c 1,21,-1
 124 631 l 1,22,-1
 92 460 l 2,23,24
 89 443 89 443 75 430 c 0,25,26
 62 420 62 420 45 420 c 2,27,-1
 41 420 l 1,28,29
 22 422 22 422 9.5 435 c 128,-1,30
 -3 448 -3 448 -3 467 c 2,31,-1
 -4 641 l 2,32,33
 -4 669 -4 669 15.5 687.5 c 128,-1,34
 35 706 35 706 60 706 c 2,35,-1
 65 706 l 1,18,19
EndSplineSet
Validated: 33
EndChar

StartChar: numbersign
Encoding: 35 35 36
Width: 587
Flags: W
LayerCount: 2
Fore
SplineSet
454 540 m 2,0,-1
 471 540 l 2,1,2
 493 540 493 540 507.5 522.5 c 128,-1,3
 522 505 522 505 517.5 486.5 c 128,-1,4
 513 468 513 468 500 457.5 c 128,-1,5
 487 447 487 447 471 447 c 2,6,-1
 430 447 l 2,7,8
 424 447 424 447 420 439 c 1,9,-1
 387 273 l 2,10,11
 385 268 385 268 388.5 264.5 c 128,-1,12
 392 261 392 261 397 261 c 2,13,-1
 417 261 l 2,14,15
 439 261 439 261 454 244 c 0,16,17
 467 226 467 226 463.5 208 c 128,-1,18
 460 190 460 190 448 179 c 128,-1,19
 436 168 436 168 417 168 c 2,20,-1
 374 168 l 2,21,22
 368 168 368 168 364 160 c 1,23,-1
 340 41 l 2,24,25
 337 24 337 24 322.5 12 c 128,-1,26
 308 0 308 0 287 0 c 128,-1,27
 266 0 266 0 250.5 18.5 c 128,-1,28
 235 37 235 37 240 61 c 2,29,-1
 250 108 l 1,30,-1
 259 156 l 2,31,32
 260 160 260 160 256.5 164 c 128,-1,33
 253 168 253 168 249 168 c 2,34,-1
 191 168 l 2,35,36
 185 168 185 168 181 160 c 1,37,-1
 157 41 l 1,38,39
 146.210526316 -1.73472347598e-17 146.210526316 -1.73472347598e-17 103 0 c 0,40,41
 81 0 81 0 67 19 c 0,42,43
 51.0555555556 37.2222222222 51.0555555556 37.2222222222 57 61 c 1,44,-1
 76 156 l 2,45,46
 77 160 77 160 73.5 164 c 128,-1,47
 70 168 70 168 66 168 c 2,48,-1
 47 168 l 2,49,50
 24 168 24 168 10 185 c 0,51,52
 -3 202 -3 202 0.5 221 c 128,-1,53
 4 240 4 240 17 250.5 c 128,-1,54
 30 261 30 261 47 261 c 2,55,-1
 89 261 l 2,56,57
 95 261 95 261 99 269 c 1,58,-1
 132 435 l 2,59,60
 133 439 133 439 129.5 443 c 128,-1,61
 126 447 126 447 122 447 c 2,62,-1
 100 447 l 2,63,64
 76.75 447 76.75 447 62.875 464.5 c 128,-1,65
 49 482 49 482 53.5 500.5 c 128,-1,66
 58 519 58 519 71 529.5 c 128,-1,67
 84 540 84 540 100 540 c 2,68,-1
 146 540 l 2,69,70
 152 540 152 540 156 548 c 1,71,-1
 179 665 l 2,72,73
 182 682 182 682 196 694 c 128,-1,74
 210 706 210 706 230 706 c 128,-1,75
 250 706 250 706 269 687 c 0,76,77
 284 669 284 669 279 645 c 2,78,-1
 261 552 l 1,79,80
 259 547 259 547 263 543.5 c 128,-1,81
 267 540 267 540 270 540 c 2,82,-1
 329 540 l 2,83,84
 335 540 335 540 339 548 c 1,85,-1
 351 606 l 1,86,-1
 362 665 l 1,87,88
 367 684 367 684 380 694 c 0,89,90
 393 706 393 706 414.1875 706 c 128,-1,91
 435.375 706 435.375 706 452 687 c 256,92,93
 467.430107527 669.365591398 467.430107527 669.365591398 463 645 c 2,94,-1
 444 552 l 2,95,96
 442 547 442 547 446 543.5 c 128,-1,97
 450 540 450 540 454 540 c 2,0,-1
315 435 m 2,98,99
 316 439 316 439 312.5 443 c 128,-1,100
 309 447 309 447 305 447 c 2,101,-1
 247 447 l 2,102,103
 244 447 244 447 240 445 c 0,104,105
 239 443 239 443 238 442 c 128,-1,106
 237 441 237 441 237 439 c 2,107,-1
 204 273 l 2,108,109
 202 268 202 268 205.5 264.5 c 128,-1,110
 209 261 209 261 214 261 c 2,111,-1
 272 261 l 2,112,113
 275 261 275 261 279 263 c 0,114,115
 280 265 280 265 281 266 c 128,-1,116
 282 267 282 267 282 269 c 2,117,-1
 315 435 l 2,98,99
EndSplineSet
Validated: 524321
EndChar

StartChar: dollar
Encoding: 36 36 37
Width: 523
Flags: W
LayerCount: 2
Fore
SplineSet
375 365 m 0,0,1
 438.551401869 320.140186916 438.551401869 320.140186916 450 240 c 0,2,3
 458.898305085 190.169491525 458.898305085 190.169491525 442.449152542 136.584745763 c 0,4,5
 410.839499648 33.6131665492 410.839499648 33.6131665492 304 -2 c 0,6,7
 297 -5.5 297 -5.5 297 -11 c 2,8,-1
 297 -44 l 2,9,10
 297 -74 297 -74 276.5 -95.5 c 128,-1,11
 256 -117 256 -117 224.5 -117 c 128,-1,12
 193 -117 193 -117 172.5 -95.5 c 128,-1,13
 152 -74 152 -74 152 -44 c 2,14,-1
 152 -12 l 2,15,16
 152 -5.5 152 -5.5 145 -2 c 0,17,18
 50.4173228346 25.0236220472 50.4173228346 25.0236220472 9 112 c 0,19,20
 -6.81886792453 145.61509434 -6.81886792453 145.61509434 14 178 c 256,21,22
 34.5714285714 210 34.5714285714 210 73 210 c 0,23,24
 93 210 93 210 110.5 199 c 128,-1,25
 128 188 128 188 135 170 c 0,26,27
 137.5 165 137.5 165 145 155 c 0,28,29
 147 150 147 150 150.5 146.5 c 2,30,-1
 158 139 l 1,31,32
 190.392638037 110.656441718 190.392638037 110.656441718 236 115 c 256,33,34
 283.25 119.5 283.25 119.5 303.827380952 161.546626984 c 128,-1,35
 324.404761905 203.593253968 324.404761905 203.593253968 298 241 c 256,36,37
 276.769230769 271.076923077 276.769230769 271.076923077 234.384615385 285.538461538 c 128,-1,38
 192 300 192 300 157 313 c 0,39,40
 30.5039370079 359.984251969 30.5039370079 359.984251969 6 458 c 0,41,42
 -13.6338273758 542.425457716 -13.6338273758 542.425457716 27 613 c 256,43,44
 66.1698113208 681.031777557 66.1698113208 681.031777557 145 708 c 0,45,46
 152 711.5 152 711.5 152 717 c 2,47,-1
 152 753 l 2,48,49
 152 782 152 782 173 805 c 0,50,51
 194 826 194 826 224.5 826 c 128,-1,52
 255 826 255 826 276 805 c 0,53,54
 297 782 297 782 297 753 c 2,55,-1
 297 716 l 2,56,57
 297 709.5 297 709.5 304 706 c 0,58,59
 337 696 337 696 366.5 674.5 c 128,-1,60
 396 653 396 653 410.5 629.5 c 128,-1,61
 425 606 425 606 425 587 c 128,-1,62
 425 568 425 568 416.5 552 c 0,63,64
 396.84375 515 396.84375 515 355 515 c 2,65,-1
 354 515 l 2,66,67
 336 515 336 515 319 525 c 256,68,69
 302 535 302 535 294 550 c 0,70,71
 279.375 569.5 279.375 569.5 265 581 c 0,72,73
 244 595 244 595 220 593.5 c 128,-1,74
 196 592 196 592 176.5 580 c 128,-1,75
 157 568 157 568 146.5 547 c 128,-1,76
 136 526 136 526 142 503 c 0,77,78
 154.837905237 453.788029925 154.837905237 453.788029925 215.623824451 434.592476489 c 0,79,80
 325.619047619 399.857142857 325.619047619 399.857142857 375 365 c 0,0,1
EndSplineSet
Validated: 524321
EndChar

StartChar: percent
Encoding: 37 37 38
Width: 726
Flags: W
LayerCount: 2
Fore
SplineSet
456 677 m 1,0,1
 469 703 469 703 500 703 c 128,-1,2
 531 703 531 703 544 678 c 0,3,4
 559.416666667 653.773809524 559.416666667 653.773809524 545 627 c 2,5,-1
 207 24 l 1,6,7
 190.285714286 -2 190.285714286 -2 162 -2 c 256,8,9
 133.909090909 -2 133.909090909 -2 118 23 c 256,10,11
 102.583333333 47.2261904762 102.583333333 47.2261904762 117 74 c 2,12,-1
 456 677 l 1,0,1
158 697 m 256,13,14
 219.571428571 697 219.571428571 697 271 652 c 1,15,16
 316 607 316 607 316 538 c 256,17,18
 316 498.777777778 316 498.777777778 308 481.888888889 c 0,19,20
 288.3 440.3 288.3 440.3 272.15 424.15 c 0,21,22
 227 379 227 379 158 379 c 256,23,24
 78.6 379 78.6 379 31 438.5 c 0,25,26
 15.6666666667 457.666666667 15.6666666667 457.666666667 7.83333333333 487.333333333 c 128,-1,27
 0 517 0 517 0 538 c 256,28,29
 0 580 0 580 20 620 c 0,30,31
 50.9775280899 671.629213483 50.9775280899 671.629213483 115 692 c 0,32,33
 138 697 138 697 158 697 c 256,13,14
158 604 m 256,34,35
 117 604 117 604 104 565 c 0,36,37
 100 554 100 554 100 538 c 256,38,39
 100 491.454545455 100 491.454545455 134 476 c 0,40,41
 143 472 143 472 158 472 c 256,42,43
 185.125 472 185.125 472 200 489 c 0,44,45
 216 505 216 505 216 538 c 256,46,47
 216 570 216 570 200 586 c 0,48,49
 185.6 604 185.6 604 158 604 c 256,34,35
611 274 m 0,50,51
 656 222.571428571 656 222.571428571 656 160 c 256,52,53
 656 90 656 90 611 45 c 128,-1,54
 566 -2.42861286637e-17 566 -2.42861286637e-17 498 0 c 256,55,56
 403.777777778 0 403.777777778 0 361 77 c 0,57,58
 340 110.6 340 110.6 340 166.585714286 c 128,-1,59
 340 222.571428571 340 222.571428571 385 274 c 1,60,61
 436.428571429 319 436.428571429 319 498 319 c 0,62,63
 541.727272727 319 541.727272727 319 568.863636364 303 c 128,-1,64
 596 287 596 287 611 274 c 0,50,51
498 226 m 256,65,66
 457 226 457 226 444 187 c 0,67,68
 440 176 440 176 440 160 c 256,69,70
 440 113.454545455 440 113.454545455 474 98 c 0,71,72
 486 93 486 93 498 93 c 256,73,74
 524.25 93 524.25 93 540 111 c 0,75,76
 556 127 556 127 556 160 c 256,77,78
 556 205.545454545 556 205.545454545 522 221 c 0,79,80
 510 226 510 226 498 226 c 256,65,66
EndSplineSet
Validated: 524321
EndChar

StartChar: ampersand
Encoding: 38 38 39
Width: 609
Flags: W
LayerCount: 2
Fore
SplineSet
463 169 m 2,0,1
 461 165 461 165 461 162 c 256,2,3
 461 159 461 159 463 155 c 2,4,-1
 511 96 l 1,5,6
 542.157894737 53.1578947368 542.157894737 53.1578947368 497 8 c 1,7,8
 475 -8 475 -8 451 -4 c 128,-1,9
 427 0 427 0 410 22 c 1,10,-1
 396 37 l 1,11,-1
 383 53 l 2,12,13
 380 56 380 56 377.5 56 c 128,-1,14
 375 56 375 56 371 54 c 0,15,16
 303 -14 303 -14 209.8125 -14 c 128,-1,17
 116.625 -14 116.625 -14 57 39 c 0,18,19
 26.2 69.8 26.2 69.8 18.1 91.4 c 0,20,21
 0 139.666666667 0 139.666666667 0 174.833333333 c 0,22,23
 0 260.842105263 0 260.842105263 48.5 317 c 0,24,25
 82.2476190476 356.076190476 82.2476190476 356.076190476 124 390 c 0,26,27
 127 392 127 392 129 398 c 0,28,29
 129 404 129 404 123.5 413 c 0,30,31
 78 487.454545455 78 487.454545455 78 548 c 0,32,33
 78 586 78 586 87 605 c 128,-1,34
 96 624 96 624 101 634 c 0,35,36
 125.941176471 671.411764706 125.941176471 671.411764706 163 692 c 0,37,38
 205.222222222 712 205.222222222 712 240.611111111 712 c 0,39,40
 331 712 331 712 377 666 c 1,41,42
 407.41322314 641.289256198 407.41322314 641.289256198 421 596 c 0,43,44
 427 575 427 575 427 550.5 c 128,-1,45
 427 526 427 526 419 500 c 0,46,47
 413 474 413 474 402.5 460 c 0,48,49
 365.666666667 410.888888889 365.666666667 410.888888889 314 373 c 0,50,51
 307.625 368.75 307.625 368.75 312 360 c 1,52,-1
 379 269 l 2,53,54
 381 267 381 267 384 267 c 256,55,56
 387 267 387 267 388 269 c 2,57,-1
 434 330 l 2,58,59
 448 350 448 350 472 353 c 0,60,61
 496 358 496 358 516 342 c 0,62,63
 534.4375 329.09375 534.4375 329.09375 539 304 c 256,64,65
 543.294736842 280.378947368 543.294736842 280.378947368 529 262 c 1,66,-1
 463 169 l 2,0,1
236 465 m 0,67,68
 239 462 239 462 244.474754098 460.416393443 c 128,-1,69
 249.949508197 458.832786885 249.949508197 458.832786885 277.474754098 489.416393443 c 128,-1,70
 305 520 305 520 305 547.125 c 128,-1,71
 305 574.25 305 574.25 290 593 c 0,72,73
 274 609 274 609 258.5 609 c 128,-1,74
 243 609 243 609 237 606 c 128,-1,75
 231 603 231 603 226.625 601.125 c 128,-1,76
 222.25 599.25 222.25 599.25 212.125 588.414473684 c 128,-1,77
 202 577.578947368 202 577.578947368 202 558.289473684 c 128,-1,78
 202 539 202 539 204.5 531 c 128,-1,79
 207 523 207 523 208.5 517.5 c 128,-1,80
 210 512 210 512 214.659090909 501.75 c 128,-1,81
 219.318181818 491.5 219.318181818 491.5 226.159090909 480.75 c 128,-1,82
 233 470 233 470 236 465 c 0,67,68
218 100 m 0,83,84
 243 100 243 100 265 114 c 0,85,86
 273.333333333 117.333333333 273.333333333 117.333333333 284 128 c 0,87,88
 306 145.111111111 306 145.111111111 306 154 c 256,89,90
 306 158 306 158 304 162 c 2,91,-1
 208 295 l 2,92,93
 205 299 205 299 196.808510638 299.744680851 c 128,-1,94
 188.617021277 300.489361702 188.617021277 300.489361702 165 269 c 0,95,96
 160 263 160 263 156 257 c 128,-1,97
 152 251 152 251 148 246 c 0,98,99
 145 239 145 239 139 226 c 128,-1,100
 133 213 133 213 133 180.833333333 c 128,-1,101
 133 148.666666667 133 148.666666667 153.409090909 124.333333333 c 128,-1,102
 173.818181818 100 173.818181818 100 218 100 c 0,83,84
EndSplineSet
Validated: 524321
EndChar

StartChar: quotesingle
Encoding: 39 39 40
Width: 169
Flags: W
LayerCount: 2
Fore
SplineSet
65 706 m 1,0,1
 93 703 93 703 111 681.5 c 128,-1,2
 129 660 129 660 124 632 c 1,3,-1
 124 631 l 1,4,-1
 92 460 l 2,5,6
 89 443 89 443 75 430 c 0,7,8
 62 420 62 420 45 420 c 2,9,-1
 41 420 l 1,10,11
 22 422 22 422 9.5 435 c 128,-1,12
 -3 448 -3 448 -3 467 c 2,13,-1
 -4 641 l 2,14,15
 -4 669 -4 669 15.5 687.5 c 128,-1,16
 35 706 35 706 60 706 c 2,17,-1
 65 706 l 1,0,1
EndSplineSet
Validated: 33
EndChar

StartChar: parenleft
Encoding: 40 40 41
Width: 291
Flags: W
LayerCount: 2
Fore
SplineSet
186 20 m 256,0,1
 203.5 -20 203.5 -20 216.25 -45 c 128,-1,2
 229 -70 229 -70 214 -96 c 0,3,4
 205.818181818 -108.272727273 205.818181818 -108.272727273 169 -123 c 1,5,6
 139.642384106 -125.258278146 139.642384106 -125.258278146 122 -101 c 0,7,8
 0 61.6666666667 0 61.6666666667 0 296 c 256,9,10
 0 475.8 0 475.8 78 624 c 0,11,12
 106.769230769 673.692307692 106.769230769 673.692307692 118.384615385 689.346153846 c 0,13,14
 139.827284105 718.244055069 139.827284105 718.244055069 168.938958508 716.153673104 c 128,-1,15
 198.050632911 714.063291139 198.050632911 714.063291139 214 689 c 0,16,17
 227.75 661.5 227.75 661.5 212.875 632.75 c 128,-1,18
 198 604 198 604 179.410367171 558.993520518 c 0,19,20
 132 444.210526316 132 444.210526316 132 297 c 256,21,22
 132 143.428571429 132 143.428571429 186 20 c 256,0,1
EndSplineSet
Validated: 524321
EndChar

StartChar: asterisk
Encoding: 42 42 43
Width: 493
Flags: W
LayerCount: 2
Fore
SplineSet
251 763.5 m 2,0,-1
 260 763.5 l 2,1,2
 280 763.5 280 763.5 295 749 c 128,-1,3
 310 734.5 310 734.5 310 712.5 c 2,4,-1
 310 625.5 l 2,5,6
 310 620.5 310 620.5 317 620.5 c 1,7,-1
 393 648.5 l 2,8,9
 413 655.5 413 655.5 432 646 c 128,-1,10
 451 636.5 451 636.5 458 616.5 c 256,11,12
 465 596.5 465 596.5 455.5 577.5 c 128,-1,13
 446 558.5 446 558.5 425 551.5 c 2,14,-1
 345 524.5 l 2,15,16
 343 524.5 343 524.5 342 521.5 c 128,-1,17
 341 518.5 341 518.5 343 517.5 c 2,18,-1
 397 450.5 l 2,19,20
 410 433.5 410 433.5 407 412.5 c 128,-1,21
 404 391.5 404 391.5 388 378.5 c 1,22,-1
 387 378.5 l 1,23,24
 372 363.5 372 363.5 349 367 c 128,-1,25
 326 370.5 326 370.5 314 386.5 c 2,26,-1
 260 458.5 l 2,27,28
 258 460.5 258 460.5 256 461 c 128,-1,29
 254 461.5 254 461.5 251 458.5 c 2,30,-1
 201 390.5 l 2,31,32
 188 372.5 188 372.5 168 369.5 c 128,-1,33
 148 366.5 148 366.5 129 379.5 c 1,34,-1
 129 380.5 l 1,35,-1
 128 380.5 l 1,36,37
 110 396.5 110 396.5 108 416.5 c 128,-1,38
 106 436.5 106 436.5 119 452.5 c 2,39,-1
 171 517.5 l 2,40,41
 172 518.5 172 518.5 172 521.5 c 128,-1,42
 172 524.5 172 524.5 170 524.5 c 2,43,-1
 88 551.5 l 2,44,45
 57 562.5 57 562.5 53 596 c 0,46,47
 49 630.5 49 630.5 82 646.5 c 0,48,49
 102 654.5 102 654.5 122 647.5 c 2,50,-1
 195 620.5 l 1,51,52
 201 620.5 201 620.5 201 625.5 c 2,53,-1
 201 712.5 l 2,54,55
 201 734.5 201 734.5 216 749 c 128,-1,56
 231 763.5 231 763.5 251 763.5 c 2,0,-1
EndSplineSet
Validated: 524321
EndChar

StartChar: plus
Encoding: 43 43 44
Width: 550
Flags: W
LayerCount: 2
Fore
SplineSet
239 549 m 2,0,-1
 241 549 l 2,1,2
 266 549 266 549 283.5 531.5 c 0,3,4
 301 514 301 514 301 489 c 2,5,-1
 301 379 l 2,6,7
 301 373 301 373 304 372 c 0,8,9
 307 369 307 369 311 369 c 2,10,-1
 421 369 l 2,11,12
 445 369 445 369 462.5 351.5 c 128,-1,13
 480 334 480 334 480 308.5 c 128,-1,14
 480 283 480 283 463 266 c 0,15,16
 446 249 446 249 421 249 c 2,17,-1
 311 249 l 2,18,19
 307 249 307 249 304 246 c 256,20,21
 301 243 301 243 301 239 c 2,22,-1
 301 128 l 2,23,24
 301 103 301 103 284 86 c 128,-1,25
 267 69 267 69 241 69 c 2,26,-1
 239 69 l 2,27,28
 214 69 214 69 196.5 86.5 c 128,-1,29
 179 104 179 104 179 128 c 2,30,-1
 179 239 l 2,31,32
 179 249 179 249 169 249 c 2,33,-1
 60 249 l 2,34,35
 35 249 35 249 17.5 266.5 c 128,-1,36
 0 284 0 284 0 308.5 c 128,-1,37
 0 333 0 333 18 351 c 0,38,39
 34 369 34 369 60 369 c 2,40,-1
 169 369 l 2,41,42
 179 369 179 369 179 379 c 2,43,-1
 179 489 l 2,44,45
 179 515 179 515 197 531 c 0,46,47
 215 549 215 549 239 549 c 2,0,-1
EndSplineSet
Validated: 1
EndChar

StartChar: comma
Encoding: 44 44 45
Width: 248
Flags: W
LayerCount: 2
Fore
SplineSet
152 136 m 1,0,1
 178 112.166666667 178 112.166666667 178 74.5119047619 c 128,-1,2
 178 36.8571428571 178 36.8571428571 152.5 -10.5 c 0,3,4
 149 -17 149 -17 146 -24 c 2,5,-1
 103 -102 l 1,6,7
 89.6363636364 -123 89.6363636364 -123 66.8181818182 -123 c 128,-1,8
 44 -123 44 -123 32.5 -103.9 c 128,-1,9
 21 -84.8 21 -84.8 30 -65 c 2,10,-1
 54 -15 l 1,11,12
 59.7894736842 -6.31578947368 59.7894736842 -6.31578947368 50.3947368421 -2.15789473684 c 0,13,14
 32.4835589942 5.76918117344 32.4835589942 5.76918117344 25 14.5 c 0,15,16
 0 43.6666666667 0 43.6666666667 0 69.3333333333 c 0,17,18
 0 114.717971141 0 114.717971141 26.0549787636 138.858985571 c 128,-1,19
 52.1099575271 163 52.1099575271 163 90.4835501921 163 c 128,-1,20
 128.857142857 163 128.857142857 163 152 136 c 1,0,1
EndSplineSet
Validated: 524321
EndChar

StartChar: hyphen
Encoding: 45 45 46
Width: 399
Flags: W
LayerCount: 2
Fore
SplineSet
0 364 m 256,0,1
 0 390 0 390 18.5 408.5 c 128,-1,2
 37 427 37 427 62 427 c 2,3,-1
 266 427 l 2,4,5
 292 427 292 427 310.5 408.5 c 128,-1,6
 329 390 329 390 329 364 c 256,7,8
 329 338 329 338 311 320 c 0,9,10
 291 302 291 302 266 302 c 2,11,-1
 62 302 l 2,12,13
 38 302 38 302 18 320 c 0,14,15
 0 338 0 338 0 364 c 256,0,1
EndSplineSet
Validated: 1
EndChar

StartChar: period
Encoding: 46 46 47
Width: 245
Flags: W
LayerCount: 2
Fore
SplineSet
150 15 m 0,0,1
 137 4 137 4 122 -4 c 0,2,3
 105 -10 105 -10 86.5 -10 c 128,-1,4
 68 -10 68 -10 56.5 -5 c 0,5,6
 0 19.5652173913 0 19.5652173913 0 75.0326086957 c 0,7,8
 0 130.5 0 130.5 53 157 c 0,9,10
 68 163 68 163 86.5 163 c 128,-1,11
 105 163 105 163 122 157 c 0,12,13
 175 128.733333333 175 128.733333333 175 84.3666666667 c 128,-1,14
 175 40 175 40 150 15 c 0,0,1
EndSplineSet
Validated: 524289
EndChar

StartChar: slash
Encoding: 47 47 48
Width: 449
Flags: W
LayerCount: 2
Fore
SplineSet
259 668 m 2,0,1
 266 685 266 685 282 696 c 0,2,3
 299 706 299 706 316 706 c 256,4,5
 351.153846154 706 351.153846154 706 369.645550528 677.147058824 c 0,6,7
 388.137254902 648.294117647 388.137254902 648.294117647 374 618 c 2,8,-1
 121 38 l 2,9,10
 110.442622951 12.3606557377 110.442622951 12.3606557377 87 6.5 c 0,11,12
 81 5 81 5 75.5 3 c 128,-1,13
 70 1 70 1 58 0.5 c 128,-1,14
 46 0 46 0 32 8 c 128,-1,15
 18 16 18 16 10 28.5 c 0,16,17
 -8.43155452436 57.2993039443 -8.43155452436 57.2993039443 5 88 c 2,18,-1
 259 668 l 2,0,1
EndSplineSet
Validated: 524321
EndChar

StartChar: zero
Encoding: 48 48 49
Width: 503
Flags: W
LayerCount: 2
Fore
SplineSet
418.5 594.5 m 0,0,1
 433 554.222222222 433 554.222222222 433 511 c 2,2,-1
 433 195 l 2,3,4
 433 100.1 433 100.1 375 45 c 0,5,6
 350.964705882 18.2941176471 350.964705882 18.2941176471 308.982352941 2.14705882353 c 128,-1,7
 267 -14 267 -14 217 -14 c 256,8,9
 150.214285714 -14 150.214285714 -14 102 13 c 0,10,11
 55.6470588235 36.1764705882 55.6470588235 36.1764705882 27.8235294118 84.5882352941 c 128,-1,12
 0 133 0 133 0 195 c 2,13,-1
 0 511 l 2,14,15
 0 576 0 576 26 618 c 0,16,17
 43.4385964912 647.894736842 43.4385964912 647.894736842 58 661 c 256,18,19
 93.8823529412 693.294117647 93.8823529412 693.294117647 117.441176471 701.147058824 c 0,20,21
 174 720 174 720 217 720 c 256,22,23
 281.857142857 720 281.857142857 720 338.892499284 688.600200401 c 128,-1,24
 395.927855711 657.200400802 395.927855711 657.200400802 418.5 594.5 c 0,0,1
141 505 m 2,25,-1
 141 201 l 2,26,27
 141 158 141 158 161 138 c 1,28,29
 179 114 179 114 217 114 c 256,30,31
 271.0625 114 271.0625 114 287 165 c 0,32,33
 292 183 292 183 292 201 c 2,34,-1
 292 505 l 2,35,36
 292 566.153846154 292 566.153846154 249 586 c 0,37,38
 235 592 235 592 217 592 c 256,39,40
 179 592 179 592 161 568 c 0,41,42
 141 546.181818182 141 546.181818182 141 505 c 2,25,-1
EndSplineSet
Validated: 524289
EndChar

StartChar: one
Encoding: 49 49 50
Width: 320
Flags: W
LayerCount: 2
Fore
SplineSet
80 576 m 2,0,-1
 65 576 l 2,1,2
 38 576 38 576 19 595 c 256,3,4
 0 614 0 614 0 641 c 256,5,6
 0 668 0 668 19 687 c 256,7,8
 38 706 38 706 65 706 c 2,9,-1
 170 706 l 2,10,11
 210.608695652 706 210.608695652 706 229.5 666.5 c 0,12,13
 235 655 235 655 235 641 c 2,14,-1
 235 65 l 2,15,16
 235 40.375 235 40.375 216 19 c 0,17,18
 197 0 197 0 170 0 c 2,19,-1
 154 0 l 2,20,21
 127 0 127 0 108 19 c 0,22,23
 90 39 90 39 90 65 c 2,24,-1
 90 566 l 2,25,26
 90 570 90 570 87 573 c 256,27,28
 84 576 84 576 80 576 c 2,0,-1
EndSplineSet
Validated: 524289
EndChar

StartChar: two
Encoding: 50 50 51
Width: 511
Flags: W
LayerCount: 2
Fore
SplineSet
272 574 m 1,0,1
 259.555555556 590 259.555555556 590 230.777777778 590 c 0,2,3
 183.94274597 590 183.94274597 590 154.559322034 551.245762712 c 0,4,5
 135.183864451 525.691181927 135.183864451 525.691181927 101.591932226 521.845590963 c 128,-1,6
 68 518 68 518 45.5 535.5 c 128,-1,7
 23 553 23 553 21.5 574 c 0,8,9
 17.8523206751 625.067510549 17.8523206751 625.067510549 67 665 c 0,10,11
 104.953488372 698.488372093 104.953488372 698.488372093 148.976744186 709.244186047 c 128,-1,12
 193 720 193 720 217 720 c 0,13,14
 321.380952381 720 321.380952381 720 377.19047619 662.360655738 c 128,-1,15
 433 604.721311475 433 604.721311475 433 520 c 0,16,17
 433 471.4 433 471.4 416 434 c 256,18,19
 392.132075472 381.490566038 392.132075472 381.490566038 381.066037736 365.745283019 c 128,-1,20
 370 350 370 350 361.5 338.5 c 128,-1,21
 353 327 353 327 342 311 c 128,-1,22
 331 295 331 295 300.413043478 254.581521739 c 128,-1,23
 269.826086957 214.163043478 269.826086957 214.163043478 250.913043478 186.581521739 c 128,-1,24
 232 159 232 159 223.5 147.5 c 128,-1,25
 215 136 215 136 217.5 131 c 128,-1,26
 220 126 220 126 227 126 c 2,27,-1
 377 126 l 2,28,29
 416.5 126 416.5 126 435.5 88 c 0,30,31
 441 77 441 77 441 57 c 128,-1,32
 441 37 441 37 422.5 18.5 c 128,-1,33
 404 0 404 0 378 0 c 2,34,-1
 65 0 l 2,35,36
 25.5 0 25.5 0 7 37 c 256,37,38
 -11.380952381 73.7619047619 -11.380952381 73.7619047619 14 105 c 2,39,-1
 189 326 l 2,40,41
 204.529411765 345.764705882 204.529411765 345.764705882 231 381.5 c 0,42,43
 292 463.85 292 463.85 292 520 c 0,44,45
 292 556.111111111 292 556.111111111 273 573 c 1,46,-1
 273 574 l 1,47,-1
 272 574 l 1,0,1
EndSplineSet
Validated: 524321
EndChar

StartChar: three
Encoding: 51 51 52
Width: 536
Flags: W
LayerCount: 2
Fore
SplineSet
259 569 m 1,0,-1
 259 574 l 1,1,-1
 257 576 l 1,2,-1
 65 576 l 2,3,4
 38 576 38 576 19 595 c 128,-1,5
 0 614 0 614 0 641 c 256,6,7
 0 677.6 0 677.6 29 695 c 0,8,9
 47.3333333333 706 47.3333333333 706 65 706 c 2,10,-1
 364 706 l 2,11,12
 386 706 386 706 404.5 695 c 0,13,14
 443 672.108108108 443 672.108108108 443 629 c 0,15,16
 445 607 445 607 433 588 c 2,17,-1
 325 413 l 2,18,19
 318.454545455 404.272727273 318.454545455 404.272727273 326.727272727 400.136363636 c 128,-1,20
 335 396 335 396 340.5 393.5 c 128,-1,21
 346 391 346 391 351 388 c 256,22,23
 356 385 356 385 361.5 382 c 128,-1,24
 367 379 367 379 373 375 c 128,-1,25
 379 371 379 371 390.117647059 363.588235294 c 0,26,27
 401.235294118 356.176470588 401.235294118 356.176470588 425.5 329 c 0,28,29
 478.223097113 269.950131234 478.223097113 269.950131234 461 158 c 0,30,31
 451.388625592 95.5260663507 451.388625592 95.5260663507 397.112494614 44.1857604481 c 128,-1,32
 342.836363636 -7.15454545455 342.836363636 -7.15454545455 247 -14 c 256,33,34
 187.536082474 -18.2474226804 187.536082474 -18.2474226804 135 6 c 0,35,36
 106 17 106 17 85 34 c 0,37,38
 74 41 74 41 67 48.5 c 128,-1,39
 60 56 60 56 48.75 67.25 c 128,-1,40
 37.5 78.5 37.5 78.5 31.25 92.25 c 128,-1,41
 25 106 25 106 19.5 117.5 c 128,-1,42
 14 129 14 129 16 146.5 c 128,-1,43
 18 164 18 164 25.8333333333 176.30952381 c 128,-1,44
 33.6666666667 188.619047619 33.6666666667 188.619047619 49.8333333333 199.30952381 c 128,-1,45
 66 210 66 210 81 210 c 128,-1,46
 96 210 96 210 103 207.5 c 0,47,48
 138 195 138 195 148 170 c 0,49,50
 150 168 150 168 152 162 c 0,51,52
 154 156 154 156 163.5 146.5 c 2,53,-1
 171 139 l 1,54,55
 210.486486486 102.145945946 210.486486486 102.145945946 270 120 c 0,56,57
 303.076923077 129.923076923 303.076923077 129.923076923 316 159 c 0,58,59
 337.099526066 199.440758294 337.099526066 199.440758294 313 238 c 0,60,61
 301 255 301 255 284 266 c 0,62,63
 267 279 267 279 246 286 c 1,64,-1
 244 287 l 1,65,-1
 242 287 l 1,66,-1
 240 288 l 1,67,-1
 239 288 l 1,68,-1
 226 294 l 1,69,-1
 199 304 l 1,70,-1
 186 310 l 2,71,72
 157.167664671 323.45508982 157.167664671 323.45508982 149 350 c 0,73,74
 138.791666667 374.5 138.791666667 374.5 156 404 c 1,75,-1
 259 569 l 1,0,-1
EndSplineSet
Validated: 524321
EndChar

StartChar: four
Encoding: 52 52 53
Width: 577
Flags: W
LayerCount: 2
Fore
SplineSet
445 129 m 2,0,-1
 441 129 l 2,1,2
 437 129 437 129 434 126 c 256,3,4
 431 123 431 123 431 119 c 2,5,-1
 431 71 l 2,6,7
 431 39 431 39 411 21 c 0,8,9
 390 0 390 0 361 0 c 256,10,11
 332 0 332 0 311 21 c 0,12,13
 290 40 290 40 290 71 c 2,14,-1
 290 119 l 2,15,16
 290 129 290 129 280 129 c 2,17,-1
 173 129 l 1,18,-1
 65 128 l 2,19,20
 29.2857142857 128 29.2857142857 128 10 158 c 0,21,22
 -8.45161290323 190.290322581 -8.45161290323 190.290322581 6 221 c 2,23,-1
 217 667 l 2,24,25
 225 686 225 686 242 695 c 0,26,27
 258 706 258 706 277.5 706 c 0,28,29
 314.428571429 706 314.428571429 706 335 674 c 0,30,31
 353.709677419 641.258064516 353.709677419 641.258064516 339 610 c 2,32,-1
 177 269 l 2,33,34
 175 263 175 263 178 259 c 128,-1,35
 181 255 181 255 187 255 c 2,36,-1
 280 255 l 2,37,38
 284 255 284 255 287 258 c 256,39,40
 290 261 290 261 290 265 c 2,41,-1
 290 325 l 2,42,43
 290 356 290 356 311 375 c 0,44,45
 332 396 332 396 361 396 c 256,46,47
 390 396 390 396 411 375 c 0,48,49
 431 357 431 357 431 325 c 2,50,-1
 431 265 l 2,51,52
 431 263 431 263 432 261.5 c 128,-1,53
 433 260 433 260 434 258 c 0,54,55
 437 255 437 255 441 255 c 2,56,-1
 445 255 l 2,57,58
 471 255 471 255 489 237 c 0,59,60
 507 217 507 217 507 191.5 c 128,-1,61
 507 166 507 166 489.5 147.5 c 128,-1,62
 472 129 472 129 445 129 c 2,0,-1
EndSplineSet
Validated: 524321
EndChar

StartChar: five
Encoding: 53 53 54
Width: 518
Flags: W
LayerCount: 2
Fore
SplineSet
303 220 m 2,0,-1
 303 229 l 2,1,2
 303 275.5 303 275.5 281 303 c 0,3,4
 262.333333333 331 262.333333333 331 218 331 c 2,5,-1
 70 331 l 2,6,7
 43 331 43 331 24 350 c 256,8,9
 5 369 5 369 5 396 c 2,10,-1
 5 641 l 2,11,12
 5 668 5 668 24 687 c 256,13,14
 43 706 43 706 70 706 c 2,15,-1
 347 706 l 2,16,17
 372.625 706 372.625 706 394 687 c 0,18,19
 412 667 412 667 412 640.5 c 128,-1,20
 412 614 412 614 393 595 c 128,-1,21
 374 576 374 576 346 576 c 2,22,-1
 160 576 l 2,23,24
 150 576 150 576 150 566 c 2,25,-1
 150 472 l 2,26,27
 150 468 150 468 153 465 c 0,28,29
 155 464 155 464 156.5 463 c 128,-1,30
 158 462 158 462 160 462 c 2,31,-1
 218 462 l 2,32,33
 307.411764706 462 307.411764706 462 361.012004802 420.581632653 c 0,34,35
 414.612244898 379.163265306 414.612244898 379.163265306 431.306122449 329.081632653 c 128,-1,36
 448 279 448 279 448 235 c 2,37,-1
 448 214 l 2,38,39
 448 144.238095238 448 144.238095238 415.604347826 87.1600414079 c 128,-1,40
 383.208695652 30.0819875776 383.208695652 30.0819875776 313 2.5 c 0,41,42
 271 -14 271 -14 235.5 -14 c 0,43,44
 84.3636363636 -14 84.3636363636 -14 22 84 c 0,45,46
 -18.2040816327 140.285714286 -18.2040816327 140.285714286 13 180 c 0,47,48
 37.1333333333 213.786666667 37.1333333333 213.786666667 75 210 c 0,49,50
 92 209 92 209 108 197.5 c 128,-1,51
 124 186 124 186 130 174 c 128,-1,52
 136 162 136 162 139 158 c 128,-1,53
 142 154 142 154 144.5 150.5 c 0,54,55
 167.714285714 118 167.714285714 118 213.75 118 c 128,-1,56
 259.785714286 118 259.785714286 118 281 145 c 0,57,58
 294.823529412 167.117647059 294.823529412 167.117647059 298.911764706 181.558823529 c 128,-1,59
 303 196 303 196 303 220 c 2,0,-1
EndSplineSet
Validated: 524321
EndChar

StartChar: six
Encoding: 54 54 55
Width: 517
Flags: W
LayerCount: 2
Fore
SplineSet
342 442 m 0,0,1
 447 383.2 447 383.2 447 258 c 2,2,-1
 447 197 l 2,3,4
 447 102.842105263 447 102.842105263 387 46 c 0,5,6
 339.740740741 -1.25925925926 339.740740741 -1.25925925926 256.5 -12 c 0,7,8
 241 -14 241 -14 224 -14 c 256,9,10
 155.142857143 -14 155.142857143 -14 105 13 c 0,11,12
 79 26 79 26 60 46 c 0,13,14
 0 100 0 100 0 197 c 2,15,-1
 0 238 l 2,16,17
 0 259 0 259 2 277 c 256,18,19
 3 286 3 286 3.5 293.5 c 128,-1,20
 4 301 4 301 6 308.5 c 128,-1,21
 8 316 8 316 10 323.5 c 128,-1,22
 12 331 12 331 15 339 c 256,23,24
 18 347 18 347 20.5 356 c 128,-1,25
 23 365 23 365 28 373 c 1,26,-1
 28 374 l 1,27,-1
 185 671 l 2,28,29
 194 687 194 687 210.5 696.5 c 128,-1,30
 227 706 227 706 244.5 706 c 0,31,32
 279.428571429 706 279.428571429 706 300 674 c 0,33,34
 318.381679389 641.832061069 318.381679389 641.832061069 301 609 c 2,35,-1
 231 476 l 2,36,37
 228 471.5 228 471.5 235 468 c 0,38,39
 294.333333333 468 294.333333333 468 342 442 c 0,0,1
306 252 m 2,40,41
 306 291.333333333 306 291.333333333 290 310.666666667 c 128,-1,42
 274 330 274 330 259 335.5 c 128,-1,43
 244 341 244 341 223.5 341 c 0,44,45
 162.588235294 341 162.588235294 341 147 288 c 0,46,47
 141 271 141 271 141 252 c 2,48,-1
 141 203 l 2,49,50
 141 163.2 141 163.2 162 138 c 256,51,52
 182 114 182 114 223.346153846 114 c 0,53,54
 264.692307692 114 264.692307692 114 285.346153846 138.833333333 c 0,55,56
 306 163.666666667 306 163.666666667 306 203 c 2,57,-1
 306 252 l 2,40,41
EndSplineSet
Validated: 524321
EndChar

StartChar: seven
Encoding: 55 55 56
Width: 497
Flags: W
LayerCount: 2
Fore
SplineSet
355 706 m 2,0,1
 397.588235294 706 397.588235294 706 422.13368151 670.778816199 c 0,2,3
 446.679127726 635.557632399 446.679127726 635.557632399 431 593 c 1,4,-1
 204 42 l 2,5,6
 196 23 196 23 179 11.5 c 128,-1,7
 162 0 162 0 143 0 c 0,8,9
 104.3125 0 104.3125 0 84.6345108696 29.9347826087 c 0,10,11
 64.9565217391 59.8695652174 64.9565217391 59.8695652174 77 96 c 1,12,-1
 277 566 l 2,13,14
 279 572 279 572 276 576 c 0,15,16
 272 580 272 580 268 580 c 2,17,-1
 63 580 l 2,18,19
 37 580 37 580 18.5 598.5 c 128,-1,20
 0 617 0 617 0 643 c 0,21,22
 0 669 0 669 19 688 c 0,23,24
 39 706 39 706 64 706 c 2,25,-1
 355 706 l 2,0,1
EndSplineSet
Validated: 524321
EndChar

StartChar: eight
Encoding: 56 56 57
Width: 515
Flags: W
LayerCount: 2
Fore
SplineSet
389 366 m 0,0,1
 399 355 399 355 414.333333333 336.7 c 128,-1,2
 429.666666667 318.4 429.666666667 318.4 437.333333333 287.12 c 128,-1,3
 445 255.84 445 255.84 445 230 c 2,4,-1
 445 187 l 2,5,6
 445 128.357142857 445 128.357142857 418 84 c 0,7,8
 384.763779528 27.0236220472 384.763779528 27.0236220472 314.5 1 c 0,9,10
 274 -14 274 -14 230.5 -14 c 128,-1,11
 187 -14 187 -14 165.5 -9 c 0,12,13
 68.0269058296 13.668161435 68.0269058296 13.668161435 27 84 c 0,14,15
 0 128.357142857 0 128.357142857 0 187 c 2,16,-1
 0 230 l 2,17,18
 0 295.9 0 295.9 37 344 c 0,19,20
 48 359 48 359 56 366 c 128,-1,21
 64 373 64 373 64 378.5 c 128,-1,22
 64 384 64 384 54.7272727273 394.045454545 c 0,23,24
 45.4545454545 404.090909091 45.4545454545 404.090909091 37 421 c 0,25,26
 16 463 16 463 16 508 c 2,27,-1
 16 529 l 2,28,29
 16 644.3125 16 644.3125 116.333333333 697.166666667 c 0,30,31
 135 707 135 707 166.055555556 713.5 c 128,-1,32
 197.111111111 720 197.111111111 720 217.555555556 720 c 0,33,34
 350.857142857 720 350.857142857 720 404 627 c 0,35,36
 429 586.615384615 429 586.615384615 429 529 c 2,37,-1
 429 508 l 2,38,39
 429 487 429 487 426 469 c 0,40,41
 414.764044944 428.550561798 414.764044944 428.550561798 405.382022472 414.775280899 c 128,-1,42
 396 401 396 401 389.5 393.5 c 128,-1,43
 383 386 383 386 383 378 c 256,44,45
 383 370 383 370 389 366 c 0,0,1
288 499 m 2,46,-1
 288 523 l 2,47,48
 288 571.583333333 288 571.583333333 251 587 c 0,49,50
 238 592 238 592 222.5 592 c 0,51,52
 175.642857143 592 175.642857143 592 161 551 c 0,53,54
 157 540 157 540 157 523 c 2,55,-1
 157 499 l 2,56,57
 157 466 157 466 174 449 c 0,58,59
 190.363636364 429 190.363636364 429 223 429 c 0,60,61
 269 429 269 429 284 471 c 0,62,63
 288 483 288 483 288 499 c 2,46,-1
141 231 m 2,64,-1
 141 193 l 2,65,66
 141 157 141 157 157.5 140.5 c 0,67,68
 184 114 184 114 222.5 114 c 0,69,70
 278.4375 114 278.4375 114 299 161 c 0,71,72
 304 181 304 181 304 193 c 2,73,-1
 304 231 l 2,74,75
 304 263.8 304 263.8 283 289 c 0,76,77
 261 311 261 311 223 311 c 256,78,79
 184 311 184 311 162 289 c 0,80,81
 141 264.181818182 141 264.181818182 141 231 c 2,64,-1
EndSplineSet
Validated: 524289
EndChar

StartChar: nine
Encoding: 57 57 58
Width: 512
Flags: W
LayerCount: 2
Fore
SplineSet
60 297 m 1,0,1
 0 351 0 351 0 448 c 2,2,-1
 0 509 l 2,3,4
 0 582.25 0 582.25 42 640 c 0,5,6
 63.6091954023 669.712643678 63.6091954023 669.712643678 97.3045977011 687.856321839 c 0,7,8
 157 720 157 720 224 720 c 256,9,10
 303.666666667 720 303.666666667 720 366 677.5 c 0,11,12
 389.262295082 661.639344262 389.262295082 661.639344262 401.131147541 645.319672131 c 0,13,14
 431.253521127 603.901408451 431.253521127 603.901408451 439.126760563 572.450704225 c 128,-1,15
 447 541 447 541 447 509 c 2,16,-1
 447 447.5 l 2,17,18
 447 438 447 438 445.5 429 c 128,-1,19
 444 420 444 420 443.5 412 c 128,-1,20
 443 404 443 404 441 396.5 c 128,-1,21
 439 389 439 389 437 381.5 c 128,-1,22
 435 374 435 374 432 366 c 256,23,24
 429 358 429 358 426.5 349.5 c 128,-1,25
 424 341 424 341 419 332 c 2,26,-1
 262 35 l 2,27,28
 243.470588235 1.21430643318e-17 243.470588235 1.21430643318e-17 204 0 c 256,29,30
 167.571428571 0 167.571428571 0 147 32 c 0,31,32
 128.893129771 63.6870229008 128.893129771 63.6870229008 146 96 c 2,33,-1
 216 230 l 2,34,35
 219.342857143 236.685714286 219.342857143 236.685714286 205.5 237.5 c 0,36,37
 111.258566978 243.043613707 111.258566978 243.043613707 60 297 c 1,0,1
141 454 m 2,38,39
 141 388.625 141 388.625 188 371 c 0,40,41
 203 365 203 365 223.5 365 c 0,42,43
 281.5 365 281.5 365 301 417 c 0,44,45
 306 435 306 435 306 454 c 2,46,-1
 306 503 l 2,47,48
 306 542.333333333 306 542.333333333 290 561.666666667 c 128,-1,49
 274 581 274 581 259 586.5 c 128,-1,50
 244 592 244 592 223.5 592 c 0,51,52
 162.588235294 592 162.588235294 592 147 539 c 0,53,54
 141 522 141 522 141 503 c 2,55,-1
 141 454 l 2,38,39
EndSplineSet
Validated: 524321
EndChar

StartChar: colon
Encoding: 58 58 59
Width: 246
Flags: W
LayerCount: 2
Fore
SplineSet
89 349 m 256,0,1
 59.6 349 59.6 349 46.3 358.5 c 128,-1,2
 33 368 33 368 23.5 377 c 128,-1,3
 14 386 14 386 7.5 402.5 c 128,-1,4
 1 419 1 419 1 431.5 c 0,5,6
 1 467.833333333 1 467.833333333 26 497 c 1,7,8
 52.9230769231 522 52.9230769231 522 89 522 c 0,9,10
 104.333333333 522 104.333333333 522 122.166666667 515 c 128,-1,11
 140 508 140 508 148.5 499 c 0,12,13
 176 469.882352941 176 469.882352941 176 434.441176471 c 0,14,15
 176 399 176 399 151 374 c 128,-1,16
 126 349 126 349 89 349 c 256,0,1
150 15 m 0,17,18
 137 4 137 4 122 -4 c 0,19,20
 105 -10 105 -10 86.5 -10 c 128,-1,21
 68 -10 68 -10 56.5 -5 c 0,22,23
 0 19.5652173913 0 19.5652173913 0 75.0326086957 c 0,24,25
 0 130.5 0 130.5 53 157 c 0,26,27
 68 163 68 163 86.5 163 c 128,-1,28
 105 163 105 163 122 157 c 0,29,30
 175 128.733333333 175 128.733333333 175 84.3666666667 c 128,-1,31
 175 40 175 40 150 15 c 0,17,18
EndSplineSet
Validated: 524289
EndChar

StartChar: semicolon
Encoding: 59 59 60
Width: 248
Flags: W
LayerCount: 2
Fore
SplineSet
171 402 m 0,0,1
 157.855491329 366.947976879 157.855491329 366.947976879 120.5 353.5 c 0,2,3
 108 349 108 349 89.5 349 c 0,4,5
 53 349 53 349 28 374 c 128,-1,6
 3 399 3 399 3 432.15 c 128,-1,7
 3 465.3 3 465.3 17 483.5 c 0,8,9
 46.6153846154 522 46.6153846154 522 85.2243589744 522 c 128,-1,10
 123.833333333 522 123.833333333 522 153 497 c 1,11,12
 178 467.833333333 178 467.833333333 178 435 c 0,13,14
 178 419 178 419 171 402 c 0,0,1
152 136 m 1,15,16
 178 112.166666667 178 112.166666667 178 74.5119047619 c 128,-1,17
 178 36.8571428571 178 36.8571428571 152.5 -10.5 c 0,18,19
 149 -17 149 -17 146 -24 c 2,20,-1
 103 -102 l 1,21,22
 89.6363636364 -123 89.6363636364 -123 66.8181818182 -123 c 128,-1,23
 44 -123 44 -123 32.5 -103.9 c 128,-1,24
 21 -84.8 21 -84.8 30 -65 c 2,25,-1
 54 -15 l 1,26,27
 59.7894736842 -6.31578947368 59.7894736842 -6.31578947368 50.3947368421 -2.15789473684 c 0,28,29
 32.4835589942 5.76918117344 32.4835589942 5.76918117344 25 14.5 c 0,30,31
 0 43.6666666667 0 43.6666666667 0 69.3333333333 c 0,32,33
 0 114.717971141 0 114.717971141 26.0549787636 138.858985571 c 128,-1,34
 52.1099575271 163 52.1099575271 163 90.4835501921 163 c 128,-1,35
 128.857142857 163 128.857142857 163 152 136 c 1,15,16
EndSplineSet
Validated: 524321
EndChar

StartChar: less
Encoding: 60 60 61
Width: 514
Flags: W
LayerCount: 2
Fore
SplineSet
40 348 m 2,0,1
 40 386.8828125 40 386.8828125 78 407 c 1,2,-1
 400 555 l 2,3,4
 424.240234375 567.120117188 424.240234375 567.120117188 448 552 c 256,5,6
 472 536.727539062 472 536.727539062 472 509 c 256,7,8
 472 495 472 495 463 481.5 c 128,-1,9
 454 468 454 468 442 463 c 2,10,-1
 191 348 l 2,11,12
 185 345 185 345 185 339 c 256,13,14
 185 333 185 333 191 330 c 2,15,-1
 442 214 l 1,16,17
 472 197.845703125 472 197.845703125 472 168.559570312 c 128,-1,18
 472 139.272460938 472 139.272460938 448.5 124.13671875 c 128,-1,19
 425 109 425 109 399 121 c 2,20,-1
 78 270 l 2,21,22
 62 277 62 277 50 294 c 0,23,24
 40 311 40 311 40 329 c 2,25,-1
 40 348 l 2,0,1
EndSplineSet
Validated: 524321
EndChar

StartChar: equal
Encoding: 61 61 62
Width: 550
Flags: W
LayerCount: 2
Fore
SplineSet
60 151 m 2,0,1
 35 151 35 151 17.5 168.5 c 128,-1,2
 0 186 0 186 0 210.5 c 128,-1,3
 0 235 0 235 18 253 c 0,4,5
 34 271 34 271 60 271 c 2,6,-1
 421 271 l 2,7,8
 445 271 445 271 462.5 253.5 c 128,-1,9
 480 236 480 236 480 210.5 c 128,-1,10
 480 185 480 185 463 168 c 0,11,12
 446 151 446 151 421 151 c 2,13,-1
 60 151 l 2,0,1
60 347 m 2,14,15
 35 347 35 347 17.5 364.5 c 128,-1,16
 0 382 0 382 0 406.5 c 128,-1,17
 0 431 0 431 18 449 c 0,18,19
 34 467 34 467 60 467 c 2,20,-1
 421 467 l 2,21,22
 445 467 445 467 462.5 449.5 c 128,-1,23
 480 432 480 432 480 406.5 c 128,-1,24
 480 381 480 381 463 364 c 0,25,26
 446 347 446 347 421 347 c 2,27,-1
 60 347 l 2,14,15
EndSplineSet
Validated: 1
EndChar

StartChar: greater
Encoding: 62 62 63
Width: 514
Flags: W
LayerCount: 2
Fore
SplineSet
472 348 m 2,0,1
 472 386.8828125 472 386.8828125 434 407 c 1,2,-1
 112 555 l 2,3,4
 87.759765625 567.120117188 87.759765625 567.120117188 64 552 c 256,5,6
 40 536.727539062 40 536.727539062 40 509 c 256,7,8
 40 495 40 495 49 481.5 c 128,-1,9
 58 468 58 468 70 463 c 2,10,-1
 321 348 l 2,11,12
 327 345 327 345 327 339 c 256,13,14
 327 333 327 333 321 330 c 2,15,-1
 70 214 l 1,16,17
 40 197.845703125 40 197.845703125 40 168.559570312 c 128,-1,18
 40 139.272460938 40 139.272460938 63.5 124.13671875 c 128,-1,19
 87 109 87 109 113 121 c 2,20,-1
 434 270 l 2,21,22
 450 277 450 277 462 294 c 0,23,24
 472 311 472 311 472 329 c 2,25,-1
 472 348 l 2,0,1
EndSplineSet
Validated: 524329
EndChar

StartChar: question
Encoding: 63 63 64
Width: 519
Flags: W
LayerCount: 2
Fore
SplineSet
234 163 m 256,0,1
 268.727272727 163 268.727272727 163 296 138 c 256,2,3
 321 115.083333333 321 115.083333333 321 76.5 c 128,-1,4
 321 37.9166666667 321 37.9166666667 296 15 c 0,5,6
 271 -10 271 -10 234 -10 c 256,7,8
 194.916666667 -10 194.916666667 -10 172 15 c 0,9,10
 147 37.9166666667 147 37.9166666667 147 77 c 0,11,12
 147 132.058823529 147 132.058823529 200 157 c 0,13,14
 215 163 215 163 234 163 c 256,0,1
239 196 m 2,15,-1
 223 196 l 2,16,17
 181.913043478 196 181.913043478 196 163.5 234.5 c 0,18,19
 158 246 158 246 158 260 c 2,20,-1
 158 347 l 2,21,22
 158 366 158 366 169 383 c 0,23,24
 181 400 181 400 198 407 c 2,25,-1
 230 420 l 2,26,27
 276.465517241 438.586206897 276.465517241 438.586206897 291.732758621 461.293103448 c 0,28,29
 320.225543764 503.670289257 320.225543764 503.670289257 300.719914739 544.539226261 c 128,-1,30
 281.214285714 585.408163265 281.214285714 585.408163265 233 590 c 256,31,32
 161.430016863 596.81618887 161.430016863 596.81618887 129.5 530.5 c 0,33,34
 123 517 123 517 105.5 506 c 128,-1,35
 88 495 88 495 68.5 495.5 c 0,36,37
 28.3171577123 496.530329289 28.3171577123 496.530329289 11 529 c 0,38,39
 -9.24150943396 560.486792453 -9.24150943396 560.486792453 4.37924528302 589.743396226 c 128,-1,40
 18 619 18 619 32 637 c 0,41,42
 84.6923076923 700.230769231 84.6923076923 700.230769231 173 716 c 0,43,44
 234.397820163 726.585831063 234.397820163 726.585831063 287 711 c 0,45,46
 371.42384106 689.894039735 371.42384106 689.894039735 415.5 621.5 c 128,-1,47
 459.467741935 553.274193548 459.467741935 553.274193548 447 466 c 0,48,49
 435.583535109 404.351089588 435.583535109 404.351089588 404.448017554 371.488044794 c 128,-1,50
 373.3125 338.625 373.3125 338.625 351.65625 326.8125 c 2,51,-1
 309 304 l 2,52,53
 308 304 308 304 305 301 c 0,54,55
 304 299 304 299 304 296 c 2,56,-1
 304 260 l 2,57,58
 304 235.375 304 235.375 285 214 c 0,59,60
 265 196 265 196 239 196 c 2,15,-1
EndSplineSet
Validated: 524321
EndChar

StartChar: at
Encoding: 64 64 65
Width: 846
Flags: W
LayerCount: 2
Fore
SplineSet
542 130 m 0,0,1
 542 83 542 83 591 83 c 0,2,3
 615 83 615 83 631 97 c 0,4,5
 656.147058824 115.441176471 656.147058824 115.441176471 669.573529412 155.720588235 c 128,-1,6
 683 196 683 196 683 237 c 128,-1,7
 683 278 683 278 679 300 c 0,8,9
 663.208791209 386.851648352 663.208791209 386.851648352 602 445 c 1,10,11
 524 511 524 511 399 511 c 0,12,13
 224.230769231 511 224.230769231 511 143 379 c 0,14,15
 98 311.5 98 311.5 98 201 c 0,16,17
 98 68 98 68 174 -6 c 0,18,19
 255 -87 255 -87 409 -87 c 0,20,21
 488 -87 488 -87 551 -66 c 0,22,23
 569 -60 569 -60 585 -69.5 c 128,-1,24
 601 -79 601 -79 605 -95.5 c 128,-1,25
 609 -112 609 -112 602 -127 c 0,26,27
 585.935251799 -156.834532374 585.935251799 -156.834532374 485 -170 c 256,28,29
 446.666666667 -175 446.666666667 -175 404 -175 c 0,30,31
 218 -175 218 -175 109 -72.1153846154 c 128,-1,32
 0 30.7692307692 0 30.7692307692 0 202 c 0,33,34
 0 288 0 288 28 360 c 0,35,36
 41 397 41 397 62 428 c 0,37,38
 97.6171617162 487.98679868 97.6171617162 487.98679868 166 535 c 0,39,40
 262 601 262 601 397 601 c 0,41,42
 604 601 604 601 715 453 c 1,43,44
 776 359.894736842 776 359.894736842 776 248.947368421 c 128,-1,45
 776 138 776 138 726.083333333 68.5 c 128,-1,46
 676.166666667 -1 676.166666667 -1 588 -1 c 0,47,48
 529 -1 529 -1 493 29 c 0,49,50
 488 32 488 32 484 38 c 1,51,-1
 475 47 l 1,52,53
 472 52 472 52 466.5 52 c 128,-1,54
 461 52 461 52 453.5 44.5 c 0,55,56
 408 -1 408 -1 339 -1 c 256,57,58
 269.909090909 -1 269.909090909 -1 226 45 c 0,59,60
 189 88.5294117647 189 88.5294117647 189 159 c 0,61,62
 189 203 189 203 202 255 c 0,63,64
 206 266 206 266 210 277 c 0,65,66
 234.918518519 345.525925926 234.918518519 345.525925926 283.613105413 382.762962963 c 128,-1,67
 332.307692308 420 332.307692308 420 394 420 c 2,68,-1
 426.5 420 l 2,69,70
 440 420 440 420 458.5 419 c 128,-1,71
 477 418 477 418 501 405.5 c 0,72,73
 552.168995043 378.849481749 552.168995043 378.849481749 565.5 324.5 c 0,74,75
 572 298 572 298 565 269 c 2,76,-1
 546 182 l 2,77,78
 540 152 540 152 542 130 c 0,0,1
288 161 m 0,79,80
 288 88 288 88 353 88 c 0,81,82
 372 88 372 88 398 107.5 c 128,-1,83
 424 127 424 127 439.5 173.5 c 0,84,85
 447 196 447 196 467 266 c 0,86,87
 475 294 475 294 462 311.5 c 128,-1,88
 449 329 449 329 426 331 c 1,89,-1
 398 331 l 2,90,91
 351.5 331 351.5 331 319 279 c 0,92,93
 308.818181818 262.454545455 308.818181818 262.454545455 296 224 c 0,94,95
 288 192 288 192 288 161 c 0,79,80
EndSplineSet
Validated: 524321
EndChar

StartChar: A
Encoding: 65 65 66
Width: 546
Flags: W
LayerCount: 2
Fore
SplineSet
459 524.5 m 0,0,1
 461 509 461 509 461 492 c 2,2,-1
 461 73 l 2,3,4
 461 42 461 42 440 21 c 0,5,6
 417 0 417 0 387.5 0 c 128,-1,7
 358 0 358 0 337 21 c 256,8,9
 316 42 316 42 316 73 c 2,10,-1
 316 215 l 2,11,12
 316 219 316 219 313 222 c 256,13,14
 310 225 310 225 306 225 c 2,15,-1
 155 225 l 2,16,17
 145 225 145 225 145 215 c 2,18,-1
 145 73 l 2,19,20
 145 42 145 42 124 21 c 256,21,22
 103 0 103 0 72.5 0 c 128,-1,23
 42 0 42 0 21 21 c 256,24,25
 0 42 0 42 0 73 c 2,26,-1
 0 492 l 2,27,28
 0 610.363636364 0 610.363636364 83 674.5 c 0,29,30
 116 700 116 700 157 710 c 128,-1,31
 198 720 198 720 223 720 c 0,32,33
 319.117647059 720 319.117647059 720 382.794979881 670.794788274 c 128,-1,34
 446.472312704 621.589576547 446.472312704 621.589576547 459 524.5 c 0,0,1
155 353 m 2,35,-1
 306 353 l 2,36,37
 310 353 310 353 313 356 c 0,38,39
 314 358 314 358 315 359.5 c 128,-1,40
 316 361 316 361 316 363 c 2,41,-1
 316 486 l 2,42,43
 316 529.833333333 316 529.833333333 294 561 c 0,44,45
 272.785714286 588 272.785714286 588 230.5 588 c 0,46,47
 188.214285714 588 188.214285714 588 171.607142857 566 c 0,48,49
 145 530.752688172 145 530.752688172 145 486 c 2,50,-1
 145 363 l 2,51,52
 145 359 145 359 148 356 c 256,53,54
 151 353 151 353 155 353 c 2,35,-1
EndSplineSet
Validated: 524289
EndChar

StartChar: B
Encoding: 66 66 67
Width: 522
Flags: W
LayerCount: 2
Fore
SplineSet
406 338 m 256,0,1
 409 334 409 334 420.846153846 320.179487179 c 128,-1,2
 432.692307692 306.358974359 432.692307692 306.358974359 440.346153846 281.679487179 c 128,-1,3
 448 257 448 257 448.5 250.5 c 128,-1,4
 449 244 449 244 450 238 c 256,5,6
 452 226 452 226 452 215.5 c 0,7,8
 452 164.666666667 452 164.666666667 435 125 c 0,9,10
 432 119 432 119 426 106 c 128,-1,11
 420 93 420 93 405 78 c 256,12,13
 400 73 400 73 391.947368421 64.0526315789 c 128,-1,14
 383.894736842 55.1052631579 383.894736842 55.1052631579 376.947368421 50.0526315789 c 128,-1,15
 370 45 370 45 364 40.5 c 0,16,17
 334.888888889 18.6666666667 334.888888889 18.6666666667 299.5 10.5 c 0,18,19
 293 9 293 9 276.125 4.5 c 128,-1,20
 259.25 -8.67361737988e-19 259.25 -8.67361737988e-19 226 0 c 2,21,-1
 65 0 l 2,22,23
 38 0 38 0 19 19 c 256,24,25
 0 38 0 38 0 65 c 2,26,-1
 0 641 l 2,27,28
 0 677.6 0 677.6 29 695 c 0,29,30
 47.3333333333 706 47.3333333333 706 65 706 c 2,31,-1
 226 706 l 2,32,33
 239 706 239 706 250.5 704.5 c 128,-1,34
 262 703 262 703 268.5 702.5 c 128,-1,35
 275 702 275 702 282 700 c 256,36,37
 289 698 289 698 301 695 c 128,-1,38
 313 692 313 692 332 682.5 c 128,-1,39
 351 673 351 673 356 669 c 256,40,41
 361 665 361 665 369.191489362 659.787234043 c 128,-1,42
 377.382978723 654.574468085 377.382978723 654.574468085 388.191489362 642.287234043 c 128,-1,43
 399 630 399 630 403 625 c 128,-1,44
 407 620 407 620 410.5 614.5 c 128,-1,45
 414 609 414 609 417 603 c 128,-1,46
 420 597 420 597 422.5 591 c 128,-1,47
 425 585 425 585 432 568.2 c 128,-1,48
 439 551.4 439 551.4 439 524.875 c 2,49,-1
 439 500.5 l 2,50,51
 439 488 439 488 435.5 475.5 c 128,-1,52
 432 463 432 463 430.5625 455.8125 c 128,-1,53
 429.125 448.625 429.125 448.625 425.0625 441.3125 c 128,-1,54
 421 434 421 434 419 430 c 128,-1,55
 417 426 417 426 414.5 422.5 c 128,-1,56
 412 419 412 419 410 415.5 c 128,-1,57
 408 412 408 412 396.75 398.5 c 128,-1,58
 385.5 385 385.5 385 381.25 382 c 128,-1,59
 377 379 377 379 376.5 378 c 128,-1,60
 376 377 376 377 375 376 c 1,61,-1
 375 372 l 2,62,63
 375 367 375 367 382 361 c 128,-1,64
 389 355 389 355 392.5 351.5 c 128,-1,65
 396 348 396 348 399.5 345 c 128,-1,66
 403 342 403 342 406 338 c 256,0,1
147 301.5 m 2,67,-1
 145 296 l 1,68,-1
 145 138 l 1,69,-1
 148 131 l 1,70,-1
 151 128 l 1,71,-1
 212.125 128 l 2,72,73
 259 128 259 128 277 146 c 0,74,75
 280 149 280 149 287.6 156.1 c 128,-1,76
 295.2 163.2 295.2 163.2 297.6 169.6 c 128,-1,77
 300 176 300 176 304 184.666666667 c 128,-1,78
 308 193.333333333 308 193.333333333 308 207 c 2,79,-1
 308 226.5 l 2,80,81
 308 252.2 308 252.2 294 269 c 0,82,83
 279.444444444 290.833333333 279.444444444 290.833333333 255 300 c 0,84,85
 251 302 251 302 247 302.5 c 128,-1,86
 243 303 243 303 236.25 304.5 c 128,-1,87
 229.5 306 229.5 306 220 306 c 2,88,-1
 155 306 l 1,89,-1
 149.5 304 l 2,90,91
 147 304 147 304 147 301.5 c 2,67,-1
149.5 433 m 2,92,-1
 155 431 l 1,93,-1
 220 431 l 2,94,95
 260.75 431 260.75 431 284 462 c 0,96,97
 294 477 294 477 294 489 c 0,98,99
 296 497 296 497 296 505 c 256,100,101
 296 522 296 522 292.5 529.5 c 128,-1,102
 289 537 289 537 285.684210526 544.736842105 c 128,-1,103
 282.368421053 552.473684211 282.368421053 552.473684211 271.184210526 560.736842105 c 128,-1,104
 260 569 260 569 256.5 570 c 128,-1,105
 253 571 253 571 245.125 574.5 c 128,-1,106
 237.25 578 237.25 578 220 578 c 2,107,-1
 155 578 l 2,108,109
 151 578 151 578 149 576 c 128,-1,110
 147 574 147 574 147 573.5 c 2,111,-1
 145 568 l 1,112,-1
 145 441 l 1,113,114
 147.666666667 433 147.666666667 433 149.5 433 c 2,92,-1
EndSplineSet
Validated: 524289
EndChar

StartChar: C
Encoding: 67 67 68
Width: 531
Flags: W
LayerCount: 2
Fore
SplineSet
461 220 m 2,0,-1
 461 214 l 2,1,2
 461 112 461 112 398 49 c 128,-1,3
 335 -14 335 -14 238.441176471 -14 c 128,-1,4
 141.882352941 -14 141.882352941 -14 87.1031635116 28.3293736501 c 0,5,6
 32.3239740821 70.6587473002 32.3239740821 70.6587473002 16.161987041 120.940484761 c 128,-1,7
 0 171.222222222 0 171.222222222 0 214 c 2,8,-1
 0 492 l 2,9,10
 0 610.363636364 0 610.363636364 83 674.5 c 0,11,12
 116 700 116 700 157 710 c 128,-1,13
 198 720 198 720 223 720 c 0,14,15
 301.571428571 720 301.571428571 720 353 690 c 0,16,17
 382.538461538 674.527472527 382.538461538 674.527472527 396.769230769 658.263736264 c 2,18,-1
 418 634 l 1,19,20
 437 609 437 609 435 581 c 256,21,22
 433 553 433 553 410.5 535.5 c 128,-1,23
 388 518 388 518 364.5 520.5 c 0,24,25
 321.395721925 525.085561497 321.395721925 525.085561497 303 549 c 0,26,27
 288 567 288 567 272 578 c 0,28,29
 252 589 252 589 224 589 c 128,-1,30
 196 589 196 589 170.5 563.5 c 128,-1,31
 145 538 145 538 145 508 c 2,32,-1
 145 220 l 2,33,34
 145 181.333333333 145 181.333333333 153.5 167.166666667 c 128,-1,35
 162 153 162 153 170 142 c 0,36,37
 187.454545455 118 187.454545455 118 230.12012987 118 c 128,-1,38
 272.785714286 118 272.785714286 118 294 145 c 0,39,40
 307.823529412 167.117647059 307.823529412 167.117647059 311.911764706 181.558823529 c 128,-1,41
 316 196 316 196 316 219 c 2,42,-1
 316 220 l 2,43,44
 316 248 316 248 337 271 c 0,45,46
 358 292 358 292 388 292 c 0,47,48
 418 294 418 294 439 271 c 0,49,50
 461 251 461 251 461 220 c 2,0,-1
EndSplineSet
Validated: 524321
EndChar

StartChar: D
Encoding: 68 68 69
Width: 512
Flags: W
LayerCount: 2
Fore
SplineSet
281 698 m 256,0,1
 387.816326531 671.295918367 387.816326531 671.295918367 427 565.5 c 0,2,3
 442 525 442 525 442 474 c 2,4,-1
 442 231 l 2,5,6
 442 93 442 93 337 30 c 0,7,8
 285.571428571 2.60208521397e-18 285.571428571 2.60208521397e-18 216 0 c 2,9,-1
 65 0 l 2,10,11
 38 0 38 0 19 19 c 256,12,13
 0 38 0 38 0 65 c 2,14,-1
 0 641 l 2,15,16
 0 668 0 668 19 687 c 256,17,18
 38 706 38 706 65 706 c 2,19,-1
 216 706 l 2,20,21
 249 706 249 706 281 698 c 256,0,1
145 142 m 2,22,23
 145 132 145 132 155 132 c 2,24,-1
 209 132 l 2,25,26
 273.285714286 132 273.285714286 132 291 194 c 0,27,28
 297 213 297 213 297 237 c 2,29,-1
 297 469 l 2,30,31
 297 531 297 531 262 558.5 c 0,32,33
 242.272727273 574 242.272727273 574 209 574 c 2,34,-1
 155 574 l 2,35,36
 145 574 145 574 145 564 c 2,37,-1
 145 142 l 2,22,23
EndSplineSet
Validated: 524289
EndChar

StartChar: E
Encoding: 69 69 70
Width: 451
Flags: W
LayerCount: 2
Fore
SplineSet
145 140 m 2,0,1
 145 130 145 130 155 130 c 2,2,-1
 316 130 l 2,3,4
 343 130 343 130 358.142857143 114.857142857 c 0,5,6
 373.285714286 99.7142857143 373.285714286 99.7142857143 381 65 c 1,7,8
 381 38 381 38 362 19 c 0,9,10
 345 0 345 0 316 0 c 2,11,-1
 65 0 l 2,12,13
 38 0 38 0 19 19 c 256,14,15
 0 38 0 38 0 65 c 2,16,-1
 0 641 l 2,17,18
 0 668 0 668 19 687 c 256,19,20
 38 706 38 706 65 706 c 2,21,-1
 314 706 l 2,22,23
 342 706 342 706 359 687 c 0,24,25
 378 668 378 668 378 641 c 256,26,27
 378 614 378 614 359 595 c 0,28,29
 342 576 342 576 314 576 c 2,30,-1
 155 576 l 2,31,32
 145 576 145 576 145 566 c 2,33,-1
 145 442 l 2,34,35
 145 438 145 438 148 435 c 256,36,37
 151 432 151 432 155 432 c 2,38,-1
 272 432 l 2,39,40
 299 432 299 432 318 413 c 0,41,42
 337 396 337 396 337 368.5 c 128,-1,43
 337 341 337 341 318 322 c 256,44,45
 299 303 299 303 272 303 c 2,46,-1
 155 303 l 2,47,48
 151 303 151 303 148 300 c 256,49,50
 145 297 145 297 145 293 c 2,51,-1
 145 140 l 2,0,1
EndSplineSet
Validated: 524289
EndChar

StartChar: F
Encoding: 70 70 71
Width: 448
Flags: W
LayerCount: 2
Fore
SplineSet
378 641 m 256,0,1
 378 614 378 614 359 595 c 0,2,3
 342 576 342 576 314 576 c 2,4,-1
 155 576 l 2,5,6
 145 576 145 576 145 566 c 2,7,-1
 145 442 l 2,8,9
 145 438 145 438 148 435 c 256,10,11
 151 432 151 432 155 432 c 2,12,-1
 267 432 l 2,13,14
 294 432 294 432 313 413 c 0,15,16
 332 396 332 396 332 368.5 c 128,-1,17
 332 341 332 341 313 322 c 256,18,19
 294 303 294 303 267 303 c 2,20,-1
 155 303 l 2,21,22
 151 303 151 303 148 300 c 256,23,24
 145 297 145 297 145 293 c 2,25,-1
 145 73 l 2,26,27
 145 42 145 42 124 21 c 256,28,29
 103 0 103 0 72.5 0 c 128,-1,30
 42 0 42 0 21 21 c 256,31,32
 0 42 0 42 0 73 c 2,33,-1
 0 641 l 2,34,35
 0 668 0 668 19 687 c 256,36,37
 38 706 38 706 65 706 c 2,38,-1
 314 706 l 2,39,40
 342 706 342 706 359 687 c 0,41,42
 378 668 378 668 378 641 c 256,0,1
EndSplineSet
Validated: 1
EndChar

StartChar: G
Encoding: 71 71 72
Width: 531
Flags: W
LayerCount: 2
Fore
SplineSet
396 418 m 2,0,1
 423 418 423 418 442 399 c 256,2,3
 461 380 461 380 461 353 c 2,4,-1
 461 214 l 2,5,6
 461 112 461 112 398 49 c 128,-1,7
 335 -14 335 -14 238.441176471 -14 c 128,-1,8
 141.882352941 -14 141.882352941 -14 87.1031635116 28.3293736501 c 0,9,10
 32.3239740821 70.6587473002 32.3239740821 70.6587473002 16.161987041 120.940484761 c 128,-1,11
 0 171.222222222 0 171.222222222 0 214 c 2,12,-1
 0 492 l 2,13,14
 0 610.363636364 0 610.363636364 83 674.5 c 0,15,16
 116 700 116 700 157 710 c 128,-1,17
 198 720 198 720 223 720 c 0,18,19
 301.571428571 720 301.571428571 720 353 690 c 0,20,21
 382.538461538 674.527472527 382.538461538 674.527472527 396.769230769 658.263736264 c 2,22,-1
 418 634 l 1,23,24
 437 609 437 609 435 581 c 256,25,26
 433 553 433 553 410.5 535.5 c 128,-1,27
 388 518 388 518 364.5 520.5 c 0,28,29
 321.395721925 525.085561497 321.395721925 525.085561497 303 549 c 0,30,31
 288 567 288 567 272 578 c 0,32,33
 252 589 252 589 224 589 c 128,-1,34
 196 589 196 589 170.5 563.5 c 128,-1,35
 145 538 145 538 145 508 c 2,36,-1
 145 220 l 2,37,38
 145 181.333333333 145 181.333333333 153.5 167.166666667 c 128,-1,39
 162 153 162 153 170 142 c 0,40,41
 187.454545455 118 187.454545455 118 230.12012987 118 c 128,-1,42
 272.785714286 118 272.785714286 118 294 145 c 0,43,44
 307.823529412 167.117647059 307.823529412 167.117647059 311.911764706 181.558823529 c 128,-1,45
 316 196 316 196 316 220 c 2,46,-1
 316 288 l 1,47,-1
 278 288 l 2,48,49
 250 288 250 288 233 307 c 0,50,51
 214 326 214 326 214 353 c 256,52,53
 214 380 214 380 233 399 c 0,54,55
 250 418 250 418 278 418 c 2,56,-1
 396 418 l 2,0,1
EndSplineSet
Validated: 524321
EndChar

StartChar: H
Encoding: 72 72 73
Width: 539
Flags: W
LayerCount: 2
Fore
SplineSet
309 633 m 2,0,1
 309 662 309 662 330 685 c 0,2,3
 351 706 351 706 381 706 c 256,4,5
 411 706 411 706 432.5 684.5 c 128,-1,6
 454 663 454 663 454 633 c 2,7,-1
 454 73 l 2,8,9
 454 41 454 41 432.5 20.5 c 128,-1,10
 411 0 411 0 381 0 c 256,11,12
 351 0 351 0 330 21 c 256,13,14
 309 42 309 42 309 73 c 2,15,-1
 309 293 l 2,16,17
 309 295 309 295 308 296.5 c 128,-1,18
 307 298 307 298 306 300 c 0,19,20
 303 303 303 303 299 303 c 2,21,-1
 155 303 l 2,22,23
 151 303 151 303 148 300 c 256,24,25
 145 297 145 297 145 293 c 2,26,-1
 145 73 l 2,27,28
 145 42 145 42 124 21 c 256,29,30
 103 0 103 0 72.5 0 c 128,-1,31
 42 0 42 0 21 21 c 256,32,33
 0 42 0 42 0 73 c 2,34,-1
 0 633 l 2,35,36
 0 662 0 662 21 685 c 0,37,38
 42 706 42 706 72.5 706 c 128,-1,39
 103 706 103 706 124 685 c 0,40,41
 145 662 145 662 145 633 c 2,42,-1
 145 442 l 2,43,44
 145 438 145 438 148 435 c 256,45,46
 151 432 151 432 155 432 c 2,47,-1
 299 432 l 2,48,49
 303 432 303 432 306 435 c 0,50,51
 307 437 307 437 308 438.5 c 128,-1,52
 309 440 309 440 309 442 c 2,53,-1
 309 633 l 2,0,1
EndSplineSet
Validated: 1
EndChar

StartChar: I
Encoding: 73 73 74
Width: 230
Flags: W
LayerCount: 2
Fore
SplineSet
0 633 m 2,0,1
 0 662 0 662 21 685 c 0,2,3
 42 706 42 706 72.5 706 c 128,-1,4
 103 706 103 706 124 685 c 0,5,6
 145 662 145 662 145 633 c 2,7,-1
 145 73 l 2,8,9
 145 42 145 42 124 21 c 256,10,11
 103 0 103 0 72.5 0 c 128,-1,12
 42 0 42 0 21 21 c 256,13,14
 0 42 0 42 0 73 c 2,15,-1
 0 633 l 2,0,1
EndSplineSet
Validated: 1
EndChar

StartChar: J
Encoding: 74 74 75
Width: 533
Flags: W
LayerCount: 2
Fore
SplineSet
448 633 m 2,0,-1
 448 214 l 2,1,2
 448 144.238095238 448 144.238095238 415.604347826 87.1600414079 c 128,-1,3
 383.208695652 30.0819875776 383.208695652 30.0819875776 313 2.5 c 0,4,5
 271 -14 271 -14 235.5 -14 c 0,6,7
 84.3636363636 -14 84.3636363636 -14 22 84 c 0,8,9
 -18.2040816327 140.285714286 -18.2040816327 140.285714286 13 180 c 0,10,11
 37.1333333333 213.786666667 37.1333333333 213.786666667 75 210 c 0,12,13
 92 209 92 209 108 197.5 c 128,-1,14
 124 186 124 186 130 174 c 128,-1,15
 136 162 136 162 139 158 c 128,-1,16
 142 154 142 154 144.5 150.5 c 0,17,18
 167.714285714 118 167.714285714 118 213.75 118 c 128,-1,19
 259.785714286 118 259.785714286 118 281 145 c 0,20,21
 294.823529412 167.117647059 294.823529412 167.117647059 298.911764706 181.558823529 c 128,-1,22
 303 196 303 196 303 220 c 2,23,-1
 303 633 l 2,24,25
 303 662 303 662 324 685 c 0,26,27
 345 706 345 706 375.5 706 c 128,-1,28
 406 706 406 706 427 685 c 0,29,30
 448 662 448 662 448 633 c 2,0,-1
EndSplineSet
Validated: 524321
EndChar

StartChar: K
Encoding: 75 75 76
Width: 510
Flags: W
LayerCount: 2
Fore
SplineSet
429 111 m 2,0,1
 444.57615894 85.6887417219 444.57615894 85.6887417219 437.391915643 55.3322772456 c 0,2,3
 430.207672346 24.9758127693 430.207672346 24.9758127693 405.179995114 10.1501580403 c 0,4,5
 380.152317881 -4.67549668874 380.152317881 -4.67549668874 350.07615894 2.66225165563 c 128,-1,6
 320 10 320 10 305 35 c 2,7,-1
 155 286 l 2,8,9
 153 289 153 289 149 289 c 0,10,11
 145 287 145 287 145 284 c 2,12,-1
 145 73 l 2,13,14
 145 42 145 42 124 21 c 256,15,16
 103 0 103 0 73 0 c 0,17,18
 43 0 43 0 21.5 21.5 c 128,-1,19
 0 43 0 43 0 74 c 2,20,-1
 0 633 l 2,21,22
 0 664 0 664 22 685 c 0,23,24
 44 706 44 706 73 706 c 0,25,26
 102 706 102 706 123.5 684.5 c 128,-1,27
 145 663 145 663 145 632 c 2,28,-1
 145 433 l 2,29,30
 145 430 145 430 149 428 c 0,31,32
 153 428 153 428 154 430 c 2,33,-1
 309 673 l 2,34,35
 323 694 323 694 346 702 c 256,36,37
 369 710 369 710 389 703 c 0,38,39
 423.204081633 691.028571429 423.204081633 691.028571429 435 658 c 256,40,41
 445.918367347 627.428571429 445.918367347 627.428571429 427 598 c 2,42,-1
 281 377 l 2,43,44
 277 371 277 371 277 365.5 c 128,-1,45
 277 360 277 360 280 356 c 2,46,-1
 429 111 l 2,0,1
EndSplineSet
Validated: 524321
EndChar

StartChar: L
Encoding: 76 76 77
Width: 436
Flags: W
LayerCount: 2
Fore
SplineSet
65 706 m 2,0,-1
 80 706 l 2,1,2
 109 706 109 706 126 687 c 0,3,4
 145 668 145 668 145 641 c 2,5,-1
 145 140 l 2,6,7
 145 130 145 130 155 130 c 2,8,-1
 311 130 l 2,9,10
 351.608695652 130 351.608695652 130 370.5 90.5 c 0,11,12
 376 79 376 79 376 65 c 256,13,14
 376 40.375 376 40.375 357 19 c 0,15,16
 338 0 338 0 311 0 c 2,17,-1
 65 0 l 2,18,19
 38 0 38 0 19 19 c 256,20,21
 0 38 0 38 0 65 c 2,22,-1
 0 641 l 2,23,24
 0 668 0 668 19 687 c 256,25,26
 38 706 38 706 65 706 c 2,0,-1
EndSplineSet
Validated: 524289
EndChar

StartChar: M
Encoding: 77 77 78
Width: 661
Flags: W
LayerCount: 2
Fore
SplineSet
408 654 m 2,0,1
 431.833333333 706 431.833333333 706 493 706 c 0,2,3
 524 706 524 706 550 680 c 256,4,5
 576 654 576 654 576 618 c 2,6,-1
 576 68 l 2,7,8
 576 40 576 40 556 20 c 128,-1,9
 536 0 536 0 508 0 c 128,-1,10
 480 0 480 0 460 20 c 128,-1,11
 440 40 440 40 440 68 c 2,12,-1
 440 407 l 2,13,14
 440 411 440 411 435 413 c 0,15,16
 430 413 430 413 429 409 c 2,17,-1
 329 189 l 2,18,19
 317 163 317 163 288 163 c 128,-1,20
 259 163 259 163 247 189 c 2,21,-1
 147 409 l 2,22,23
 146 413 146 413 140 413 c 0,24,25
 135 410 135 410 135 407 c 2,26,-1
 135 68 l 2,27,28
 135 39 135 39 120.5 25 c 0,29,30
 94.6071428571 -3.46944695195e-18 94.6071428571 -3.46944695195e-18 67.3035714286 -1.73472347598e-18 c 128,-1,31
 40 0 40 0 20 20 c 256,32,33
 0 40 0 40 0 68 c 2,34,-1
 0 618 l 2,35,36
 0 654 0 654 26 680 c 128,-1,37
 52 706 52 706 83.5 706 c 128,-1,38
 115 706 115 706 136.5 691.5 c 128,-1,39
 158 677 158 677 168 654 c 2,40,-1
 283 401 l 2,41,42
 284 398 284 398 287 398 c 128,-1,43
 290 398 290 398 292 401 c 2,44,-1
 408 654 l 2,0,1
EndSplineSet
Validated: 524289
EndChar

StartChar: N
Encoding: 78 78 79
Width: 541
Flags: W
LayerCount: 2
Fore
SplineSet
336 638 m 2,0,1
 336 666 336 666 356 686 c 128,-1,2
 376 706 376 706 402.888888889 706 c 0,3,4
 429.777777778 706 429.777777778 706 452 686 c 0,5,6
 471 667 471 667 471 638 c 2,7,-1
 471 82 l 2,8,9
 471 48 471 48 447 24 c 0,10,11
 425 0 425 0 396 0 c 0,12,13
 337.904761905 0 337.904761905 0 316 46 c 2,14,-1
 146 394 l 2,15,16
 143 398 143 398 139 397 c 0,17,18
 134 397 134 397 134 392 c 2,19,-1
 134 67 l 2,20,21
 134 23.32 134 23.32 93.5 5.5 c 0,22,23
 81 0 81 0 60.5 0 c 128,-1,24
 40 0 40 0 20 20 c 256,25,26
 0 40 0 40 0 67 c 2,27,-1
 0 623 l 2,28,29
 0 658 0 658 24 682 c 256,30,31
 48 706 48 706 77 706 c 0,32,33
 133.5 706 133.5 706 157 659 c 2,34,-1
 325 313 l 2,35,36
 326 310 326 310 331 310 c 0,37,38
 336 312 336 312 336 316 c 2,39,-1
 336 638 l 2,0,1
EndSplineSet
Validated: 524289
EndChar

StartChar: O
Encoding: 79 79 80
Width: 531
Flags: W
LayerCount: 2
Fore
SplineSet
459 524.5 m 0,0,1
 461 509 461 509 461 492 c 2,2,-1
 461 214 l 2,3,4
 461 112 461 112 398 49 c 128,-1,5
 335 -14 335 -14 238.441176471 -14 c 128,-1,6
 141.882352941 -14 141.882352941 -14 87.1031635116 28.3293736501 c 0,7,8
 32.3239740821 70.6587473002 32.3239740821 70.6587473002 16.161987041 120.940484761 c 128,-1,9
 0 171.222222222 0 171.222222222 0 214 c 2,10,-1
 0 492 l 2,11,12
 0 610.363636364 0 610.363636364 83 674.5 c 0,13,14
 116 700 116 700 157 710 c 128,-1,15
 198 720 198 720 223 720 c 0,16,17
 319.117647059 720 319.117647059 720 382.794979881 670.794788274 c 128,-1,18
 446.472312704 621.589576547 446.472312704 621.589576547 459 524.5 c 0,0,1
145 486 m 2,19,-1
 145 220 l 2,20,21
 145 181.333333333 145 181.333333333 153.5 167.166666667 c 128,-1,22
 162 153 162 153 170 142 c 0,23,24
 187.454545455 118 187.454545455 118 230.12012987 118 c 128,-1,25
 272.785714286 118 272.785714286 118 294 145 c 0,26,27
 307.823529412 167.117647059 307.823529412 167.117647059 311.911764706 181.558823529 c 128,-1,28
 316 196 316 196 316 220 c 2,29,-1
 316 486 l 2,30,31
 316 529.833333333 316 529.833333333 294 561 c 0,32,33
 272.785714286 588 272.785714286 588 230.5 588 c 128,-1,34
 188.214285714 588 188.214285714 588 171.607142857 566 c 0,35,36
 145 530.752688172 145 530.752688172 145 486 c 2,19,-1
EndSplineSet
Validated: 524289
EndChar

StartChar: P
Encoding: 80 80 81
Width: 514
Flags: W
LayerCount: 2
Fore
SplineSet
379 648 m 0,0,1
 444 591.863636364 444 591.863636364 444 495 c 256,2,3
 444 432.75 444 432.75 414 384 c 0,4,5
 401 361 401 361 379 342 c 0,6,7
 341.090909091 304.090909091 341.090909091 304.090909091 280 291 c 0,8,9
 253 284 253 284 220 284 c 2,10,-1
 155 284 l 2,11,12
 151 284 151 284 148 281 c 256,13,14
 145 278 145 278 145 274 c 2,15,-1
 145 73 l 2,16,17
 145 42 145 42 124 21 c 256,18,19
 103 0 103 0 72.5 0 c 128,-1,20
 42 0 42 0 21 21 c 256,21,22
 0 42 0 42 0 73 c 2,23,-1
 0 641 l 2,24,25
 0 668 0 668 19 687 c 256,26,27
 38 706 38 706 65 706 c 2,28,-1
 220 706 l 2,29,30
 298.6 706 298.6 706 358 665.5 c 0,31,32
 369 658 369 658 379 648 c 0,0,1
145 566 m 2,33,-1
 145 424 l 2,34,35
 145 418 145 418 148 417 c 0,36,37
 151 414 151 414 155 414 c 2,38,-1
 213 414 l 2,39,40
 272.875 414 272.875 414 293 460 c 0,41,42
 299 475 299 475 299 495 c 256,43,44
 299 535.363636364 299 535.363636364 274.75 555.681818182 c 0,45,46
 250.5 576 250.5 576 213 576 c 2,47,-1
 155 576 l 2,48,49
 145 576 145 576 145 566 c 2,33,-1
EndSplineSet
Validated: 524289
EndChar

StartChar: Q
Encoding: 81 81 82
Width: 531
Flags: W
LayerCount: 2
Fore
SplineSet
145 220 m 2,0,1
 145 176.375 145 176.375 166.227272727 147.1875 c 128,-1,2
 187.454545455 118 187.454545455 118 230.12012987 118 c 128,-1,3
 272.785714286 118 272.785714286 118 294 145 c 0,4,5
 307.823529412 167.117647059 307.823529412 167.117647059 311.911764706 181.558823529 c 128,-1,6
 316 196 316 196 316 220 c 2,7,-1
 316 486 l 2,8,9
 316 529.833333333 316 529.833333333 294 561 c 0,10,11
 272.785714286 588 272.785714286 588 230.5 588 c 128,-1,12
 188.214285714 588 188.214285714 588 171.607142857 566 c 0,13,14
 145 530.752688172 145 530.752688172 145 486 c 2,15,-1
 145 220 l 2,0,1
459 524.5 m 0,16,17
 461 509 461 509 461 492 c 2,18,-1
 461 214 l 2,19,20
 461 123.357142857 461 123.357142857 408 59 c 1,21,-1
 392.5 43.5 l 2,22,23
 385 36 385 36 379.5 32 c 128,-1,24
 374 28 374 28 371 23 c 0,25,26
 371 21 371 21 373 15 c 1,27,-1
 393 -10 l 1,28,29
 421.880597015 -48.5074626866 421.880597015 -48.5074626866 399 -91 c 0,30,31
 383.911111111 -119.022222222 383.911111111 -119.022222222 354.931165312 -126.267208672 c 128,-1,32
 325.951219512 -133.512195122 325.951219512 -133.512195122 305.975609756 -122.756097561 c 128,-1,33
 286 -112 286 -112 277 -100 c 2,34,-1
 228 -35 l 2,35,36
 210.428571429 -13.0357142857 210.428571429 -13.0357142857 186 -11 c 0,37,38
 134.48 -0.266666666667 134.48 -0.266666666667 109.753300493 13.9454844007 c 0,39,40
 37.1376996667 55.6827121481 37.1376996667 55.6827121481 15.5 123 c 0,41,42
 0 171.222222222 0 171.222222222 0 214 c 2,43,-1
 0 492 l 2,44,45
 0 610.363636364 0 610.363636364 83 674.5 c 0,46,47
 116 700 116 700 157 710 c 128,-1,48
 198 720 198 720 223 720 c 0,49,50
 319.117647059 720 319.117647059 720 382.794979881 670.794788274 c 128,-1,51
 446.472312704 621.589576547 446.472312704 621.589576547 459 524.5 c 0,16,17
EndSplineSet
Validated: 524321
EndChar

StartChar: R
Encoding: 82 82 83
Width: 514
Flags: W
LayerCount: 2
Fore
SplineSet
166 284 m 2,0,-1
 155 284 l 2,1,2
 151 284 151 284 148 281 c 256,3,4
 145 278 145 278 145 274 c 2,5,-1
 145 73 l 2,6,7
 145 42 145 42 124 21 c 256,8,9
 103 0 103 0 72.5 0 c 128,-1,10
 42 0 42 0 21 21 c 256,11,12
 0 42 0 42 0 73 c 2,13,-1
 0 641 l 2,14,15
 0 668 0 668 19 687 c 256,16,17
 38 706 38 706 65 706 c 2,18,-1
 220 706 l 2,19,20
 267 706 267 706 294 696 c 128,-1,21
 321 686 321 686 341 676 c 0,22,23
 361 666 361 666 379 648 c 0,24,25
 444 591.863636364 444 591.863636364 444 495 c 256,26,27
 444 406 444 406 382 344 c 0,28,29
 364 327 364 327 340 313 c 1,30,-1
 339 313 l 1,31,-1
 338 312 l 1,32,33
 330.384615385 309.461538462 330.384615385 309.461538462 333 299 c 1,34,-1
 431 105 l 2,35,36
 443.952380952 79.0952380952 443.952380952 79.0952380952 434.976190476 50.5476190476 c 128,-1,37
 426 22 426 22 398.5 8 c 128,-1,38
 371 -6 371 -6 342.5 4 c 128,-1,39
 314 14 314 14 301 40 c 2,40,-1
 184 273 l 2,41,42
 177.4 284 177.4 284 166 284 c 2,0,-1
145 566 m 2,43,-1
 145 424 l 2,44,45
 145 418 145 418 148 417 c 0,46,47
 151 414 151 414 155 414 c 2,48,-1
 213 414 l 2,49,50
 272.875 414 272.875 414 293 460 c 0,51,52
 299 475 299 475 299 495 c 256,53,54
 299 535.363636364 299 535.363636364 274.75 555.681818182 c 0,55,56
 250.5 576 250.5 576 213 576 c 2,57,-1
 155 576 l 2,58,59
 145 576 145 576 145 566 c 2,43,-1
EndSplineSet
Validated: 524321
EndChar

StartChar: S
Encoding: 83 83 84
Width: 523
Flags: W
LayerCount: 2
Fore
SplineSet
375 365 m 0,0,1
 438.551401869 320.140186916 438.551401869 320.140186916 450 240 c 0,2,3
 458.898305085 190.169491525 458.898305085 190.169491525 441.949152542 135.084745763 c 128,-1,4
 425 80 425 80 385 44 c 128,-1,5
 345 8 345 8 289 -6 c 128,-1,6
 233 -20 233 -20 176 -10.5 c 128,-1,7
 119 -1 119 -1 72 34 c 0,8,9
 33.2142857143 61.15 33.2142857143 61.15 9 112 c 0,10,11
 -6.81886792453 145.61509434 -6.81886792453 145.61509434 14 178 c 256,12,13
 34.5714285714 210 34.5714285714 210 73 210 c 0,14,15
 93 210 93 210 110.5 199 c 128,-1,16
 128 188 128 188 135 170 c 0,17,18
 137.5 165 137.5 165 145 155 c 0,19,20
 147 150 147 150 150.5 146.5 c 2,21,-1
 158 139 l 1,22,23
 190.392638037 110.656441718 190.392638037 110.656441718 236 115 c 256,24,25
 283.25 119.5 283.25 119.5 303.827380952 161.546626984 c 128,-1,26
 324.404761905 203.593253968 324.404761905 203.593253968 298 241 c 256,27,28
 276.769230769 271.076923077 276.769230769 271.076923077 234.384615385 285.538461538 c 128,-1,29
 192 300 192 300 157 313 c 0,30,31
 30.5039370079 359.984251969 30.5039370079 359.984251969 6 458 c 0,32,33
 -18.006185567 562.026804124 -18.006185567 562.026804124 44 639 c 0,34,35
 106.970488082 714.998864926 106.970488082 714.998864926 206.853881151 719.243274828 c 128,-1,36
 306.73727422 723.487684729 306.73727422 723.487684729 377 666 c 0,37,38
 425 626.727272727 425 626.727272727 425 587 c 128,-1,39
 425 547.15625 425 547.15625 392 525.5 c 0,40,41
 376 515 376 515 355 515 c 2,42,-1
 354 515 l 2,43,44
 336 515 336 515 319.5 525 c 128,-1,45
 303 535 303 535 295.5 547 c 0,46,47
 264.691729323 596.293233083 264.691729323 596.293233083 225.333333333 593.833333333 c 0,48,49
 168.129032258 590.258064516 168.129032258 590.258064516 146.5 547 c 0,50,51
 136 526 136 526 142 503 c 0,52,53
 154.837905237 453.788029925 154.837905237 453.788029925 215.623824451 434.592476489 c 0,54,55
 325.619047619 399.857142857 325.619047619 399.857142857 375 365 c 0,0,1
EndSplineSet
Validated: 524321
EndChar

StartChar: T
Encoding: 84 84 85
Width: 514
Flags: W
LayerCount: 2
Fore
SplineSet
235 0 m 2,0,-1
 220 0 l 2,1,2
 193 0 193 0 174 19 c 256,3,4
 155 38 155 38 155 65 c 2,5,-1
 155 566 l 2,6,7
 155 576 155 576 145 576 c 2,8,-1
 65 576 l 2,9,10
 38 576 38 576 19 595 c 256,11,12
 0 614 0 614 0 641 c 256,13,14
 0 668 0 668 19 687 c 256,15,16
 38 706 38 706 65 706 c 2,17,-1
 389 706 l 2,18,19
 416 706 416 706 435 687 c 256,20,21
 454 668 454 668 454 641 c 256,22,23
 454 614 454 614 435 595 c 256,24,25
 416 576 416 576 389 576 c 2,26,-1
 310 576 l 2,27,28
 300 576 300 576 300 566 c 2,29,-1
 300 65 l 2,30,31
 300 38 300 38 281 19 c 256,32,33
 262 0 262 0 235 0 c 2,0,-1
EndSplineSet
Validated: 1
EndChar

StartChar: U
Encoding: 85 85 86
Width: 546
Flags: W
LayerCount: 2
Fore
SplineSet
337 685 m 0,0,1
 358 706 358 706 387.5 706 c 128,-1,2
 417 706 417 706 440 685 c 0,3,4
 461 662 461 662 461 633 c 2,5,-1
 461 214 l 2,6,7
 461 112 461 112 398 49 c 128,-1,8
 335 -14 335 -14 238.441176471 -14 c 128,-1,9
 141.882352941 -14 141.882352941 -14 87.1031635116 28.3293736501 c 0,10,11
 32.3239740821 70.6587473002 32.3239740821 70.6587473002 16.161987041 120.940484761 c 128,-1,12
 0 171.222222222 0 171.222222222 0 214 c 2,13,-1
 0 633 l 2,14,15
 0 662 0 662 21 685 c 0,16,17
 42 706 42 706 72.5 706 c 128,-1,18
 103 706 103 706 124 685 c 0,19,20
 145 662 145 662 145 633 c 2,21,-1
 145 220 l 2,22,23
 145 181.333333333 145 181.333333333 153.5 167.166666667 c 128,-1,24
 162 153 162 153 170 142 c 0,25,26
 187.454545455 118 187.454545455 118 230.12012987 118 c 128,-1,27
 272.785714286 118 272.785714286 118 294 145 c 0,28,29
 307.823529412 167.117647059 307.823529412 167.117647059 311.911764706 181.558823529 c 128,-1,30
 316 196 316 196 316 220 c 2,31,-1
 316 633 l 2,32,33
 316 662 316 662 337 685 c 0,0,1
EndSplineSet
Validated: 524289
EndChar

StartChar: V
Encoding: 86 86 87
Width: 560
Flags: W
LayerCount: 2
Fore
SplineSet
367 654 m 1,0,1
 375 677 375 677 393 691.5 c 128,-1,2
 411 706 411 706 431.5 706 c 0,3,4
 471.615384615 706 471.615384615 706 491 678 c 0,5,6
 512 651 512 651 503 616 c 2,7,-1
 348 73 l 2,8,9
 339 41 339 41 312.5 20.5 c 128,-1,10
 286 0 286 0 251.5 0 c 128,-1,11
 217 0 217 0 190.5 20.5 c 128,-1,12
 164 41 164 41 155 73 c 2,13,-1
 3 614 l 2,14,15
 -7.08510638298 648.289361702 -7.08510638298 648.289361702 15 677 c 256,16,17
 37.3076923077 706 37.3076923077 706 72.6801619433 706 c 0,18,19
 108.052631579 706 108.052631579 706 132 673.5 c 0,20,21
 139 664 139 664 142 652 c 2,22,-1
 246 259 l 2,23,24
 247 254 247 254 253 254 c 256,25,26
 259 254 259 254 260 259 c 2,27,-1
 367 654 l 1,0,1
EndSplineSet
Validated: 524321
EndChar

StartChar: W
Encoding: 87 87 88
Width: 767
Flags: W
LayerCount: 2
Fore
SplineSet
558 685 m 0,0,1
 579 706 579 706 608.5 706 c 128,-1,2
 638 706 638 706 661 685 c 0,3,4
 682 662 682 662 682 633 c 2,5,-1
 682 214 l 2,6,7
 682 112 682 112 619 49 c 0,8,9
 556 -14 556 -14 451 -14 c 0,10,11
 398.846153846 -14 398.846153846 -14 352 15 c 0,12,13
 347 19 347 19 340.5 19 c 128,-1,14
 334 19 334 19 321.5 10.5 c 128,-1,15
 309 2 309 2 282.5 -6 c 128,-1,16
 256 -14 256 -14 227 -14 c 128,-1,17
 198 -14 198 -14 173.5 -8.5 c 0,18,19
 72.298160697 14.2187802517 72.298160697 14.2187802517 28 96 c 0,20,21
 18.1333333333 112.033333333 18.1333333333 112.033333333 9.06666666667 145.516666667 c 128,-1,22
 0 179 0 179 0 214 c 2,23,-1
 0 633 l 2,24,25
 0 662 0 662 21 685 c 0,26,27
 26.4 690.4 26.4 690.4 44.2 697.2 c 128,-1,28
 62 704 62 704 73 706 c 0,29,30
 103 706 103 706 124 685 c 0,31,32
 145 662 145 662 145 633 c 2,33,-1
 145 181 l 2,34,35
 145 155 145 155 163 137 c 256,36,37
 181 119 181 119 205.5 118.5 c 128,-1,38
 230 118 230 118 248.5 134 c 128,-1,39
 267 150 267 150 267 174 c 2,40,-1
 267 632 l 2,41,42
 267 664 267 664 289 684 c 0,43,44
 309 706 309 706 341 706 c 256,45,46
 373 706 373 706 393 684 c 0,47,48
 415 664 415 664 415 632 c 2,49,-1
 415 174 l 2,50,51
 415 153 415 153 434 134 c 0,52,53
 452 118 452 118 476.5 118.5 c 128,-1,54
 501 119 501 119 519 137 c 256,55,56
 537 155 537 155 537 180 c 2,57,-1
 537 633 l 2,58,59
 537 662 537 662 558 685 c 0,0,1
EndSplineSet
Validated: 524321
EndChar

StartChar: X
Encoding: 88 88 89
Width: 524
Flags: W
LayerCount: 2
Fore
SplineSet
317 371 m 6,0,1
 314 366 314 366 314 361 c 132,-1,2
 314 356 314 356 317 353 c 5,3,-1
 447 98 l 5,4,5
 463.664150943 62.5886792453 463.664150943 62.5886792453 444 32 c 260,6,7
 423.428571429 -2.08166817117e-17 423.428571429 -2.08166817117e-17 386 0 c 4,8,9
 368 0 368 0 350.5 10.5 c 132,-1,10
 333 21 333 21 326 37 c 6,11,-1
 236 216 l 6,12,13
 233 222 233 222 227 222 c 260,14,15
 221 222 221 222 218 216 c 6,16,-1
 128 37 l 6,17,18
 121 21 121 21 103.5 10.5 c 132,-1,19
 86 0 86 0 67 0 c 4,20,21
 30.5714285714 0 30.5714285714 0 10 32 c 260,22,23
 -10.2580645161 63.5125448029 -10.2580645161 63.5125448029 8 98 c 6,24,-1
 137 353 l 5,25,26
 140 356 140 356 140 361 c 132,-1,27
 140 366 140 366 137 371 c 6,28,-1
 17 607 l 5,29,30
 0.335849056604 642.411320755 0.335849056604 642.411320755 20 673 c 4,31,32
 38.8571428571 706 38.8571428571 706 77 706 c 260,33,34
 119 706 119 706 138 668 c 6,35,-1
 218 508 l 6,36,37
 221 502 221 502 227 502 c 260,38,39
 233 502 233 502 236 508 c 6,40,-1
 316 668 l 6,41,42
 335 706 335 706 377 706 c 260,43,44
 415.142857143 706 415.142857143 706 434 673 c 4,45,46
 453.664150943 642.411320755 453.664150943 642.411320755 437 607 c 5,47,-1
 317 371 l 6,0,1
EndSplineSet
Validated: 524321
EndChar

StartChar: Y
Encoding: 89 89 90
Width: 522
Flags: W
LayerCount: 2
Fore
SplineSet
324 669 m 2,0,1
 331 685 331 685 348.5 695.5 c 128,-1,2
 366 706 366 706 385 706 c 0,3,4
 423.142857143 706 423.142857143 706 442 673 c 0,5,6
 462.258064516 641.487455197 462.258064516 641.487455197 444 607 c 2,7,-1
 301 332 l 2,8,9
 300 330 300 330 300 329.5 c 128,-1,10
 300 329 300 329 299 327 c 1,11,-1
 299 73 l 2,12,13
 299 43 299 43 277.5 21.5 c 128,-1,14
 256 0 256 0 226 0 c 256,15,16
 196 0 196 0 174.5 20.5 c 128,-1,17
 153 41 153 41 153 73 c 2,18,-1
 153 328 l 1,19,20
 152 330 152 330 152 330.5 c 128,-1,21
 152 331 152 331 151 333 c 2,22,-1
 8 607 l 2,23,24
 -10.2580645161 641.487455197 -10.2580645161 641.487455197 10 673 c 0,25,26
 28.8571428571 706 28.8571428571 706 68 706 c 0,27,28
 86 706 86 706 102.5 696 c 128,-1,29
 119 686 119 686 128 669 c 2,30,-1
 217 492 l 2,31,32
 220 487 220 487 226 487 c 256,33,34
 232 487 232 487 235 492 c 2,35,-1
 324 669 l 2,0,1
EndSplineSet
Validated: 524321
EndChar

StartChar: Z
Encoding: 90 90 91
Width: 536
Flags: W
LayerCount: 2
Fore
SplineSet
15 641 m 256,0,1
 15 668 15 668 34 687 c 256,2,3
 53 706 53 706 80 706 c 2,4,-1
 386 706 l 2,5,6
 431.058823529 706 431.058823529 706 454 667 c 0,7,8
 479.113207547 628.188679245 479.113207547 628.188679245 455 588 c 2,9,-1
 176 137 l 2,10,11
 174 135 174 135 175 132.5 c 128,-1,12
 176 130 176 130 180 130 c 2,13,-1
 389 130 l 2,14,15
 413.625 130 413.625 130 435 111 c 0,16,17
 454 92 454 92 454 65 c 256,18,19
 454 38 454 38 435 19 c 256,20,21
 416 0 416 0 389 0 c 2,22,-1
 90 0 l 2,23,24
 64 0 64 0 43 13.5 c 0,25,26
 0 41.1428571429 0 41.1428571429 0 91 c 0,27,28
 0 115 0 115 14 138 c 1,29,-1
 14 139 l 1,30,-1
 281 569 l 1,31,-1
 281 574 l 1,32,33
 279 576 279 576 276 576 c 2,34,-1
 80 576 l 2,35,36
 53 576 53 576 34 595 c 256,37,38
 15 614 15 614 15 641 c 256,0,1
EndSplineSet
Validated: 524321
EndChar

StartChar: bracketleft
Encoding: 91 91 92
Width: 278
Flags: W
LayerCount: 2
Fore
SplineSet
139 -52 m 2,0,-1
 157 -52 l 2,1,2
 179 -52 179 -52 193.5 -67 c 128,-1,3
 208 -82 208 -82 208 -103 c 256,4,5
 208 -124 208 -124 193 -139 c 256,6,7
 178 -154 178 -154 157 -154 c 2,8,-1
 65 -154 l 2,9,10
 38 -154 38 -154 19 -135 c 256,11,12
 0 -116 0 -116 0 -89 c 2,13,-1
 0 704 l 2,14,15
 0 732 0 732 19 749 c 0,16,17
 39 769 39 769 65 769 c 2,18,-1
 156 769 l 2,19,20
 179 769 179 769 193.5 753.5 c 128,-1,21
 208 738 208 738 208 717 c 256,22,23
 208 696 208 696 193.5 680.5 c 128,-1,24
 179 665 179 665 156 665 c 2,25,-1
 139 665 l 2,26,27
 129 665 129 665 129 655 c 2,28,-1
 129 -42 l 2,29,30
 129 -52 129 -52 139 -52 c 2,0,-1
EndSplineSet
Validated: 1
EndChar

StartChar: asciicircum
Encoding: 94 94 95
Width: 514
Flags: W
LayerCount: 2
Fore
SplineSet
232 706 m 2,0,1
 270.882352941 706 270.882352941 706 291 668 c 1,2,-1
 439 346 l 2,3,4
 451.12 321.76 451.12 321.76 436 298 c 256,5,6
 420.727272727 274 420.727272727 274 393 274 c 256,7,8
 379 274 379 274 365.5 283 c 128,-1,9
 352 292 352 292 347 304 c 2,10,-1
 232 555 l 2,11,12
 229 561 229 561 223 561 c 256,13,14
 217 561 217 561 214 555 c 2,15,-1
 98 304 l 1,16,17
 81.8461538462 274 81.8461538462 274 52.5594405594 274 c 0,18,19
 23.2727272727 274 23.2727272727 274 8.13636363636 297.5 c 128,-1,20
 -7 321 -7 321 5 347 c 2,21,-1
 154 668 l 2,22,23
 161 684 161 684 178 696 c 0,24,25
 195 706 195 706 213 706 c 2,26,-1
 232 706 l 2,0,1
EndSplineSet
Validated: 524321
EndChar

StartChar: underscore
Encoding: 95 95 96
Width: 399
Flags: W
LayerCount: 2
Fore
SplineSet
7.5 -61.5 m 256,0,1
 8 -35 8 -35 26.2255859375 -16.7744140625 c 0,2,3
 44 1 44 1 69.5 1.5 c 2,4,-1
 326 2 l 2,5,6
 351.94921875 2.05078125 351.94921875 2.05078125 370.5 -16.5 c 128,-1,7
 389 -35 389 -35 389 -61 c 256,8,9
 389 -87 389 -87 371 -105 c 0,10,11
 351.0546875 -122.951171875 351.0546875 -122.951171875 326 -123 c 2,12,-1
 69.5 -123.5 l 2,13,14
 43.55078125 -123.55078125 43.55078125 -123.55078125 25.5 -105.5 c 0,15,16
 8 -87 8 -87 7.5 -61.5 c 256,0,1
EndSplineSet
Validated: 524321
EndChar

StartChar: a
Encoding: 97 97 98
Width: 546
Flags: W
LayerCount: 2
Fore
SplineSet
459 524.5 m 0,0,1
 461 509 461 509 461 492 c 2,2,-1
 461 73 l 2,3,4
 461 42 461 42 440 21 c 0,5,6
 417 0 417 0 387.5 0 c 128,-1,7
 358 0 358 0 337 21 c 256,8,9
 316 42 316 42 316 73 c 2,10,-1
 316 215 l 2,11,12
 316 219 316 219 313 222 c 256,13,14
 310 225 310 225 306 225 c 2,15,-1
 155 225 l 2,16,17
 145 225 145 225 145 215 c 2,18,-1
 145 73 l 2,19,20
 145 42 145 42 124 21 c 256,21,22
 103 0 103 0 72.5 0 c 128,-1,23
 42 0 42 0 21 21 c 256,24,25
 0 42 0 42 0 73 c 2,26,-1
 0 492 l 2,27,28
 0 610.363636364 0 610.363636364 83 674.5 c 0,29,30
 116 700 116 700 157 710 c 128,-1,31
 198 720 198 720 223 720 c 0,32,33
 319.117647059 720 319.117647059 720 382.794979881 670.794788274 c 128,-1,34
 446.472312704 621.589576547 446.472312704 621.589576547 459 524.5 c 0,0,1
155 353 m 2,35,-1
 306 353 l 2,36,37
 310 353 310 353 313 356 c 0,38,39
 314 358 314 358 315 359.5 c 128,-1,40
 316 361 316 361 316 363 c 2,41,-1
 316 486 l 2,42,43
 316 529.833333333 316 529.833333333 294 561 c 0,44,45
 272.785714286 588 272.785714286 588 230.5 588 c 0,46,47
 188.214285714 588 188.214285714 588 171.607142857 566 c 0,48,49
 145 530.752688172 145 530.752688172 145 486 c 2,50,-1
 145 363 l 2,51,52
 145 359 145 359 148 356 c 256,53,54
 151 353 151 353 155 353 c 2,35,-1
EndSplineSet
Validated: 524289
EndChar

StartChar: b
Encoding: 98 98 99
Width: 522
Flags: W
LayerCount: 2
Fore
SplineSet
406 338 m 256,0,1
 409 334 409 334 420.846153846 320.179487179 c 128,-1,2
 432.692307692 306.358974359 432.692307692 306.358974359 440.346153846 281.679487179 c 128,-1,3
 448 257 448 257 448.5 250.5 c 128,-1,4
 449 244 449 244 450 238 c 256,5,6
 452 226 452 226 452 215.5 c 0,7,8
 452 164.666666667 452 164.666666667 435 125 c 0,9,10
 432 119 432 119 426 106 c 128,-1,11
 420 93 420 93 405 78 c 256,12,13
 400 73 400 73 391.947368421 64.0526315789 c 128,-1,14
 383.894736842 55.1052631579 383.894736842 55.1052631579 376.947368421 50.0526315789 c 128,-1,15
 370 45 370 45 364 40.5 c 0,16,17
 334.888888889 18.6666666667 334.888888889 18.6666666667 299.5 10.5 c 0,18,19
 293 9 293 9 276.125 4.5 c 128,-1,20
 259.25 -8.67361737988e-19 259.25 -8.67361737988e-19 226 0 c 2,21,-1
 65 0 l 2,22,23
 38 0 38 0 19 19 c 256,24,25
 0 38 0 38 0 65 c 2,26,-1
 0 641 l 2,27,28
 0 677.6 0 677.6 29 695 c 0,29,30
 47.3333333333 706 47.3333333333 706 65 706 c 2,31,-1
 226 706 l 2,32,33
 239 706 239 706 250.5 704.5 c 128,-1,34
 262 703 262 703 268.5 702.5 c 128,-1,35
 275 702 275 702 282 700 c 256,36,37
 289 698 289 698 301 695 c 128,-1,38
 313 692 313 692 332 682.5 c 128,-1,39
 351 673 351 673 356 669 c 256,40,41
 361 665 361 665 369.191489362 659.787234043 c 128,-1,42
 377.382978723 654.574468085 377.382978723 654.574468085 388.191489362 642.287234043 c 128,-1,43
 399 630 399 630 403 625 c 128,-1,44
 407 620 407 620 410.5 614.5 c 0,45,46
 416.896551724 604.448275862 416.896551724 604.448275862 422.5 591 c 2,47,48
 432 568.2 l 2,49,50
 439 551.4 439 551.4 439 524.875 c 2,51,-1
 439 500.5 l 2,52,53
 439 488 439 488 435.5 475.5 c 128,-1,54
 432 463 432 463 430.5625 455.8125 c 128,-1,55
 429.125 448.625 429.125 448.625 425.0625 441.3125 c 128,-1,56
 421 434 421 434 419 430 c 128,-1,57
 417 426 417 426 414.5 422.5 c 128,-1,58
 412 419 412 419 410 415.5 c 128,-1,59
 408 412 408 412 396.75 398.5 c 128,-1,60
 385.5 385 385.5 385 381.25 382 c 128,-1,61
 377 379 377 379 376.5 378 c 128,-1,62
 376 377 376 377 375 376 c 1,63,-1
 375 372 l 2,64,65
 375 367 375 367 382 361 c 128,-1,66
 389 355 389 355 392.5 351.5 c 128,-1,67
 396 348 396 348 399.5 345 c 128,-1,68
 403 342 403 342 406 338 c 256,0,1
147 301.5 m 2,69,-1
 145 296 l 1,70,-1
 145 138 l 1,71,-1
 148 131 l 1,72,-1
 151 128 l 1,73,-1
 212.125 128 l 2,74,75
 259 128 259 128 277 146 c 0,76,77
 280 149 280 149 287.6 156.1 c 128,-1,78
 295.2 163.2 295.2 163.2 297.6 169.6 c 128,-1,79
 300 176 300 176 304 184.666666667 c 128,-1,80
 308 193.333333333 308 193.333333333 308 207 c 2,81,-1
 308 226.5 l 2,82,83
 308 252.2 308 252.2 294 269 c 0,84,85
 279.444444444 290.833333333 279.444444444 290.833333333 255 300 c 0,86,87
 251 302 251 302 247 302.5 c 128,-1,88
 243 303 243 303 236.25 304.5 c 128,-1,89
 229.5 306 229.5 306 220 306 c 2,90,-1
 155 306 l 1,91,-1
 149.5 304 l 2,92,93
 147 304 147 304 147 301.5 c 2,69,-1
149.5 433 m 2,94,-1
 155 431 l 1,95,-1
 220 431 l 2,96,97
 260.75 431 260.75 431 284 462 c 0,98,99
 294 477 294 477 294 489 c 0,100,101
 296 497 296 497 296 505 c 256,102,103
 296 522 296 522 292.5 529.5 c 128,-1,104
 289 537 289 537 285.684210526 544.736842105 c 128,-1,105
 282.368421053 552.473684211 282.368421053 552.473684211 271.184210526 560.736842105 c 128,-1,106
 260 569 260 569 256.5 570 c 128,-1,107
 253 571 253 571 245.125 574.5 c 128,-1,108
 237.25 578 237.25 578 220 578 c 2,109,-1
 155 578 l 2,110,111
 151 578 151 578 149 576 c 128,-1,112
 147 574 147 574 147 573.5 c 2,113,-1
 145 568 l 1,114,-1
 145 441 l 1,115,116
 147.666666667 433 147.666666667 433 149.5 433 c 2,94,-1
EndSplineSet
Validated: 524289
EndChar

StartChar: c
Encoding: 99 99 100
Width: 531
Flags: W
LayerCount: 2
Fore
SplineSet
461 220 m 2,0,-1
 461 214 l 2,1,2
 461 112 461 112 398 49 c 128,-1,3
 335 -14 335 -14 238.441176471 -14 c 128,-1,4
 141.882352941 -14 141.882352941 -14 87.1031635116 28.3293736501 c 0,5,6
 32.3239740821 70.6587473002 32.3239740821 70.6587473002 16.161987041 120.940484761 c 128,-1,7
 0 171.222222222 0 171.222222222 0 214 c 2,8,-1
 0 492 l 2,9,10
 0 610.363636364 0 610.363636364 83 674.5 c 0,11,12
 116 700 116 700 157 710 c 128,-1,13
 198 720 198 720 223 720 c 0,14,15
 301.571428571 720 301.571428571 720 353 690 c 0,16,17
 382.538461538 674.527472527 382.538461538 674.527472527 396.769230769 658.263736264 c 2,18,-1
 418 634 l 1,19,20
 437 609 437 609 435 581 c 256,21,22
 433 553 433 553 410.5 535.5 c 128,-1,23
 388 518 388 518 364.5 520.5 c 0,24,25
 321.395721925 525.085561497 321.395721925 525.085561497 303 549 c 0,26,27
 288 567 288 567 272 578 c 0,28,29
 252 589 252 589 224 589 c 128,-1,30
 196 589 196 589 170.5 563.5 c 128,-1,31
 145 538 145 538 145 508 c 2,32,-1
 145 220 l 2,33,34
 145 181.333333333 145 181.333333333 153.5 167.166666667 c 128,-1,35
 162 153 162 153 170 142 c 0,36,37
 187.454545455 118 187.454545455 118 230.12012987 118 c 128,-1,38
 272.785714286 118 272.785714286 118 294 145 c 0,39,40
 307.823529412 167.117647059 307.823529412 167.117647059 311.911764706 181.558823529 c 128,-1,41
 316 196 316 196 316 219 c 2,42,-1
 316 220 l 2,43,44
 316 248 316 248 337 271 c 0,45,46
 358 292 358 292 388 292 c 0,47,48
 418 294 418 294 439 271 c 0,49,50
 461 251 461 251 461 220 c 2,0,-1
EndSplineSet
Validated: 524321
EndChar

StartChar: d
Encoding: 100 100 101
Width: 512
Flags: W
LayerCount: 2
Fore
SplineSet
281 698 m 256,0,1
 387.816326531 671.295918367 387.816326531 671.295918367 427 565.5 c 0,2,3
 442 525 442 525 442 474 c 2,4,-1
 442 231 l 2,5,6
 442 93 442 93 337 30 c 0,7,8
 285.571428571 2.60208521397e-18 285.571428571 2.60208521397e-18 216 0 c 2,9,-1
 65 0 l 2,10,11
 38 0 38 0 19 19 c 256,12,13
 0 38 0 38 0 65 c 2,14,-1
 0 641 l 2,15,16
 0 668 0 668 19 687 c 256,17,18
 38 706 38 706 65 706 c 2,19,-1
 216 706 l 2,20,21
 249 706 249 706 281 698 c 256,0,1
145 142 m 2,22,23
 145 132 145 132 155 132 c 2,24,-1
 209 132 l 2,25,26
 273.285714286 132 273.285714286 132 291 194 c 0,27,28
 297 213 297 213 297 237 c 2,29,-1
 297 469 l 2,30,31
 297 531 297 531 262 558.5 c 0,32,33
 242.272727273 574 242.272727273 574 209 574 c 2,34,-1
 155 574 l 2,35,36
 145 574 145 574 145 564 c 2,37,-1
 145 142 l 2,22,23
EndSplineSet
Validated: 524289
EndChar

StartChar: e
Encoding: 101 101 102
Width: 451
Flags: W
LayerCount: 2
Fore
SplineSet
145 140 m 2,0,1
 145 130 145 130 155 130 c 2,2,-1
 316 130 l 2,3,4
 343 130 343 130 358.142857143 114.857142857 c 0,5,6
 373.285714286 99.7142857143 373.285714286 99.7142857143 381 65 c 1,7,8
 381 38 381 38 362 19 c 0,9,10
 345 0 345 0 316 0 c 2,11,-1
 65 0 l 2,12,13
 38 0 38 0 19 19 c 256,14,15
 0 38 0 38 0 65 c 2,16,-1
 0 641 l 2,17,18
 0 668 0 668 19 687 c 256,19,20
 38 706 38 706 65 706 c 2,21,-1
 314 706 l 2,22,23
 342 706 342 706 359 687 c 0,24,25
 378 668 378 668 378 641 c 256,26,27
 378 614 378 614 359 595 c 0,28,29
 342 576 342 576 314 576 c 2,30,-1
 155 576 l 2,31,32
 145 576 145 576 145 566 c 2,33,-1
 145 442 l 2,34,35
 145 438 145 438 148 435 c 256,36,37
 151 432 151 432 155 432 c 2,38,-1
 272 432 l 2,39,40
 299 432 299 432 318 413 c 0,41,42
 337 396 337 396 337 368.5 c 128,-1,43
 337 341 337 341 318 322 c 256,44,45
 299 303 299 303 272 303 c 2,46,-1
 155 303 l 2,47,48
 151 303 151 303 148 300 c 256,49,50
 145 297 145 297 145 293 c 2,51,-1
 145 140 l 2,0,1
EndSplineSet
Validated: 524289
EndChar

StartChar: f
Encoding: 102 102 103
Width: 448
Flags: W
LayerCount: 2
Fore
SplineSet
378 641 m 256,0,1
 378 614 378 614 359 595 c 0,2,3
 342 576 342 576 314 576 c 2,4,-1
 155 576 l 2,5,6
 145 576 145 576 145 566 c 2,7,-1
 145 442 l 2,8,9
 145 438 145 438 148 435 c 256,10,11
 151 432 151 432 155 432 c 2,12,-1
 267 432 l 2,13,14
 294 432 294 432 313 413 c 0,15,16
 332 396 332 396 332 368.5 c 128,-1,17
 332 341 332 341 313 322 c 256,18,19
 294 303 294 303 267 303 c 2,20,-1
 155 303 l 2,21,22
 151 303 151 303 148 300 c 256,23,24
 145 297 145 297 145 293 c 2,25,-1
 145 73 l 2,26,27
 145 42 145 42 124 21 c 256,28,29
 103 0 103 0 72.5 0 c 128,-1,30
 42 0 42 0 21 21 c 256,31,32
 0 42 0 42 0 73 c 2,33,-1
 0 641 l 2,34,35
 0 668 0 668 19 687 c 256,36,37
 38 706 38 706 65 706 c 2,38,-1
 314 706 l 2,39,40
 342 706 342 706 359 687 c 0,41,42
 378 668 378 668 378 641 c 256,0,1
EndSplineSet
Validated: 1
EndChar

StartChar: g
Encoding: 103 103 104
Width: 531
Flags: W
LayerCount: 2
Fore
SplineSet
396 418 m 2,0,1
 423 418 423 418 442 399 c 256,2,3
 461 380 461 380 461 353 c 2,4,-1
 461 214 l 2,5,6
 461 112 461 112 398 49 c 128,-1,7
 335 -14 335 -14 238.441176471 -14 c 128,-1,8
 141.882352941 -14 141.882352941 -14 87.1031635116 28.3293736501 c 0,9,10
 32.3239740821 70.6587473002 32.3239740821 70.6587473002 16.161987041 120.940484761 c 128,-1,11
 0 171.222222222 0 171.222222222 0 214 c 2,12,-1
 0 492 l 2,13,14
 0 610.363636364 0 610.363636364 83 674.5 c 0,15,16
 116 700 116 700 157 710 c 128,-1,17
 198 720 198 720 223 720 c 0,18,19
 301.571428571 720 301.571428571 720 353 690 c 0,20,21
 382.538461538 674.527472527 382.538461538 674.527472527 396.769230769 658.263736264 c 2,22,-1
 418 634 l 1,23,24
 437 609 437 609 435 581 c 256,25,26
 433 553 433 553 410.5 535.5 c 128,-1,27
 388 518 388 518 364.5 520.5 c 0,28,29
 321.395721925 525.085561497 321.395721925 525.085561497 303 549 c 0,30,31
 288 567 288 567 272 578 c 0,32,33
 252 589 252 589 224 589 c 128,-1,34
 196 589 196 589 170.5 563.5 c 128,-1,35
 145 538 145 538 145 508 c 2,36,-1
 145 220 l 2,37,38
 145 181.333333333 145 181.333333333 153.5 167.166666667 c 128,-1,39
 162 153 162 153 170 142 c 0,40,41
 187.454545455 118 187.454545455 118 230.12012987 118 c 128,-1,42
 272.785714286 118 272.785714286 118 294 145 c 0,43,44
 307.823529412 167.117647059 307.823529412 167.117647059 311.911764706 181.558823529 c 128,-1,45
 316 196 316 196 316 220 c 2,46,-1
 316 288 l 1,47,-1
 278 288 l 2,48,49
 250 288 250 288 233 307 c 0,50,51
 214 326 214 326 214 353 c 256,52,53
 214 380 214 380 233 399 c 0,54,55
 250 418 250 418 278 418 c 2,56,-1
 396 418 l 2,0,1
EndSplineSet
Validated: 524321
EndChar

StartChar: h
Encoding: 104 104 105
Width: 539
Flags: W
LayerCount: 2
Fore
SplineSet
309 633 m 2,0,1
 309 662 309 662 330 685 c 0,2,3
 351 706 351 706 381 706 c 256,4,5
 411 706 411 706 432.5 684.5 c 128,-1,6
 454 663 454 663 454 633 c 2,7,-1
 454 73 l 2,8,9
 454 41 454 41 432.5 20.5 c 128,-1,10
 411 0 411 0 381 0 c 256,11,12
 351 0 351 0 330 21 c 256,13,14
 309 42 309 42 309 73 c 2,15,-1
 309 293 l 2,16,17
 309 295 309 295 308 296.5 c 128,-1,18
 307 298 307 298 306 300 c 0,19,20
 303 303 303 303 299 303 c 2,21,-1
 155 303 l 2,22,23
 151 303 151 303 148 300 c 256,24,25
 145 297 145 297 145 293 c 2,26,-1
 145 73 l 2,27,28
 145 42 145 42 124 21 c 256,29,30
 103 0 103 0 72.5 0 c 128,-1,31
 42 0 42 0 21 21 c 256,32,33
 0 42 0 42 0 73 c 2,34,-1
 0 633 l 2,35,36
 0 662 0 662 21 685 c 0,37,38
 42 706 42 706 72.5 706 c 128,-1,39
 103 706 103 706 124 685 c 0,40,41
 145 662 145 662 145 633 c 2,42,-1
 145 442 l 2,43,44
 145 438 145 438 148 435 c 256,45,46
 151 432 151 432 155 432 c 2,47,-1
 299 432 l 2,48,49
 303 432 303 432 306 435 c 0,50,51
 307 437 307 437 308 438.5 c 128,-1,52
 309 440 309 440 309 442 c 2,53,-1
 309 633 l 2,0,1
EndSplineSet
Validated: 1
EndChar

StartChar: i
Encoding: 105 105 106
Width: 230
Flags: W
LayerCount: 2
Fore
SplineSet
0 633 m 2,0,1
 0 662 0 662 21 685 c 0,2,3
 42 706 42 706 72.5 706 c 128,-1,4
 103 706 103 706 124 685 c 0,5,6
 145 662 145 662 145 633 c 2,7,-1
 145 73 l 2,8,9
 145 42 145 42 124 21 c 256,10,11
 103 0 103 0 72.5 0 c 128,-1,12
 42 0 42 0 21 21 c 256,13,14
 0 42 0 42 0 73 c 2,15,-1
 0 633 l 2,0,1
EndSplineSet
Validated: 1
EndChar

StartChar: j
Encoding: 106 106 107
Width: 533
Flags: W
LayerCount: 2
Fore
SplineSet
448 633 m 2,0,-1
 448 214 l 2,1,2
 448 144.238095238 448 144.238095238 415.604347826 87.1600414079 c 128,-1,3
 383.208695652 30.0819875776 383.208695652 30.0819875776 313 2.5 c 0,4,5
 271 -14 271 -14 235.5 -14 c 0,6,7
 84.3636363636 -14 84.3636363636 -14 22 84 c 0,8,9
 -18.2040816327 140.285714286 -18.2040816327 140.285714286 13 180 c 0,10,11
 37.1333333333 213.786666667 37.1333333333 213.786666667 75 210 c 0,12,13
 92 209 92 209 108 197.5 c 128,-1,14
 124 186 124 186 130 174 c 128,-1,15
 136 162 136 162 139 158 c 128,-1,16
 142 154 142 154 144.5 150.5 c 0,17,18
 167.714285714 118 167.714285714 118 213.75 118 c 128,-1,19
 259.785714286 118 259.785714286 118 281 145 c 0,20,21
 294.823529412 167.117647059 294.823529412 167.117647059 298.911764706 181.558823529 c 128,-1,22
 303 196 303 196 303 220 c 2,23,-1
 303 633 l 2,24,25
 303 662 303 662 324 685 c 0,26,27
 345 706 345 706 375.5 706 c 128,-1,28
 406 706 406 706 427 685 c 0,29,30
 448 662 448 662 448 633 c 2,0,-1
EndSplineSet
Validated: 524321
EndChar

StartChar: k
Encoding: 107 107 108
Width: 510
Flags: W
LayerCount: 2
Fore
SplineSet
429 111 m 2,0,1
 444.57615894 85.6887417219 444.57615894 85.6887417219 437.391915643 55.3322772456 c 0,2,3
 430.207672346 24.9758127693 430.207672346 24.9758127693 405.179995114 10.1501580403 c 0,4,5
 380.152317881 -4.67549668874 380.152317881 -4.67549668874 350.07615894 2.66225165563 c 128,-1,6
 320 10 320 10 305 35 c 2,7,-1
 155 286 l 2,8,9
 153 289 153 289 149 289 c 0,10,11
 145 287 145 287 145 284 c 2,12,-1
 145 73 l 2,13,14
 145 42 145 42 124 21 c 256,15,16
 103 0 103 0 73 0 c 0,17,18
 43 0 43 0 21.5 21.5 c 128,-1,19
 0 43 0 43 0 74 c 2,20,-1
 0 633 l 2,21,22
 0 664 0 664 22 685 c 0,23,24
 44 706 44 706 73 706 c 0,25,26
 102 706 102 706 123.5 684.5 c 128,-1,27
 145 663 145 663 145 632 c 2,28,-1
 145 433 l 2,29,30
 145 430 145 430 149 428 c 0,31,32
 153 428 153 428 154 430 c 2,33,-1
 309 673 l 2,34,35
 323 694 323 694 346 702 c 256,36,37
 369 710 369 710 389 703 c 0,38,39
 423.204081633 691.028571429 423.204081633 691.028571429 435 658 c 256,40,41
 445.918367347 627.428571429 445.918367347 627.428571429 427 598 c 2,42,-1
 281 377 l 2,43,44
 277 371 277 371 277 365.5 c 128,-1,45
 277 360 277 360 280 356 c 2,46,-1
 429 111 l 2,0,1
EndSplineSet
Validated: 524321
EndChar

StartChar: l
Encoding: 108 108 109
Width: 436
Flags: W
LayerCount: 2
Fore
SplineSet
65 706 m 2,0,-1
 80 706 l 2,1,2
 109 706 109 706 126 687 c 0,3,4
 145 668 145 668 145 641 c 2,5,-1
 145 140 l 2,6,7
 145 130 145 130 155 130 c 2,8,-1
 311 130 l 2,9,10
 351.608695652 130 351.608695652 130 370.5 90.5 c 0,11,12
 376 79 376 79 376 65 c 256,13,14
 376 40.375 376 40.375 357 19 c 0,15,16
 338 0 338 0 311 0 c 2,17,-1
 65 0 l 2,18,19
 38 0 38 0 19 19 c 256,20,21
 0 38 0 38 0 65 c 2,22,-1
 0 641 l 2,23,24
 0 668 0 668 19 687 c 256,25,26
 38 706 38 706 65 706 c 2,0,-1
EndSplineSet
Validated: 524289
EndChar

StartChar: m
Encoding: 109 109 110
Width: 661
Flags: W
LayerCount: 2
Fore
SplineSet
408 654 m 2,0,1
 431.833333333 706 431.833333333 706 493 706 c 0,2,3
 524 706 524 706 550 680 c 256,4,5
 576 654 576 654 576 618 c 2,6,-1
 576 68 l 2,7,8
 576 40 576 40 556 20 c 128,-1,9
 536 0 536 0 508 0 c 128,-1,10
 480 0 480 0 460 20 c 128,-1,11
 440 40 440 40 440 68 c 2,12,-1
 440 407 l 2,13,14
 440 411 440 411 435 413 c 0,15,16
 430 413 430 413 429 409 c 2,17,-1
 329 189 l 2,18,19
 317 163 317 163 288 163 c 128,-1,20
 259 163 259 163 247 189 c 2,21,-1
 147 409 l 2,22,23
 146 413 146 413 140 413 c 0,24,25
 135 410 135 410 135 407 c 2,26,-1
 135 68 l 2,27,28
 135 39 135 39 120.5 25 c 0,29,30
 94.6071428571 -3.46944695195e-18 94.6071428571 -3.46944695195e-18 67.3035714286 -1.73472347598e-18 c 128,-1,31
 40 0 40 0 20 20 c 256,32,33
 0 40 0 40 0 68 c 2,34,-1
 0 618 l 2,35,36
 0 654 0 654 26 680 c 128,-1,37
 52 706 52 706 83.5 706 c 128,-1,38
 115 706 115 706 136.5 691.5 c 128,-1,39
 158 677 158 677 168 654 c 2,40,-1
 283 401 l 2,41,42
 284 398 284 398 287 398 c 128,-1,43
 290 398 290 398 292 401 c 2,44,-1
 408 654 l 2,0,1
EndSplineSet
Validated: 524289
EndChar

StartChar: n
Encoding: 110 110 111
Width: 546
Flags: W
LayerCount: 2
Fore
SplineSet
124 21 m 256,0,1
 103 0 103 0 72.5 0 c 128,-1,2
 42 0 42 0 21 21 c 256,3,4
 0 42 0 42 0 73 c 2,5,-1
 0 492 l 2,6,7
 0 610.363636364 0 610.363636364 83 674.5 c 0,8,9
 116 700 116 700 157 710 c 128,-1,10
 198 720 198 720 223 720 c 0,11,12
 284.75 720 284.75 720 332 699 c 0,13,14
 442.170068027 654.931972789 442.170068027 654.931972789 459 524.5 c 0,15,16
 461 509 461 509 461 492 c 2,17,-1
 461 73 l 2,18,19
 461 42 461 42 440 21 c 0,20,21
 417 0 417 0 387.5 0 c 128,-1,22
 358 0 358 0 337 21 c 256,23,24
 316 42 316 42 316 73 c 2,25,-1
 316 486 l 2,26,27
 316 529.833333333 316 529.833333333 294 561 c 0,28,29
 272.785714286 588 272.785714286 588 230.5 588 c 0,30,31
 188.214285714 588 188.214285714 588 171.607142857 566 c 0,32,33
 145 530.752688172 145 530.752688172 145 486 c 2,34,-1
 145 73 l 2,35,36
 145 42 145 42 124 21 c 256,0,1
EndSplineSet
Validated: 524289
EndChar

StartChar: o
Encoding: 111 111 112
Width: 531
Flags: W
LayerCount: 2
Fore
SplineSet
459 524.5 m 0,0,1
 461 509 461 509 461 492 c 2,2,-1
 461 214 l 2,3,4
 461 112 461 112 398 49 c 128,-1,5
 335 -14 335 -14 238.441176471 -14 c 128,-1,6
 141.882352941 -14 141.882352941 -14 87.1031635116 28.3293736501 c 0,7,8
 32.3239740821 70.6587473002 32.3239740821 70.6587473002 16.161987041 120.940484761 c 128,-1,9
 0 171.222222222 0 171.222222222 0 214 c 2,10,-1
 0 492 l 2,11,12
 0 610.363636364 0 610.363636364 83 674.5 c 0,13,14
 116 700 116 700 157 710 c 128,-1,15
 198 720 198 720 223 720 c 0,16,17
 319.117647059 720 319.117647059 720 382.794979881 670.794788274 c 128,-1,18
 446.472312704 621.589576547 446.472312704 621.589576547 459 524.5 c 0,0,1
145 486 m 2,19,-1
 145 220 l 2,20,21
 145 181.333333333 145 181.333333333 153.5 167.166666667 c 128,-1,22
 162 153 162 153 170 142 c 0,23,24
 187.454545455 118 187.454545455 118 230.12012987 118 c 128,-1,25
 272.785714286 118 272.785714286 118 294 145 c 0,26,27
 307.823529412 167.117647059 307.823529412 167.117647059 311.911764706 181.558823529 c 128,-1,28
 316 196 316 196 316 220 c 2,29,-1
 316 486 l 2,30,31
 316 529.833333333 316 529.833333333 294 561 c 0,32,33
 272.785714286 588 272.785714286 588 230.5 588 c 128,-1,34
 188.214285714 588 188.214285714 588 171.607142857 566 c 0,35,36
 145 530.752688172 145 530.752688172 145 486 c 2,19,-1
EndSplineSet
Validated: 524289
EndChar

StartChar: p
Encoding: 112 112 113
Width: 514
Flags: W
LayerCount: 2
Fore
SplineSet
379 648 m 0,0,1
 444 591.863636364 444 591.863636364 444 495 c 256,2,3
 444 432.75 444 432.75 414 384 c 0,4,5
 401 361 401 361 379 342 c 0,6,7
 341.090909091 304.090909091 341.090909091 304.090909091 280 291 c 0,8,9
 253 284 253 284 220 284 c 2,10,-1
 155 284 l 2,11,12
 151 284 151 284 148 281 c 256,13,14
 145 278 145 278 145 274 c 2,15,-1
 145 73 l 2,16,17
 145 42 145 42 124 21 c 256,18,19
 103 0 103 0 72.5 0 c 128,-1,20
 42 0 42 0 21 21 c 256,21,22
 0 42 0 42 0 73 c 2,23,-1
 0 641 l 2,24,25
 0 668 0 668 19 687 c 256,26,27
 38 706 38 706 65 706 c 2,28,-1
 220 706 l 2,29,30
 298.6 706 298.6 706 358 665.5 c 0,31,32
 369 658 369 658 379 648 c 0,0,1
145 566 m 2,33,-1
 145 424 l 2,34,35
 145 418 145 418 148 417 c 0,36,37
 151 414 151 414 155 414 c 2,38,-1
 213 414 l 2,39,40
 272.875 414 272.875 414 293 460 c 0,41,42
 299 475 299 475 299 495 c 256,43,44
 299 535.363636364 299 535.363636364 274.75 555.681818182 c 0,45,46
 250.5 576 250.5 576 213 576 c 2,47,-1
 155 576 l 2,48,49
 145 576 145 576 145 566 c 2,33,-1
EndSplineSet
Validated: 524289
EndChar

StartChar: q
Encoding: 113 113 114
Width: 531
Flags: W
LayerCount: 2
Fore
SplineSet
145 220 m 2,0,1
 145 176.375 145 176.375 166.227272727 147.1875 c 128,-1,2
 187.454545455 118 187.454545455 118 230.12012987 118 c 128,-1,3
 272.785714286 118 272.785714286 118 294 145 c 0,4,5
 307.823529412 167.117647059 307.823529412 167.117647059 311.911764706 181.558823529 c 128,-1,6
 316 196 316 196 316 220 c 2,7,-1
 316 486 l 2,8,9
 316 529.833333333 316 529.833333333 294 561 c 0,10,11
 272.785714286 588 272.785714286 588 230.5 588 c 128,-1,12
 188.214285714 588 188.214285714 588 171.607142857 566 c 0,13,14
 145 530.752688172 145 530.752688172 145 486 c 2,15,-1
 145 220 l 2,0,1
459 524.5 m 0,16,17
 461 509 461 509 461 492 c 2,18,-1
 461 214 l 2,19,20
 461 123.357142857 461 123.357142857 408 59 c 1,21,-1
 392.5 43.5 l 2,22,23
 385 36 385 36 379.5 32 c 128,-1,24
 374 28 374 28 371 23 c 0,25,26
 371 21 371 21 373 15 c 1,27,-1
 393 -10 l 1,28,29
 421.880597015 -48.5074626866 421.880597015 -48.5074626866 399 -91 c 0,30,31
 383.911111111 -119.022222222 383.911111111 -119.022222222 354.931165312 -126.267208672 c 128,-1,32
 325.951219512 -133.512195122 325.951219512 -133.512195122 305.975609756 -122.756097561 c 128,-1,33
 286 -112 286 -112 277 -100 c 2,34,-1
 228 -35 l 2,35,36
 210.428571429 -13.0357142857 210.428571429 -13.0357142857 186 -11 c 0,37,38
 134.48 -0.266666666667 134.48 -0.266666666667 109.753300493 13.9454844007 c 0,39,40
 37.1376996667 55.6827121481 37.1376996667 55.6827121481 15.5 123 c 0,41,42
 0 171.222222222 0 171.222222222 0 214 c 2,43,-1
 0 492 l 2,44,45
 0 610.363636364 0 610.363636364 83 674.5 c 0,46,47
 116 700 116 700 157 710 c 128,-1,48
 198 720 198 720 223 720 c 0,49,50
 319.117647059 720 319.117647059 720 382.794979881 670.794788274 c 128,-1,51
 446.472312704 621.589576547 446.472312704 621.589576547 459 524.5 c 0,16,17
EndSplineSet
Validated: 524321
EndChar

StartChar: r
Encoding: 114 114 115
Width: 514
Flags: W
LayerCount: 2
Fore
SplineSet
166 284 m 2,0,-1
 155 284 l 2,1,2
 151 284 151 284 148 281 c 256,3,4
 145 278 145 278 145 274 c 2,5,-1
 145 73 l 2,6,7
 145 42 145 42 124 21 c 256,8,9
 103 0 103 0 72.5 0 c 128,-1,10
 42 0 42 0 21 21 c 256,11,12
 0 42 0 42 0 73 c 2,13,-1
 0 641 l 2,14,15
 0 668 0 668 19 687 c 256,16,17
 38 706 38 706 65 706 c 2,18,-1
 220 706 l 2,19,20
 267 706 267 706 294 696 c 128,-1,21
 321 686 321 686 341 676 c 0,22,23
 361 666 361 666 379 648 c 0,24,25
 444 591.863636364 444 591.863636364 444 495 c 256,26,27
 444 406 444 406 382 344 c 0,28,29
 364 327 364 327 340 313 c 1,30,-1
 339 313 l 1,31,-1
 338 312 l 1,32,33
 330.384615385 309.461538462 330.384615385 309.461538462 333 299 c 1,34,-1
 431 105 l 2,35,36
 443.952380952 79.0952380952 443.952380952 79.0952380952 434.976190476 50.5476190476 c 128,-1,37
 426 22 426 22 398.5 8 c 128,-1,38
 371 -6 371 -6 342.5 4 c 128,-1,39
 314 14 314 14 301 40 c 2,40,-1
 184 273 l 2,41,42
 177.4 284 177.4 284 166 284 c 2,0,-1
145 566 m 2,43,-1
 145 424 l 2,44,45
 145 418 145 418 148 417 c 0,46,47
 151 414 151 414 155 414 c 2,48,-1
 213 414 l 2,49,50
 272.875 414 272.875 414 293 460 c 0,51,52
 299 475 299 475 299 495 c 256,53,54
 299 535.363636364 299 535.363636364 274.75 555.681818182 c 0,55,56
 250.5 576 250.5 576 213 576 c 2,57,-1
 155 576 l 2,58,59
 145 576 145 576 145 566 c 2,43,-1
EndSplineSet
Validated: 524321
EndChar

StartChar: s
Encoding: 115 115 116
Width: 523
Flags: W
LayerCount: 2
Fore
SplineSet
375 365 m 0,0,1
 438.551401869 320.140186916 438.551401869 320.140186916 450 240 c 0,2,3
 458.898305085 190.169491525 458.898305085 190.169491525 441.949152542 135.084745763 c 128,-1,4
 425 80 425 80 385 44 c 128,-1,5
 345 8 345 8 289 -6 c 128,-1,6
 233 -20 233 -20 176 -10.5 c 128,-1,7
 119 -1 119 -1 72 34 c 0,8,9
 33.2142857143 61.15 33.2142857143 61.15 9 112 c 0,10,11
 -6.81886792453 145.61509434 -6.81886792453 145.61509434 14 178 c 256,12,13
 34.5714285714 210 34.5714285714 210 73 210 c 0,14,15
 93 210 93 210 110.5 199 c 128,-1,16
 128 188 128 188 135 170 c 0,17,18
 137.5 165 137.5 165 145 155 c 0,19,20
 147 150 147 150 150.5 146.5 c 2,21,-1
 158 139 l 1,22,23
 190.392638037 110.656441718 190.392638037 110.656441718 236 115 c 256,24,25
 283.25 119.5 283.25 119.5 303.827380952 161.546626984 c 128,-1,26
 324.404761905 203.593253968 324.404761905 203.593253968 298 241 c 256,27,28
 276.769230769 271.076923077 276.769230769 271.076923077 234.384615385 285.538461538 c 128,-1,29
 192 300 192 300 157 313 c 0,30,31
 30.5039370079 359.984251969 30.5039370079 359.984251969 6 458 c 0,32,33
 -18.006185567 562.026804124 -18.006185567 562.026804124 44 639 c 0,34,35
 106.970488082 714.998864926 106.970488082 714.998864926 206.853881151 719.243274828 c 128,-1,36
 306.73727422 723.487684729 306.73727422 723.487684729 377 666 c 0,37,38
 425 626.727272727 425 626.727272727 425 587 c 128,-1,39
 425 547.15625 425 547.15625 392 525.5 c 0,40,41
 376 515 376 515 355 515 c 2,42,-1
 354 515 l 2,43,44
 336 515 336 515 319.5 525 c 128,-1,45
 303 535 303 535 295.5 547 c 0,46,47
 264.691729323 596.293233083 264.691729323 596.293233083 225.333333333 593.833333333 c 0,48,49
 168.129032258 590.258064516 168.129032258 590.258064516 146.5 547 c 0,50,51
 136 526 136 526 142 503 c 0,52,53
 154.837905237 453.788029925 154.837905237 453.788029925 215.623824451 434.592476489 c 0,54,55
 325.619047619 399.857142857 325.619047619 399.857142857 375 365 c 0,0,1
EndSplineSet
Validated: 524321
EndChar

StartChar: t
Encoding: 116 116 117
Width: 524
Flags: W
LayerCount: 2
Fore
SplineSet
235 0 m 2,0,-1
 220 0 l 2,1,2
 193 0 193 0 174 19 c 256,3,4
 155 38 155 38 155 65 c 2,5,-1
 155 566 l 2,6,7
 155 576 155 576 145 576 c 2,8,-1
 65 576 l 2,9,10
 38 576 38 576 19 595 c 256,11,12
 0 614 0 614 0 641 c 256,13,14
 0 668 0 668 19 687 c 256,15,16
 38 706 38 706 65 706 c 2,17,-1
 389 706 l 2,18,19
 416 706 416 706 435 687 c 256,20,21
 454 668 454 668 454 641 c 256,22,23
 454 614 454 614 435 595 c 256,24,25
 416 576 416 576 389 576 c 2,26,-1
 310 576 l 2,27,28
 300 576 300 576 300 566 c 2,29,-1
 300 65 l 2,30,31
 300 38 300 38 281 19 c 256,32,33
 262 0 262 0 235 0 c 2,0,-1
EndSplineSet
Validated: 1
EndChar

StartChar: u
Encoding: 117 117 118
Width: 546
Flags: W
LayerCount: 2
Fore
SplineSet
337 685 m 0,0,1
 358 706 358 706 387.5 706 c 128,-1,2
 417 706 417 706 440 685 c 0,3,4
 461 662 461 662 461 633 c 2,5,-1
 461 214 l 2,6,7
 461 112 461 112 398 49 c 128,-1,8
 335 -14 335 -14 238.441176471 -14 c 128,-1,9
 141.882352941 -14 141.882352941 -14 87.1031635116 28.3293736501 c 0,10,11
 32.3239740821 70.6587473002 32.3239740821 70.6587473002 16.161987041 120.940484761 c 128,-1,12
 0 171.222222222 0 171.222222222 0 214 c 2,13,-1
 0 633 l 2,14,15
 0 662 0 662 21 685 c 0,16,17
 42 706 42 706 72.5 706 c 128,-1,18
 103 706 103 706 124 685 c 0,19,20
 145 662 145 662 145 633 c 2,21,-1
 145 220 l 2,22,23
 145 181.333333333 145 181.333333333 153.5 167.166666667 c 128,-1,24
 162 153 162 153 170 142 c 0,25,26
 187.454545455 118 187.454545455 118 230.12012987 118 c 128,-1,27
 272.785714286 118 272.785714286 118 294 145 c 0,28,29
 307.823529412 167.117647059 307.823529412 167.117647059 311.911764706 181.558823529 c 128,-1,30
 316 196 316 196 316 220 c 2,31,-1
 316 633 l 2,32,33
 316 662 316 662 337 685 c 0,0,1
EndSplineSet
Validated: 524289
EndChar

StartChar: v
Encoding: 118 118 119
Width: 575
Flags: W
LayerCount: 2
Fore
SplineSet
367 654 m 1,0,1
 375 677 375 677 393 691.5 c 128,-1,2
 411 706 411 706 431.5 706 c 0,3,4
 471.615384615 706 471.615384615 706 491 678 c 0,5,6
 512 651 512 651 503 616 c 2,7,-1
 348 73 l 2,8,9
 339 41 339 41 312.5 20.5 c 128,-1,10
 286 0 286 0 251.5 0 c 128,-1,11
 217 0 217 0 190.5 20.5 c 128,-1,12
 164 41 164 41 155 73 c 2,13,-1
 3 614 l 2,14,15
 -7.08510638298 648.289361702 -7.08510638298 648.289361702 15 677 c 256,16,17
 37.3076923077 706 37.3076923077 706 72.6801619433 706 c 0,18,19
 108.052631579 706 108.052631579 706 132 673.5 c 0,20,21
 139 664 139 664 142 652 c 2,22,-1
 246 259 l 2,23,24
 247 254 247 254 253 254 c 256,25,26
 259 254 259 254 260 259 c 2,27,-1
 367 654 l 1,0,1
EndSplineSet
Validated: 524321
EndChar

StartChar: w
Encoding: 119 119 120
Width: 767
Flags: W
LayerCount: 2
Fore
SplineSet
558 685 m 0,0,1
 579 706 579 706 608.5 706 c 128,-1,2
 638 706 638 706 661 685 c 0,3,4
 682 662 682 662 682 633 c 2,5,-1
 682 214 l 2,6,7
 682 112 682 112 619 49 c 0,8,9
 556 -14 556 -14 451 -14 c 0,10,11
 398.846153846 -14 398.846153846 -14 352 15 c 0,12,13
 347 19 347 19 340.5 19 c 128,-1,14
 334 19 334 19 321.5 10.5 c 128,-1,15
 309 2 309 2 282.5 -6 c 128,-1,16
 256 -14 256 -14 227 -14 c 128,-1,17
 198 -14 198 -14 173.5 -8.5 c 0,18,19
 72.298160697 14.2187802517 72.298160697 14.2187802517 28 96 c 0,20,21
 18.1333333333 112.033333333 18.1333333333 112.033333333 9.06666666667 145.516666667 c 128,-1,22
 0 179 0 179 0 214 c 2,23,-1
 0 633 l 2,24,25
 0 662 0 662 21 685 c 0,26,27
 26.4 690.4 26.4 690.4 44.2 697.2 c 128,-1,28
 62 704 62 704 73 706 c 0,29,30
 103 706 103 706 124 685 c 0,31,32
 145 662 145 662 145 633 c 2,33,-1
 145 181 l 2,34,35
 145 155 145 155 163 137 c 256,36,37
 181 119 181 119 205.5 118.5 c 128,-1,38
 230 118 230 118 248.5 134 c 128,-1,39
 267 150 267 150 267 174 c 2,40,-1
 267 632 l 2,41,42
 267 664 267 664 289 684 c 0,43,44
 309 706 309 706 341 706 c 256,45,46
 373 706 373 706 393 684 c 0,47,48
 415 664 415 664 415 632 c 2,49,-1
 415 174 l 2,50,51
 415 153 415 153 434 134 c 0,52,53
 452 118 452 118 476.5 118.5 c 128,-1,54
 501 119 501 119 519 137 c 256,55,56
 537 155 537 155 537 180 c 2,57,-1
 537 633 l 2,58,59
 537 662 537 662 558 685 c 0,0,1
EndSplineSet
Validated: 524321
EndChar

StartChar: x
Encoding: 120 120 121
Width: 528
Flags: W
LayerCount: 2
Fore
SplineSet
458 523 m 2,0,1
 458 464.5 458 464.5 434.333333333 429 c 128,-1,2
 410.666666667 393.5 410.666666667 393.5 394 381 c 0,3,4
 392 379 392 379 392 377 c 256,5,6
 392 375 392 375 409.6375 358.4 c 0,7,8
 439.403846154 330.384615385 439.403846154 330.384615385 452 280 c 0,9,10
 458 256 458 256 458 230 c 2,11,-1
 458 74 l 2,12,13
 458 43 458 43 436.5 21.5 c 128,-1,14
 415 0 415 0 384.5 0 c 128,-1,15
 354 0 354 0 332 22 c 0,16,17
 311 45 311 45 311 75 c 2,18,-1
 311 231 l 2,19,20
 311 263.8 311 263.8 290 289 c 0,21,22
 268 311 268 311 230 311 c 256,23,24
 191 311 191 311 169 289 c 0,25,26
 148 264.181818182 148 264.181818182 148 231 c 2,27,-1
 148 74 l 6,28,29
 148 43 148 43 126.5 21.5 c 132,-1,30
 105 0 105 0 73.5 0 c 132,-1,31
 42 0 42 0 22 22 c 4,32,33
 0 42 0 42 0 74 c 6,34,-1
 0 230 l 2,35,36
 0 300.5 0 300.5 39 346 c 0,37,38
 46.5 358 46.5 358 56.25 366.5 c 128,-1,39
 66 375 66 375 66 377 c 256,40,41
 66 379 66 379 59.8 383.9 c 128,-1,42
 53.6 388.8 53.6 388.8 38 407 c 0,43,44
 29 421 29 421 19 438 c 0,45,46
 0 477.9 0 477.9 0 523 c 2,47,-1
 0 632 l 2,48,49
 0 664 0 664 22 684 c 0,50,51
 42 706 42 706 73 706 c 128,-1,52
 104 706 104 706 126 684 c 0,53,54
 147 661 147 661 147 631 c 2,55,-1
 147 522 l 2,56,57
 147 486 147 486 163.5 469.5 c 128,-1,58
 180 453 180 453 194.5 448 c 128,-1,59
 209 443 209 443 229 443 c 256,60,61
 284.4375 443 284.4375 443 305 490 c 0,62,63
 310 507 310 507 310 522 c 2,64,-1
 310 632 l 2,65,66
 310 664 310 664 332 684 c 0,67,68
 354 706 354 706 384 706 c 128,-1,69
 414 706 414 706 436 684 c 0,70,71
 458 664 458 664 458 632 c 2,72,-1
 458 523 l 2,0,1
EndSplineSet
Validated: 524289
EndChar

StartChar: y
Encoding: 121 121 122
Width: 531
Flags: W
LayerCount: 2
Fore
SplineSet
337 685 m 0,0,1
 358 706 358 706 387.5 706 c 128,-1,2
 417 706 417 706 440 685 c 0,3,4
 461 662 461 662 461 633 c 2,5,-1
 461 479 l 2,6,7
 461 377 461 377 399 315 c 0,8,9
 378 294 378 294 363 286 c 128,-1,10
 348 278 348 278 343 275 c 128,-1,11
 338 272 338 272 332.5 270 c 128,-1,12
 327 268 327 268 321.5 266 c 128,-1,13
 316 264 316 264 309.5 262.375 c 128,-1,14
 303 260.75 303 260.75 303 253 c 2,15,-1
 303 73 l 2,16,17
 303 42 303 42 282 21 c 256,18,19
 261 0 261 0 230.5 0 c 128,-1,20
 200 0 200 0 179 21 c 256,21,22
 158 42 158 42 158 73 c 2,23,-1
 158 253 l 2,24,25
 158 260.75 158 260.75 149.5 262.875 c 128,-1,26
 141 265 141 265 132 268.5 c 0,27,28
 37.5792792236 305.219169191 37.5792792236 305.219169191 9.06666666667 410.516666667 c 0,29,30
 0 444 0 444 0 479 c 2,31,-1
 0 633 l 2,32,33
 0 662 0 662 21 685 c 0,34,35
 42 706 42 706 72.5 706 c 128,-1,36
 103 706 103 706 124 685 c 0,37,38
 145 662 145 662 145 633 c 2,39,-1
 145 485 l 2,40,41
 145 437.5 145 437.5 166.607142857 410.25 c 128,-1,42
 188.214285714 383 188.214285714 383 230.5 383 c 128,-1,43
 272.785714286 383 272.785714286 383 294.392857143 410.25 c 128,-1,44
 316 437.5 316 437.5 316 485 c 2,45,-1
 316 633 l 2,46,47
 316 662 316 662 337 685 c 0,0,1
EndSplineSet
Validated: 524289
EndChar

StartChar: z
Encoding: 122 122 123
Width: 536
Flags: W
LayerCount: 2
Fore
SplineSet
15 641 m 256,0,1
 15 668 15 668 34 687 c 256,2,3
 53 706 53 706 80 706 c 2,4,-1
 386 706 l 2,5,6
 431.058823529 706 431.058823529 706 454 667 c 0,7,8
 479.113207547 628.188679245 479.113207547 628.188679245 455 588 c 2,9,-1
 176 137 l 6,10,11
 174 135 174 135 175 132.5 c 132,-1,12
 176 130 176 130 180 130 c 6,13,-1
 389 130 l 6,14,15
 413.625 130 413.625 130 435 111 c 4,16,17
 454 92 454 92 454 65 c 260,18,19
 454 38 454 38 435 19 c 260,20,21
 416 0 416 0 389 0 c 6,22,-1
 90 0 l 6,23,24
 64 0 64 0 43 13.5 c 0,25,26
 0 41.1428571429 0 41.1428571429 0 91 c 0,27,28
 0 115 0 115 14 138 c 1,29,-1
 14 139 l 1,30,-1
 281 569 l 1,31,-1
 281 574 l 1,32,33
 279 576 279 576 276 576 c 2,34,-1
 80 576 l 2,35,36
 53 576 53 576 34 595 c 256,37,38
 15 614 15 614 15 641 c 256,0,1
EndSplineSet
Validated: 524321
EndChar

StartChar: braceleft
Encoding: 123 123 124
Width: 442
Flags: W
LayerCount: 2
Fore
SplineSet
259 614 m 1,0,-1
 258 577 l 1,1,-1
 258 435 l 2,2,3
 258 357 258 357 219 331 c 0,4,5
 206 321 206 321 190 317 c 0,6,7
 188 315 188 315 188 313 c 128,-1,8
 188 311 188 311 197 308 c 0,9,10
 258 287.666666667 258 287.666666667 258 192 c 2,11,-1
 258 36 l 1,12,-1
 259 0 l 1,13,14
 260.925925926 -28.8888888889 260.925925926 -28.8888888889 268.042059008 -40.4444444444 c 0,15,16
 275.15819209 -52 275.15819209 -52 310 -52 c 2,17,-1
 321 -52 l 2,18,19
 343 -52 343 -52 357.5 -67 c 128,-1,20
 372 -82 372 -82 372 -103 c 256,21,22
 372 -124 372 -124 357 -139 c 256,23,24
 342 -154 342 -154 321 -154 c 2,25,-1
 291 -154 l 2,26,27
 209.352941176 -154 209.352941176 -154 168 -117 c 1,28,29
 130 -77 130 -77 130 11 c 2,30,-1
 130 172 l 1,31,-1
 129 206 l 1,32,33
 125.263157895 235.894736842 125.263157895 235.894736842 122.131578947 240.947368421 c 0,34,35
 110.942708333 259 110.942708333 259 66 259 c 2,36,-1
 55 259 l 2,37,38
 32 259 32 259 16 275 c 256,39,40
 0 291 0 291 0 314 c 256,41,42
 0 337 0 337 16 353 c 256,43,44
 32 369 32 369 50 369 c 2,45,-1
 78 369 l 2,46,47
 111.4 369 111.4 369 121 385 c 0,48,49
 126.666666667 390.666666667 126.666666667 390.666666667 129 421 c 1,50,-1
 130 456 l 1,51,-1
 130 604 l 2,52,53
 130 693 130 693 168 731 c 256,54,55
 206 769 206 769 291 769 c 2,56,-1
 320 769 l 2,57,58
 343 769 343 769 357.5 753.5 c 128,-1,59
 372 738 372 738 372 717 c 256,60,61
 372 696 372 696 357.5 680.5 c 128,-1,62
 343 665 343 665 326.25 665 c 2,63,-1
 301.75 665 l 2,64,65
 274.8 665 274.8 665 267.810191083 653.152866242 c 128,-1,66
 260.820382166 641.305732484 260.820382166 641.305732484 259 614 c 1,0,-1
EndSplineSet
Validated: 524289
EndChar

StartChar: bar
Encoding: 124 124 125
Width: 188
Flags: W
LayerCount: 2
Fore
SplineSet
0 735 m 2,0,1
 0 774.772727273 0 774.772727273 36 789.5 c 0,2,3
 47 794 47 794 59 794 c 256,4,5
 98.7727272727 794 98.7727272727 794 113.5 758 c 0,6,7
 118 747 118 747 118 735 c 2,8,-1
 118 -78 l 2,9,10
 118 -103 118 -103 101 -120 c 128,-1,11
 84 -137 84 -137 59 -137 c 256,12,13
 34 -137 34 -137 17 -120 c 0,14,15
 0 -103 0 -103 0 -78 c 2,16,-1
 0 735 l 2,0,1
EndSplineSet
Validated: 524289
EndChar

StartChar: Aring
Encoding: 197 197 130
Width: 531
Flags: W
LayerCount: 2
Fore
SplineSet
103 688 m 1,0,1
 113.8 693.4 113.8 693.4 107.4 705.7 c 0,2,3
 94 731.453125 94 731.453125 94 762.7265625 c 0,4,5
 94 821 94 821 135.45 858.5 c 128,-1,6
 176.9 896 176.9 896 231 896 c 256,7,8
 288 896 288 896 327 857 c 0,9,10
 368 820.1 368 820.1 368 765 c 0,11,12
 368 732.714285714 368 732.714285714 352 703 c 0,13,14
 348.571428571 692.714285714 348.571428571 692.714285714 356 689 c 1,15,16
 390.434782609 666.043478261 390.434782609 666.043478261 401.217391304 654.52173913 c 0,17,18
 461 590.641129032 461 590.641129032 461 492 c 2,19,-1
 461 73 l 2,20,21
 461 42 461 42 440 21 c 0,22,23
 434.6 15.6 434.6 15.6 416.8 8.8 c 128,-1,24
 399 2 399 2 388 0 c 0,25,26
 358 0 358 0 337 21 c 256,27,28
 316 42 316 42 316 73 c 2,29,-1
 316 215 l 2,30,31
 316 219 316 219 313 222 c 256,32,33
 310 225 310 225 306 225 c 2,34,-1
 155 225 l 2,35,36
 145 225 145 225 145 215 c 2,37,-1
 145 73 l 2,38,39
 145 42 145 42 124 21 c 256,40,41
 103 0 103 0 72.5 0 c 128,-1,42
 42 0 42 0 21 21 c 256,43,44
 0 42 0 42 0 73 c 2,45,-1
 0 492 l 2,46,47
 0 624.25 0 624.25 102 688 c 1,48,-1
 103 688 l 1,0,1
229 720 m 1,49,-1
 232 720 l 1,50,51
 240.846153846 718.230769231 240.846153846 718.230769231 248 723 c 0,52,53
 275 733.125 275 733.125 275 765 c 0,54,55
 275 784.857142857 275 784.857142857 262 796 c 0,56,57
 251.166666667 809 251.166666667 809 231 809 c 256,58,59
 209.833333333 809 209.833333333 809 198.416666667 796.196261682 c 128,-1,60
 187 783.392523364 187 783.392523364 187 768.696261682 c 0,61,62
 187 729.571428571 187 729.571428571 220.5 720 c 0,63,64
 224 719 224 719 229 720 c 1,49,-1
316 363 m 2,65,-1
 316 486 l 2,66,67
 316 529.833333333 316 529.833333333 294 561 c 0,68,69
 272.785714286 588 272.785714286 588 230.5 588 c 128,-1,70
 188.214285714 588 188.214285714 588 171.607142857 566 c 0,71,72
 145 530.752688172 145 530.752688172 145 486 c 2,73,-1
 145 363 l 2,74,75
 145 359 145 359 148 356 c 256,76,77
 151 353 151 353 155 353 c 2,78,-1
 306 353 l 2,79,80
 310 353 310 353 313 356 c 0,81,82
 314 358 314 358 315 359.5 c 128,-1,83
 316 361 316 361 316 363 c 2,65,-1
EndSplineSet
EndChar

StartChar: Ccedilla
Encoding: 199 199 131
Width: 531
Flags: W
LayerCount: 2
Fore
SplineSet
218 -106 m 2,0,-1
 208 -107 l 1,1,2
 202 -109 202 -109 198 -107 c 128,-1,3
 194 -105 194 -105 191 -104 c 128,-1,4
 188 -103 188 -103 186 -101 c 2,5,-1
 178 -94 l 1,6,-1
 170 -86 l 2,7,8
 164 -81 164 -81 162 -72 c 256,9,10
 160 -63 160 -63 164 -57 c 1,11,-1
 173 -37 l 1,12,-1
 181 -17 l 1,13,14
 183 -15 183 -15 178 -10 c 1,15,16
 114.949044586 -0.0445859872611 114.949044586 -0.0445859872611 61 49 c 1,17,18
 26.9116022099 86.4972375691 26.9116022099 86.4972375691 15.5 122 c 0,19,20
 0 170.222222222 0 170.222222222 0 213 c 2,21,-1
 0 491 l 2,22,23
 0 562.5 0 562.5 28 608 c 1,24,25
 65.6363636364 686.409090909 65.6363636364 686.409090909 164 711 c 0,26,27
 193 718 193 718 230.5 718 c 0,28,29
 303.285714286 718 303.285714286 718 353 689 c 0,30,31
 382.538461538 673.527472527 382.538461538 673.527472527 396.769230769 657.263736264 c 2,32,-1
 418 633 l 1,33,34
 437 608 437 608 435 580 c 256,35,36
 433 552 433 552 410.5 534.5 c 128,-1,37
 388 517 388 517 364.5 519.5 c 0,38,39
 321.395721925 524.085561497 321.395721925 524.085561497 303 548 c 0,40,41
 284.648648649 568.972972973 284.648648649 568.972972973 268.324324324 578.486486486 c 128,-1,42
 252 588 252 588 224 588 c 128,-1,43
 196 588 196 588 172 564 c 0,44,45
 145 537 145 537 145 507 c 2,46,-1
 145 219 l 2,47,48
 145 147 145 147 193 123 c 0,49,50
 209 117 209 117 230 117 c 256,51,52
 273.230769231 117 273.230769231 117 294 144 c 0,53,54
 316 171.5 316 171.5 316 218 c 2,55,-1
 316 219 l 2,56,57
 316 247 316 247 337 270 c 0,58,59
 358 291 358 291 388 291 c 0,60,61
 416.125 292.875 416.125 292.875 439 270 c 0,62,63
 461 250 461 250 461 219 c 2,64,-1
 461 213 l 2,65,66
 461 111 461 111 399 49 c 0,67,68
 348.736842105 -1.26315789474 348.736842105 -1.26315789474 270 -12 c 0,69,70
 257.25 -16.25 257.25 -16.25 254 -26 c 0,71,72
 248 -38 248 -38 260 -42 c 0,73,74
 316.482758621 -48.275862069 316.482758621 -48.275862069 338 -94 c 0,75,76
 345 -109 345 -109 345 -130 c 128,-1,77
 345 -151 345 -151 339 -165 c 0,78,79
 321.876923077 -204.953846154 321.876923077 -204.953846154 275 -222 c 0,80,81
 254 -228 254 -228 236.5 -228 c 0,82,83
 190.5 -228 190.5 -228 163 -217 c 0,84,85
 161 -216 161 -216 159 -215.5 c 128,-1,86
 157 -215 157 -215 155 -213.5 c 128,-1,87
 153 -212 153 -212 150.5 -211 c 0,88,89
 131.648648649 -203.459459459 131.648648649 -203.459459459 128.324324324 -186.22972973 c 128,-1,90
 125 -169 125 -169 134 -155 c 0,91,92
 147.64516129 -136.806451613 147.64516129 -136.806451613 170 -140 c 0,93,94
 181.666666667 -141.666666667 181.666666667 -141.666666667 185.833333333 -145.333333333 c 128,-1,95
 190 -149 190 -149 191 -149 c 128,-1,96
 192 -149 192 -149 194.5 -150.5 c 128,-1,97
 197 -152 197 -152 201 -152.5 c 128,-1,98
 205 -153 205 -153 210 -154 c 256,99,100
 220 -156 220 -156 227 -156 c 0,101,102
 247.4 -156 247.4 -156 253.7 -151 c 0,103,104
 267 -140.444444444 267 -140.444444444 267 -132.722222222 c 128,-1,105
 267 -125 267 -125 264.5 -121.5 c 0,106,107
 255.522727273 -108.931818182 255.522727273 -108.931818182 246.761363636 -107.465909091 c 0,108,109
 232.023255814 -105 232.023255814 -105 226 -105 c 256,110,111
 221 -105 221 -105 218 -106 c 2,0,-1
EndSplineSet
Validated: 524321
EndChar

StartChar: aring
Encoding: 229 229 141
Width: 531
Flags: W
LayerCount: 2
Fore
SplineSet
103 688 m 1,0,1
 113.8 693.4 113.8 693.4 107.4 705.7 c 0,2,3
 94 731.453125 94 731.453125 94 762.7265625 c 0,4,5
 94 821 94 821 135.45 858.5 c 128,-1,6
 176.9 896 176.9 896 231 896 c 256,7,8
 288 896 288 896 327 857 c 0,9,10
 368 820.1 368 820.1 368 765 c 0,11,12
 368 732.714285714 368 732.714285714 352 703 c 0,13,14
 348.571428571 692.714285714 348.571428571 692.714285714 356 689 c 1,15,16
 390.434782609 666.043478261 390.434782609 666.043478261 401.217391304 654.52173913 c 0,17,18
 461 590.641129032 461 590.641129032 461 492 c 2,19,-1
 461 73 l 2,20,21
 461 42 461 42 440 21 c 0,22,23
 434.6 15.6 434.6 15.6 416.8 8.8 c 128,-1,24
 399 2 399 2 388 0 c 0,25,26
 358 0 358 0 337 21 c 256,27,28
 316 42 316 42 316 73 c 2,29,-1
 316 215 l 2,30,31
 316 219 316 219 313 222 c 256,32,33
 310 225 310 225 306 225 c 2,34,-1
 155 225 l 2,35,36
 145 225 145 225 145 215 c 2,37,-1
 145 73 l 2,38,39
 145 42 145 42 124 21 c 256,40,41
 103 0 103 0 72.5 0 c 128,-1,42
 42 0 42 0 21 21 c 256,43,44
 0 42 0 42 0 73 c 2,45,-1
 0 492 l 2,46,47
 0 624.25 0 624.25 102 688 c 1,48,-1
 103 688 l 1,0,1
229 720 m 1,49,-1
 232 720 l 1,50,51
 240.846153846 718.230769231 240.846153846 718.230769231 248 723 c 0,52,53
 275 733.125 275 733.125 275 765 c 0,54,55
 275 784.857142857 275 784.857142857 262 796 c 0,56,57
 251.166666667 809 251.166666667 809 231 809 c 256,58,59
 209.833333333 809 209.833333333 809 198.416666667 796.196261682 c 128,-1,60
 187 783.392523364 187 783.392523364 187 768.696261682 c 0,61,62
 187 729.571428571 187 729.571428571 220.5 720 c 0,63,64
 224 719 224 719 229 720 c 1,49,-1
316 363 m 2,65,-1
 316 486 l 2,66,67
 316 529.833333333 316 529.833333333 294 561 c 0,68,69
 272.785714286 588 272.785714286 588 230.5 588 c 128,-1,70
 188.214285714 588 188.214285714 588 171.607142857 566 c 0,71,72
 145 530.752688172 145 530.752688172 145 486 c 2,73,-1
 145 363 l 2,74,75
 145 359 145 359 148 356 c 256,76,77
 151 353 151 353 155 353 c 2,78,-1
 306 353 l 2,79,80
 310 353 310 353 313 356 c 0,81,82
 314 358 314 358 315 359.5 c 128,-1,83
 316 361 316 361 316 363 c 2,65,-1
EndSplineSet
Validated: 524289
EndChar

StartChar: dagger
Encoding: 8224 8224 161
Width: 580
Flags: W
LayerCount: 2
Fore
SplineSet
255 -165 m 256,0,1
 226 -165 226 -165 205 -144 c 0,2,3
 184 -125 184 -125 184 -94 c 2,4,-1
 184 116 l 1,5,-1
 184 326 l 2,6,7
 184 330 184 330 181 333 c 0,8,9
 179 336 179 336 174 336 c 2,10,-1
 119 336 l 1,11,-1
 63 336 l 2,12,13
 37 336 37 336 18 355 c 0,14,15
 0 373 0 373 0 399 c 256,16,17
 0 425 0 425 18 443 c 0,18,19
 37 462 37 462 63 462 c 2,20,-1
 119 462 l 1,21,-1
 174 462 l 2,22,23
 179 462 179 462 181 465 c 0,24,25
 184 468 184 468 184 472 c 2,26,-1
 184 553 l 1,27,-1
 184 635 l 2,28,29
 184 664 184 664 205 685 c 256,30,31
 226 706 226 706 255 706 c 256,32,33
 284 706 284 706 305 685 c 256,34,35
 326 664 326 664 326 635 c 2,36,-1
 326 553 l 1,37,-1
 326 472 l 2,38,39
 326 469 326 469 328 465 c 0,40,41
 331 462 331 462 336 462 c 2,42,-1
 391 462 l 1,43,-1
 447 462 l 2,44,45
 474 462 474 462 491 443 c 0,46,47
 510 426 510 426 510 399 c 256,48,49
 510 372 510 372 491 355 c 0,50,51
 474 336 474 336 447 336 c 2,52,-1
 391 336 l 1,53,-1
 336 336 l 2,54,55
 331 336 331 336 328 333 c 0,56,57
 326 329 326 329 326 326 c 2,58,-1
 326 116 l 1,59,-1
 326 -94 l 2,60,61
 326 -125 326 -125 305 -144 c 0,62,63
 284 -165 284 -165 255 -165 c 256,0,1
EndSplineSet
Validated: 1
EndChar

StartChar: degree
Encoding: 176 176 162
Width: 326
Flags: W
LayerCount: 2
Fore
SplineSet
128 788 m 128,-1,1
 182 788 182 788 218 752 c 0,2,3
 256 716.111111111 256 716.111111111 256 666 c 0,4,5
 256 613.888888889 256 613.888888889 218 578 c 0,6,7
 182 542 182 542 128 542 c 128,-1,8
 74 542 74 542 38 578 c 0,9,10
 0 614 0 614 0 666 c 0,11,12
 0 716 0 716 38 752 c 0,13,0
 74 788 74 788 128 788 c 128,-1,1
175 666 m 0,14,15
 175 698.769230769 175 698.769230769 144.5 710.5 c 0,16,17
 138 713 138 713 125.1 713 c 0,18,19
 98 713 98 713 84 685 c 0,20,21
 81 676 81 676 81 665.5 c 0,22,23
 81 630.666666667 81 630.666666667 110 621 c 0,24,25
 117 617 117 617 128 617 c 256,26,27
 148 617 148 617 162 631 c 256,28,29
 175 644 175 644 175 666 c 0,14,15
EndSplineSet
Validated: 524289
EndChar

StartChar: cent
Encoding: 162 162 163
Width: 505
Flags: W
LayerCount: 2
Fore
SplineSet
270 629 m 2,0,1
 270 619 270 619 278 619 c 0,2,3
 359.162162162 604.243243243 359.162162162 604.243243243 404 553 c 0,4,5
 411 545 411 545 418 537 c 0,6,7
 437 512 437 512 435 484 c 256,8,9
 433 456 433 456 410.5 438.5 c 128,-1,10
 388 421 388 421 364.5 423.5 c 0,11,12
 321.395721925 428.085561497 321.395721925 428.085561497 303 452 c 0,13,14
 299 457 299 457 295.5 460.5 c 2,15,-1
 288 468 l 2,16,17
 283 472 283 472 279 475.5 c 0,18,19
 260.142857143 492 260.142857143 492 230 492 c 0,20,21
 204.714285714 492 204.714285714 492 189 481 c 0,22,23
 161.098765432 464.259259259 161.098765432 464.259259259 149 432.5 c 0,24,25
 145 422 145 422 145 411 c 2,26,-1
 145 295 l 2,27,28
 145 275 145 275 159 254 c 0,29,30
 183.117647059 213 183.117647059 213 230 213 c 0,31,32
 244.75 213 244.75 213 254.875 217.5 c 128,-1,33
 265 222 265 222 270 224.5 c 128,-1,34
 275 227 275 227 279 230.5 c 128,-1,35
 283 234 283 234 287.5 238 c 0,36,37
 296.846153846 246.307692308 296.846153846 246.307692308 304.923076923 256.653846154 c 0,38,39
 321.074688797 277.34329184 321.074688797 277.34329184 354.537344398 281.17164592 c 128,-1,40
 388 285 388 285 405 272 c 0,41,42
 432.788461538 250.75 432.788461538 250.75 434.894230769 222.375 c 128,-1,43
 437 194 437 194 418 169 c 0,44,45
 411 161 411 161 404 153 c 128,-1,46
 397 145 397 145 389 137.5 c 0,47,48
 348.879699248 99.8872180451 348.879699248 99.8872180451 278 87 c 0,49,50
 276 87 276 87 275 86 c 128,-1,51
 274 85 274 85 272 84 c 0,52,53
 270 80 270 80 270 77 c 2,54,-1
 270 38 l 2,55,56
 270 22 270 22 259 11 c 256,57,58
 248 0 248 0 232 0 c 2,59,-1
 227 0 l 2,60,61
 201.857142857 0 201.857142857 0 192 23 c 0,62,63
 189 30 189 30 189 38 c 2,64,-1
 189 77 l 2,65,66
 189 87 189 87 181 87 c 0,67,68
 129.752293578 99.2018348624 129.752293578 99.2018348624 111.876146789 109.600917431 c 0,69,70
 84.8358155776 125.331076748 84.8358155776 125.331076748 61 147 c 0,71,72
 26.9116022099 184.497237569 26.9116022099 184.497237569 15.5 220 c 0,73,74
 0 268.222222222 0 268.222222222 0 311 c 2,75,-1
 0 395 l 2,76,77
 0 466.5 0 466.5 28 512 c 1,78,79
 66.9253731343 593.094527363 66.9253731343 593.094527363 161 614 c 0,80,81
 170 616 170 616 181 618 c 0,82,83
 189 622 189 622 189 628 c 2,84,-1
 189 668 l 2,85,86
 189 684 189 684 200 695 c 128,-1,87
 211 706 211 706 227 706 c 2,88,-1
 232 706 l 2,89,90
 248 706 248 706 259 695 c 256,91,92
 270 684 270 684 270 668 c 2,93,-1
 270 629 l 2,0,1
EndSplineSet
Validated: 524321
EndChar

StartChar: sterling
Encoding: 163 163 164
Width: 557
Flags: W
LayerCount: 2
Fore
SplineSet
219 272 m 2,0,-1
 218 256 l 1,1,-1
 218 247 l 1,2,3
 217 236 217 236 216 222 c 128,-1,4
 215 208 215 208 213 196 c 128,-1,5
 211 184 211 184 209.5 174.5 c 0,6,7
 205.230769231 147.461538462 205.230769231 147.461538462 202.615384615 141.230769231 c 0,8,9
 196.222222222 126 196.222222222 126 211 126 c 2,10,-1
 424 126 l 2,11,12
 451 126 451 126 468 107 c 0,13,14
 487 90 487 90 487 63.5 c 128,-1,15
 487 37 487 37 468.5 18.5 c 128,-1,16
 450 0 450 0 424 0 c 2,17,-1
 76 0 l 2,18,19
 48 0 48 0 31 19 c 0,20,21
 12 36 12 36 12 64 c 2,22,-1
 12 68 l 2,23,24
 12 104 12 104 46 124 c 0,25,26
 62.0681818182 133.181818182 62.0681818182 133.181818182 71.5 186 c 0,27,28
 74 200 74 200 77 214 c 256,29,30
 82.2894736842 238.684210526 82.2894736842 238.684210526 80 257 c 1,31,-1
 80 263 l 2,32,33
 80 282 80 282 68 282 c 2,34,-1
 51 282 l 2,35,36
 30 282 30 282 15 297 c 256,37,38
 0 312 0 312 0 333 c 256,39,40
 0 354 0 354 15 369 c 0,41,42
 28 384 28 384 51 384 c 2,43,-1
 68 384 l 2,44,45
 72 384 72 384 75 387 c 256,46,47
 78 390 78 390 78 394 c 2,48,-1
 78 520 l 2,49,50
 78 566.4 78 566.4 87.5 589.2 c 128,-1,51
 97 612 97 612 106 628.5 c 0,52,53
 133.558139535 679.023255814 133.558139535 679.023255814 198.5 705 c 0,54,55
 236 720 236 720 282 720 c 2,56,-1
 285 720 l 2,57,58
 323.25 720 323.25 720 347.625 712.5 c 128,-1,59
 372 705 372 705 379 702.5 c 0,60,61
 424.181818182 686.363636364 424.181818182 686.363636364 470 634 c 0,62,63
 489 609 489 609 486.5 581 c 128,-1,64
 484 553 484 553 462 535 c 0,65,66
 439 518 439 518 415.5 520.5 c 0,67,68
 373.484848485 524.96969697 373.484848485 524.96969697 355 549 c 0,69,70
 334.913043478 571.956521739 334.913043478 571.956521739 317.456521739 581.47826087 c 128,-1,71
 300 591 300 591 267 590 c 1,72,73
 235.571428571 583.714285714 235.571428571 583.714285714 223 546 c 0,74,75
 219 532 219 532 219 515 c 2,76,-1
 219 394 l 2,77,78
 219 390 219 390 222 387 c 256,79,80
 225 384 225 384 229 384 c 2,81,-1
 317 384 l 2,82,83
 339 384 339 384 353.5 369 c 128,-1,84
 368 354 368 354 368 333 c 256,85,86
 368 312 368 312 353 297 c 256,87,88
 338 282 338 282 317 282 c 2,89,-1
 229 282 l 2,90,91
 219 282 219 282 219 272 c 2,0,-1
EndSplineSet
Validated: 524321
EndChar

StartChar: section
Encoding: 167 167 165
Width: 615
Flags: W
LayerCount: 2
Fore
SplineSet
418 259 m 256,0,1
 418 304.75 418 304.75 364 325 c 0,2,3
 356 329 356 329 347 332.5 c 128,-1,4
 338 336 338 336 329 340 c 2,5,-1
 240 370 l 2,6,7
 232.5 372.5 232.5 372.5 221.25 376.75 c 128,-1,8
 210 381 210 381 191.5 379.5 c 128,-1,9
 173 378 173 378 163.5 371.5 c 128,-1,10
 154 365 154 365 152 365 c 1,11,12
 127 340 127 340 127 319 c 0,13,14
 127 273.466666667 127 273.466666667 165.5 255.5 c 0,15,16
 173 252 173 252 181 248 c 256,17,18
 189 244 189 244 198 240.5 c 128,-1,19
 207 237 207 237 216 233 c 2,20,-1
 305 203 l 2,21,22
 307 202 307 202 309 202 c 128,-1,23
 311 202 311 202 314 200.5 c 0,24,25
 331.666666667 191.666666667 331.666666667 191.666666667 352.833333333 193.833333333 c 128,-1,26
 374 196 374 196 382.5 202 c 128,-1,27
 391 208 391 208 392.5 209 c 128,-1,28
 394 210 394 210 394.5 210 c 128,-1,29
 395 210 395 210 401 215 c 0,30,31
 418 229.166666667 418 229.166666667 418 259 c 256,0,1
445 420 m 0,32,33
 514.801324503 383.046357616 514.801324503 383.046357616 537 322 c 0,34,35
 545 300 545 300 545 260 c 128,-1,36
 545 220 545 220 521 182.5 c 128,-1,37
 497 145 497 145 454 125 c 0,38,39
 452 123 452 123 452 121 c 0,40,41
 450 119 450 119 459 108 c 0,42,43
 484 77.4444444444 484 77.4444444444 484 33.2222222222 c 0,44,45
 484 -47.8928571429 484 -47.8928571429 429 -97 c 0,46,47
 402.06779661 -120.084745763 402.06779661 -120.084745763 388.033898305 -125.542372881 c 128,-1,48
 374 -131 374 -131 364.5 -134.5 c 0,49,50
 325.142857143 -149 325.142857143 -149 276.071428571 -149 c 128,-1,51
 227 -149 227 -149 181.5 -133.5 c 128,-1,52
 136 -118 136 -118 110 -90 c 0,53,54
 81.5510204082 -59.5189504373 81.5510204082 -59.5189504373 97 -22 c 256,55,56
 104 -5 104 -5 119 6 c 128,-1,57
 134 17 134 17 154 17 c 2,58,-1
 155 17 l 2,59,60
 182 17 182 17 204 -5 c 1,61,62
 225.538461538 -33 225.538461538 -33 285 -33 c 0,63,64
 317.875 -33 317.875 -33 336.4375 -17 c 128,-1,65
 355 -1 355 -1 355 19 c 256,66,67
 355 58.6666666667 355 58.6666666667 273 86 c 2,68,-1
 183 117 l 2,69,70
 126.81443299 137.226804124 126.81443299 137.226804124 96.4072164948 154.113402062 c 0,71,72
 0 207.652992033 0 207.652992033 0 305 c 0,73,74
 0 353 0 353 24 390.5 c 128,-1,75
 48 428 48 428 91 448 c 0,76,77
 94.8 451.8 94.8 451.8 92 456 c 0,78,79
 61 497.333333333 61 497.333333333 61 540.166666667 c 0,80,81
 61 627.285714286 61 627.285714286 130 681.5 c 0,82,83
 146.52 694.48 146.52 694.48 158.76 699.24 c 128,-1,84
 171 704 171 704 180.5 707.5 c 0,85,86
 219.857142857 722 219.857142857 722 268.928571429 722 c 128,-1,87
 318 722 318 722 363.5 706.5 c 128,-1,88
 409 691 409 691 435 663 c 0,89,90
 463.448979592 632.518950437 463.448979592 632.518950437 448 595 c 256,91,92
 432.801801802 558.09009009 432.801801802 558.09009009 391 556 c 1,93,-1
 390 556 l 2,94,95
 364 556 364 556 347 573.5 c 128,-1,96
 330 591 330 591 314 596.5 c 0,97,98
 286.363636364 606 286.363636364 606 257.181818182 606 c 128,-1,99
 228 606 228 606 209 590.5 c 128,-1,100
 190 575 190 575 190 554.5 c 0,101,102
 190 514.333333333 190 514.333333333 272 487 c 2,103,-1
 362 456 l 2,104,105
 409 440 409 440 445 420 c 0,32,33
EndSplineSet
Validated: 524321
EndChar

StartChar: bullet
Encoding: 8226 8226 166
Width: 460
Flags: W
LayerCount: 2
Fore
SplineSet
364 441 m 0,0,1
 370 430 370 430 375 418.5 c 128,-1,2
 380 407 380 407 384 394 c 0,3,4
 390 370 390 370 390 343 c 0,5,6
 390 317 390 317 384 293 c 0,7,8
 380 280 380 280 375 268.5 c 128,-1,9
 370 257 370 257 364 246 c 0,10,11
 357 235 357 235 349 225 c 128,-1,12
 341 215 341 215 332 206 c 0,13,14
 314 188 314 188 292 175 c 0,15,16
 268 160 268 160 246 155 c 0,17,18
 222 148 222 148 195 148 c 0,19,20
 167 148 167 148 145 155 c 0,21,22
 132 158 132 158 120.5 163 c 128,-1,23
 109 168 109 168 98 175 c 0,24,25
 87 181 87 181 76.5 189 c 128,-1,26
 66 197 66 197 57 206 c 0,27,28
 39 223 39 223 26 246 c 0,29,30
 13 268 13 268 7 293 c 0,31,32
 0 315 0 315 0 343 c 0,33,34
 0 372 0 372 7 394 c 0,35,36
 13 419 13 419 26 441 c 256,37,38
 39 463 39 463 57 481 c 0,39,40
 74 498 74 498 97 512 c 0,41,42
 108 519 108 519 120 523.5 c 128,-1,43
 132 528 132 528 144 532 c 0,44,45
 168 538 168 538 195 538 c 0,46,47
 220 538 220 538 246 532 c 0,48,49
 258 528 258 528 269.5 523.5 c 128,-1,50
 281 519 281 519 292 512 c 0,51,52
 314 498 314 498 332 481 c 0,53,54
 341 472 341 472 349 462 c 128,-1,55
 357 452 357 452 364 441 c 0,0,1
EndSplineSet
Validated: 1
EndChar

StartChar: germandbls
Encoding: 223 223 167
Width: 522
Flags: W
LayerCount: 2
Fore
SplineSet
0.5 -91 m 1,0,1
 0 -121 0 -121 22.5 -143 c 0,2,3
 44 -165 44 -165 74 -165 c 0,4,5
 106 -165 106 -165 127.25 -143.5 c 0,6,7
 148 -122 148 -122 148.5 -91 c 1,8,-1
 145 296 l 1,9,-1
 147 302 l 2,10,11
 147.375 303.125 147.375 303.125 150 304 c 2,12,-1
 155 306 l 1,13,-1
 220 306 l 2,14,15
 230 306 230 306 236.5 304.5 c 128,-1,16
 243 303 243 303 247 302.5 c 128,-1,17
 251 302 251 302 255 300 c 0,18,19
 282 286 282 286 294 269 c 0,20,21
 308 248 308 248 308 226 c 2,22,-1
 308 207 l 2,23,24
 308 193 308 193 304 184.5 c 128,-1,25
 300 176 300 176 297.5 169.5 c 128,-1,26
 295 163 295 163 288.25 156.5 c 0,27,28
 278 147 278 147 277.5 146 c 0,29,30
 273 137 273 137 229 128 c 2,31,32
 161.947654805 103.114593536 161.947654805 103.114593536 199 22 c 0,33,34
 215 -13 215 -13 280 6 c 258,35,-1
 315 16 l 258,36,-1
 364 40 l 0,37,38
 370 44 370 44 377 50 c 0,39,40
 384 55 384 55 392 64 c 128,-1,41
 400 73 400 73 405 78 c 256,42,43
 420 93 420 93 426 106 c 128,-1,44
 432 119 432 119 435 125 c 0,45,46
 452 159 452 159 452 216 c 0,47,48
 452 226 452 226 450 238 c 256,49,50
 449 244 449 244 448.5 250.5 c 128,-1,51
 448 257 448 257 440.5 281.5 c 128,-1,52
 433 306 433 306 421 320 c 128,-1,53
 409 334 409 334 406 338 c 256,54,55
 403 342 403 342 399.5 345 c 128,-1,56
 396 348 396 348 392.5 351.5 c 128,-1,57
 389 355 389 355 382 361 c 128,-1,58
 375 367 375 367 375 372 c 2,59,-1
 375 376 l 1,60,61
 376 377 376 377 376.5 378 c 128,-1,62
 377 379 377 379 381.5 382 c 128,-1,63
 386 385 386 385 397 398.5 c 128,-1,64
 408 412 408 412 410 415.5 c 128,-1,65
 412 419 412 419 414.5 422.5 c 128,-1,66
 417 426 417 426 419 430 c 128,-1,67
 421 434 421 434 425 441.5 c 128,-1,68
 429 449 429 449 430.5 456 c 128,-1,69
 432 463 432 463 435.5 475.5 c 128,-1,70
 439 488 439 488 439 500 c 2,71,-1
 439 525 l 2,72,73
 439 552 439 552 432 568 c 2,74,-1
 422 591 l 2,75,76
 417.263157895 601.894736842 417.263157895 601.894736842 410 614 c 0,77,78
 406 620 406 620 403 625 c 0,79,80
 399 630 399 630 388 642.5 c 128,-1,81
 377 655 377 655 369 660 c 128,-1,82
 361 665 361 665 356 669 c 256,83,84
 351 673 351 673 332 682.5 c 128,-1,85
 313 692 313 692 301 695 c 128,-1,86
 289 698 289 698 282 700 c 256,87,88
 275 702 275 702 268.5 702.5 c 128,-1,89
 262 703 262 703 250.5 704.5 c 128,-1,90
 239 706 239 706 226 706 c 2,91,-1
 65 706 l 2,92,93
 47 706 47 706 29 695 c 0,94,95
 0 678 0 678 0 641 c 2,96,-1
 0 65 l 1,97,-1
 0.5 -91 l 1,0,1
150 433 m 2,98,99
 148 433 148 433 145 441 c 1,100,-1
 145 568 l 1,101,-1
 147 574 l 2,102,-1
 149 576 l 0,103,104
 151 578 151 578 155 578 c 2,105,-1
 220 578 l 2,106,107
 237 578 237 578 245 574.5 c 128,-1,108
 253 571 253 571 256.5 570 c 128,-1,109
 260 569 260 569 271 560.5 c 128,-1,110
 282 552 282 552 285.5 544.5 c 128,-1,111
 289 537 289 537 292.5 529.5 c 128,-1,112
 296 522 296 522 296 505 c 256,113,114
 296 497 296 497 294 489 c 0,115,116
 294 477 294 477 284 462 c 0,117,118
 261 431 261 431 220 431 c 2,119,-1
 155 431 l 1,120,-1
 150 433 l 2,98,99
EndSplineSet
Validated: 524329
EndChar

StartChar: registered
Encoding: 174 174 168
Width: 503
Flags: W
LayerCount: 2
Fore
SplineSet
0 496 m 256,0,1
 0 589 0 589 62 651 c 256,2,3
 124 713 124 713 217 713 c 0,4,5
 309 713 309 713 371 651 c 256,6,7
 433 589 433 589 433 496 c 256,8,9
 433 403 433 403 371 341 c 256,10,11
 309 279 309 279 217 279 c 0,12,13
 124 279 124 279 62 341 c 256,14,15
 0 403 0 403 0 496 c 256,0,1
384 496 m 256,16,17
 384 572 384 572 337 619 c 256,18,19
 288 668 288 668 217 668 c 0,20,21
 142.869565217 668 142.869565217 668 96 619 c 0,22,23
 49 572 49 572 49 496 c 256,24,25
 49 420 49 420 96 373 c 0,26,27
 143.826086957 323 143.826086957 323 217 323 c 0,28,29
 287 323 287 323 337 373 c 256,30,31
 384 420 384 420 384 496 c 256,16,17
132 592 m 2,32,33
 132 604 132 604 141 613 c 256,34,35
 150 622 150 622 163 622 c 2,36,-1
 235 622 l 2,37,38
 270 622 270 622 292 600 c 256,39,40
 314 578 314 578 314 545 c 0,41,42
 314 524.6 314 524.6 302.5 504.3 c 128,-1,43
 291 484 291 484 271 475 c 0,44,45
 269 473 269 473 269 472 c 2,46,-1
 269 468 l 1,47,-1
 285 441 l 1,48,-1
 302 415 l 1,49,50
 308 402 308 402 301.5 390 c 128,-1,51
 295 378 295 378 284.5 378 c 0,52,53
 267 378 267 378 261 390 c 2,54,-1
 218 463 l 2,55,56
 217 464 217 464 216 464.5 c 128,-1,57
 215 465 215 465 212.5 466.5 c 128,-1,58
 210 468 210 468 209 468 c 2,59,-1
 189 468 l 2,60,61
 187 468 187 468 185 466 c 256,62,63
 183 464 183 464 183 462 c 2,64,-1
 183 404 l 2,65,66
 183 393 183 393 175.5 385.5 c 128,-1,67
 168 378 168 378 157 378 c 128,-1,68
 146 378 146 378 140 386 c 0,69,70
 132 392 132 392 132 404 c 2,71,-1
 132 592 l 2,32,33
183 517 m 2,72,73
 183 511 183 511 189 511 c 2,74,-1
 226 511 l 2,75,76
 263 511 263 511 263 544 c 0,77,78
 263 558 263 558 254 567 c 256,79,80
 245 576 245 576 226 576 c 2,81,-1
 189 576 l 2,82,83
 183 576 183 576 183 570 c 2,84,-1
 183 517 l 2,72,73
EndSplineSet
Validated: 524289
EndChar

StartChar: copyright
Encoding: 169 169 169
Width: 964
Flags: W
LayerCount: 2
Fore
SplineSet
601.5 712 m 0,0,1
 713.299416609 689.955044612 713.299416609 689.955044612 789.5 613 c 0,2,3
 894 507.465346535 894 507.465346535 894 353 c 256,4,5
 894 198 894 198 788 92 c 0,6,7
 713.627444134 16.1096368715 713.627444134 16.1096368715 601.5 -6 c 0,8,9
 566 -13 566 -13 528 -13 c 256,10,11
 454.538461538 -13 454.538461538 -13 386.269230769 14.5 c 0,12,13
 247.479539134 70.406833532 247.479539134 70.406833532 190 210 c 0,14,15
 163 276 163 276 163 353 c 256,16,17
 163 509 163 509 268 614 c 256,18,19
 344.263157895 690.263157895 344.263157895 690.263157895 454.5 712 c 0,20,21
 490 719 490 719 528 719 c 256,22,23
 566 719 566 719 601.5 712 c 0,0,1
263 239 m 0,24,25
 307.121771218 126.6900369 307.121771218 126.6900369 414 82.5 c 0,26,27
 466 61 466 61 512 61 c 0,28,29
 589 61 589 61 641 82.5 c 128,-1,30
 693 104 693 104 733 144 c 128,-1,31
 773 184 773 184 793 239 c 0,32,33
 814 291 814 291 814 352.5 c 0,34,35
 814 476.897435897 814 476.897435897 734 561 c 0,36,37
 650 645 650 645 528 645 c 0,38,39
 470 645 470 645 416 623.5 c 0,40,41
 309.480966025 581.08964388 309.480966025 581.08964388 263 467 c 0,42,43
 242 414 242 414 242 352.5 c 128,-1,44
 242 291 242 291 263 239 c 0,24,25
663 450 m 0,45,46
 651.8 442.533333333 651.8 442.533333333 636.4 445.766666667 c 128,-1,47
 621 449 621 449 609 463 c 128,-1,48
 597 477 597 477 572 485 c 256,49,50
 516.871794872 502.641025641 516.871794872 502.641025641 472 477 c 256,51,52
 430.834437086 453.476821192 430.834437086 453.476821192 418 400 c 0,53,54
 405.625 346.375 405.625 346.375 427 287 c 0,55,56
 447.530042918 234.534334764 447.530042918 234.534334764 492 221 c 0,57,58
 513 212 513 212 540.5 214.5 c 0,59,60
 598.028735632 219.729885057 598.028735632 219.729885057 625 255 c 0,61,62
 632 267 632 267 645.5 270 c 128,-1,63
 659 273 659 273 675.5 267 c 128,-1,64
 692 261 692 261 697.5 241.5 c 0,65,66
 705.530751708 213.027334852 705.530751708 213.027334852 674 185 c 0,67,68
 623.586206897 134.586206897 623.586206897 134.586206897 546 132 c 1,69,70
 455.041152263 124.090534979 455.041152263 124.090534979 391 184 c 0,71,72
 362 212 362 212 345 251 c 0,73,74
 307.864864865 331.459459459 307.864864865 331.459459459 331 424 c 0,75,76
 353.875796178 509.26433121 353.875796178 509.26433121 429 551 c 1,77,78
 497.328877005 583.36631016 497.328877005 583.36631016 574 571 c 0,79,80
 630.171641791 562.358208955 630.171641791 562.358208955 663.5 526 c 0,81,82
 680.733333333 507.2 680.733333333 507.2 682.866666667 497.6 c 0,83,84
 689.617142857 467.222857143 689.617142857 467.222857143 663 450 c 0,45,46
0 -165 m 1,85,-1
 28 -165 l 1,86,-1
 0 -165 l 1,85,-1
EndSplineSet
Validated: 524321
EndChar

StartChar: trademark
Encoding: 8482 8482 170
Width: 723
Flags: W
LayerCount: 2
Fore
SplineSet
34 637 m 2,0,1
 20 637 20 637 10 647 c 256,2,3
 0 657 0 657 0 671 c 0,4,5
 0 684 0 684 10 696 c 0,6,7
 20 706 20 706 34 706 c 2,8,-1
 139 706 l 1,9,-1
 244 706 l 2,10,11
 258 706 258 706 268 696 c 0,12,13
 278 684 278 684 278 671 c 0,14,15
 278 657 278 657 268 647 c 256,16,17
 258 637 258 637 244 637 c 2,18,-1
 218 637 l 1,19,-1
 192 637 l 2,20,21
 188 637 188 637 185 634 c 0,22,23
 183 630 183 630 183 627 c 2,24,-1
 183 515 l 1,25,-1
 183 404 l 2,26,27
 183 386 183 386 170 373 c 0,28,29
 158 361 158 361 140 361 c 0,30,31
 121 361 121 361 109 373 c 256,32,33
 97 385 97 385 97 404 c 2,34,-1
 97 515 l 1,35,-1
 97 627 l 2,36,37
 97 631 97 631 94 634 c 256,38,39
 91 637 91 637 87 637 c 2,40,-1
 61 637 l 1,41,-1
 34 637 l 2,0,1
600 706 m 0,42,43
 622 706 622 706 638 690 c 0,44,45
 653 675 653 675 653 653 c 2,46,-1
 653 526 l 1,47,-1
 653 400 l 2,48,49
 653 383 653 383 641 371 c 0,50,51
 630 360 630 360 612 360 c 0,52,53
 598 360 598 360 584 372 c 0,54,55
 573 385 573 385 573 401 c 2,56,-1
 573 468 l 1,57,-1
 573 536 l 2,58,59
 573 540 573 540 568 542 c 0,60,61
 564 542 564 542 561 538 c 2,62,-1
 535 491 l 1,63,-1
 509 443 l 2,64,65
 501 428 501 428 486 428 c 0,66,67
 469 428 469 428 462 443 c 2,68,-1
 434 495 l 1,69,-1
 405 547 l 2,70,71
 403 550 403 550 401 549 c 0,72,73
 398 549 398 549 398 546 c 2,74,-1
 398 473 l 1,75,-1
 398 400 l 2,76,77
 398 383 398 383 386 371 c 0,78,79
 375 360 375 360 357 360 c 0,80,81
 341 360 341 360 329 372 c 0,82,83
 318 385 318 385 318 401 c 2,84,-1
 318 527 l 1,85,-1
 318 653 l 2,86,87
 318 675 318 675 333 690 c 0,88,89
 349 706 349 706 371 706 c 0,90,91
 385 706 385 706 398 698 c 0,92,93
 410 690 410 690 418 678 c 2,94,-1
 448 619 l 1,95,-1
 479 561 l 2,96,97
 482 557 482 557 486 557 c 0,98,99
 491 557 491 557 492 561 c 2,100,-1
 523 619 l 1,101,-1
 553 678 l 2,102,103
 561 690 561 690 573 698 c 0,104,105
 586 706 586 706 600 706 c 0,42,43
EndSplineSet
Validated: 1
EndChar

StartChar: acute
Encoding: 180 180 171
Width: 239
Flags: W
LayerCount: 2
Fore
SplineSet
36 880 m 2,0,1
 46 900 46 900 68 900 c 2,2,-1
 134 900 l 2,3,4
 156 900 156 900 164 882 c 0,5,6
 174 866 174 866 163 847 c 1,7,-1
 108 764 l 1,8,9
 88.7142857143 737 88.7142857143 737 59 737 c 0,10,11
 28 737 28 737 10 764 c 256,12,13
 -9.38461538462 793.076923077 -9.38461538462 793.076923077 6 820 c 1,14,-1
 36 880 l 2,0,1
EndSplineSet
Validated: 524321
EndChar

StartChar: dieresis
Encoding: 168 168 172
Width: 419
Flags: W
LayerCount: 2
Fore
SplineSet
22 852 m 0,0,1
 44 874 44 874 66.5 874 c 0,2,3
 105 874 105 874 122 856.5 c 0,4,5
 149 828.705882353 149 828.705882353 149 799 c 0,6,7
 149 769 149 769 127 747 c 0,8,9
 107.2 725 107.2 725 75 725 c 0,10,11
 41.8 725 41.8 725 22 747 c 0,12,13
 0 769 0 769 0 799 c 256,14,15
 0 826.333333333 0 826.333333333 22 852 c 0,0,1
217 846.291666667 m 128,-1,17
 234 864 234 864 246.5 869 c 128,-1,18
 259 874 259 874 282 874 c 128,-1,19
 305 874 305 874 322 856.5 c 0,20,21
 349 828.705882353 349 828.705882353 349 799 c 0,22,23
 349 769 349 769 327 747 c 0,24,25
 307.2 725 307.2 725 275 725 c 0,26,27
 241.8 725 241.8 725 222 747 c 0,28,29
 200 769 200 769 200 798.791666667 c 128,-1,16
 200 828.583333333 200 828.583333333 217 846.291666667 c 128,-1,17
EndSplineSet
Validated: 524289
EndChar

StartChar: AE
Encoding: 198 198 174
Width: 757
Flags: W
LayerCount: 2
Fore
SplineSet
451 140 m 2,0,1
 451 130 451 130 461 130 c 2,2,-1
 622 130 l 2,3,4
 646.625 130 646.625 130 668 111 c 0,5,6
 687 92 687 92 687 65 c 256,7,8
 687 38 687 38 668 19 c 256,9,10
 649 0 649 0 622 0 c 2,11,-1
 371 0 l 2,12,13
 344 0 344 0 325 19 c 256,14,15
 306 38 306 38 306 65 c 2,16,-1
 306 111 l 2,17,18
 306 115 306 115 303 118 c 0,19,20
 301 119 301 119 299.5 120 c 128,-1,21
 298 121 298 121 296 121 c 2,22,-1
 165 121 l 2,23,24
 163 121 163 121 159 119 c 0,25,26
 158 117 158 117 157 116.5 c 128,-1,27
 156 116 156 116 156 114 c 2,28,-1
 134 48 l 2,29,30
 128 27 128 27 109.5 13.5 c 128,-1,31
 91 0 91 0 69 0 c 0,32,33
 32 0 32 0 13 29 c 0,34,35
 -7.45454545455 58.5454545455 -7.45454545455 58.5454545455 4 91 c 2,36,-1
 197 662 l 1,37,38
 208.827160494 691.567901235 208.827160494 691.567901235 238.5 702.5 c 0,39,40
 248 706 248 706 259 706 c 2,41,-1
 619 706 l 2,42,43
 648 706 648 706 665 687 c 0,44,45
 684 668 684 668 684 641 c 256,46,47
 684 614 684 614 665 595 c 0,48,49
 648 576 648 576 619 576 c 2,50,-1
 461 576 l 2,51,52
 451 576 451 576 451 566 c 2,53,-1
 451 442 l 2,54,55
 451 438 451 438 454 435 c 256,56,57
 457 432 457 432 461 432 c 2,58,-1
 578 432 l 2,59,60
 605 432 605 432 624 413 c 0,61,62
 643 396 643 396 643 368.5 c 128,-1,63
 643 341 643 341 624 322 c 256,64,65
 605 303 605 303 578 303 c 2,66,-1
 461 303 l 2,67,68
 457 303 457 303 454 300 c 256,69,70
 451 297 451 297 451 293 c 2,71,-1
 451 140 l 2,0,1
205 263 m 2,72,73
 203 258 203 258 206.5 254 c 128,-1,74
 210 250 210 250 214 250 c 2,75,-1
 296 250 l 2,76,77
 300 250 300 250 303 253 c 256,78,79
 306 256 306 256 306 260 c 2,80,-1
 306 541 l 2,81,82
 306 546 306 546 302 546 c 0,83,84
 297 547 297 547 296 543 c 2,85,-1
 205 263 l 2,72,73
EndSplineSet
Validated: 524321
EndChar

StartChar: Oslash
Encoding: 216 216 175
Width: 531
Flags: W
LayerCount: 2
Fore
SplineSet
230 720 m 0,0,1
 296.153846154 720 296.153846154 720 350 692 c 1,2,-1
 352 692 l 1,3,-1
 354 694 l 1,4,-1
 356 698 l 1,5,-1
 358 701 l 1,6,7
 365 717 365 717 383 723.5 c 128,-1,8
 401 730 401 730 418 721 c 0,9,10
 434 714 434 714 440.5 696 c 128,-1,11
 447 678 447 678 438 660 c 2,12,-1
 425 633 l 2,13,14
 424 632 424 632 424 628.5 c 128,-1,15
 424 625 424 625 425.5 623 c 0,16,17
 450.61038961 589.519480519 450.61038961 589.519480519 459 524.5 c 0,18,19
 461 509 461 509 461 492 c 2,20,-1
 461 214 l 2,21,22
 461 112 461 112 399 50 c 0,23,24
 335 -14 335 -14 230 -14 c 0,25,26
 162 -14 162 -14 114 12 c 1,27,-1
 111 12 l 2,28,29
 110 12 110 12 108 10 c 1,30,-1
 107 7 l 1,31,-1
 105 4 l 1,32,33
 91.7647058824 -21 91.7647058824 -21 61.5 -21 c 0,34,35
 52 -21 52 -21 44 -16 c 0,36,37
 26 -6 26 -6 21 10.5 c 128,-1,38
 16 27 16 27 24 45 c 1,39,-1
 31 57 l 1,40,-1
 37 69 l 2,41,42
 38 71 38 71 38 74.5 c 128,-1,43
 38 78 38 78 36.5 81 c 128,-1,44
 35 84 35 84 34 85.5 c 0,45,46
 29.6666666667 92 29.6666666667 92 29.3333333333 93 c 128,-1,47
 29 94 29 94 24.5 101.5 c 0,48,49
 18.0909090909 112.181818182 18.0909090909 112.181818182 9.04545454545 145.590909091 c 128,-1,50
 0 179 0 179 0 214 c 2,51,-1
 0 492 l 2,52,53
 0 610.363636364 0 610.363636364 83 674.5 c 0,54,55
 116 700 116 700 157 710 c 128,-1,56
 198 720 198 720 230 720 c 0,0,1
145 486 m 2,57,-1
 145 296 l 2,58,59
 145 293 145 293 147 292.5 c 128,-1,60
 149 292 149 292 151 294 c 2,61,-1
 286 560 l 2,62,63
 287 562 287 562 287 566 c 0,64,65
 281.6 576.8 281.6 576.8 260 584 c 256,66,67
 248 588 248 588 228 588 c 0,68,69
 188.214285714 588 188.214285714 588 171.607142857 566 c 0,70,71
 145 530.752688172 145 530.752688172 145 486 c 2,57,-1
230 118 m 0,72,73
 272.785714286 118 272.785714286 118 294 145 c 0,74,75
 307.823529412 167.117647059 307.823529412 167.117647059 311.911764706 181.558823529 c 128,-1,76
 316 196 316 196 316 220 c 2,77,-1
 316 406 l 2,78,79
 316 409 316 409 313.5 409 c 128,-1,80
 311 409 311 409 310 407 c 2,81,-1
 177 145 l 1,82,83
 172.476923077 133.692307692 172.476923077 133.692307692 190.5 125.5 c 0,84,85
 207 118 207 118 230 118 c 0,72,73
EndSplineSet
Validated: 524321
EndChar

StartChar: plusminus
Encoding: 177 177 177
Width: 550
Flags: W
LayerCount: 2
Fore
SplineSet
60 0 m 2,0,1
 34 0 34 0 18 18 c 0,2,3
 0 34 0 34 0 59 c 128,-1,4
 0 84 0 84 18 102 c 0,5,6
 34 120 34 120 60 120 c 2,7,-1
 421 120 l 2,8,9
 445 120 445 120 462.5 102.5 c 128,-1,10
 480 85 480 85 480 59 c 128,-1,11
 480 33 480 33 463 18 c 0,12,13
 445 0 445 0 421 0 c 2,14,-1
 60 0 l 2,0,1
239 665 m 2,15,-1
 241 665 l 2,16,17
 266 665 266 665 279 652 c 0,18,19
 301 630 301 630 301 605 c 2,20,-1
 301 494 l 2,21,22
 301 490 301 490 304 487 c 256,23,24
 307 484 307 484 311 484 c 2,25,-1
 421 484 l 2,26,27
 446 484 446 484 463 467 c 256,28,29
 480 450 480 450 480 424.5 c 128,-1,30
 480 399 480 399 463 382 c 256,31,32
 446 365 446 365 421 365 c 2,33,-1
 311 365 l 2,34,35
 309 365 309 365 307.5 364 c 128,-1,36
 306 363 306 363 304 362 c 0,37,38
 301 359 301 359 301 355 c 2,39,-1
 301 244 l 2,40,41
 301 219 301 219 283.5 201.5 c 128,-1,42
 266 184 266 184 241 184 c 2,43,-1
 239 184 l 2,44,45
 215 184 215 184 197 202 c 256,46,47
 179 220 179 220 179 244 c 2,48,-1
 179 355 l 2,49,50
 179 359 179 359 176 362 c 256,51,52
 173 365 173 365 169 365 c 2,53,-1
 60 365 l 2,54,55
 33 365 33 365 18 382 c 0,56,57
 0 400 0 400 0 424.5 c 128,-1,58
 0 449 0 449 18 467 c 0,59,60
 33 484 33 484 60 484 c 2,61,-1
 169 484 l 2,62,63
 179 484 179 484 179 494 c 2,64,-1
 179 605 l 2,65,66
 179 629 179 629 197 647 c 256,67,68
 215 665 215 665 239 665 c 2,15,-1
EndSplineSet
Validated: 1
EndChar

StartChar: yen
Encoding: 165 165 180
Width: 522
Flags: W
LayerCount: 2
Fore
SplineSet
153 315 m 2,0,1
 153 325 153 325 143 325 c 2,2,-1
 49 325 l 2,3,4
 34 325 34 325 20 337 c 0,5,6
 8 351 8 351 8 366.5 c 128,-1,7
 8 382 8 382 20 396 c 0,8,9
 34 408 34 408 49 408 c 2,10,-1
 104 408 l 2,11,12
 110.333333333 408 110.333333333 408 108 415 c 1,13,-1
 8 607 l 2,14,15
 -10.2580645161 641.487455197 -10.2580645161 641.487455197 10 673 c 0,16,17
 28.8571428571 706 28.8571428571 706 68 706 c 0,18,19
 86 706 86 706 102.5 696 c 128,-1,20
 119 686 119 686 128 669 c 2,21,-1
 217 492 l 2,22,23
 220 487 220 487 226 487 c 256,24,25
 232 487 232 487 235 492 c 2,26,-1
 324 669 l 2,27,28
 331 685 331 685 348.5 695.5 c 128,-1,29
 366 706 366 706 385 706 c 0,30,31
 423.142857143 706 423.142857143 706 442 673 c 0,32,33
 462.258064516 641.487455197 462.258064516 641.487455197 444 607 c 2,34,-1
 344 415 l 2,35,36
 343 413 343 413 343.5 412 c 128,-1,37
 344 411 344 411 344 410 c 0,38,39
 346 408 346 408 349 408 c 2,40,-1
 405 408 l 2,41,42
 420 408 420 408 434 396 c 0,43,44
 446 382 446 382 446 366.5 c 128,-1,45
 446 351 446 351 434 337 c 0,46,47
 420 325 420 325 405 325 c 2,48,-1
 309 325 l 2,49,50
 299 325 299 325 299 315 c 2,51,-1
 299 286 l 2,52,53
 299 276 299 276 309 276 c 2,54,-1
 405 276 l 2,55,56
 420 276 420 276 434 264 c 0,57,58
 446 250 446 250 446 234 c 128,-1,59
 446 218 446 218 433.5 205.5 c 128,-1,60
 421 193 421 193 405 193 c 2,61,-1
 309 193 l 2,62,63
 305 193 305 193 301 191 c 0,64,65
 299 187 299 187 299 183 c 2,66,-1
 299 73 l 2,67,68
 299 43 299 43 277.5 21.5 c 128,-1,69
 256 0 256 0 226 0 c 256,70,71
 196 0 196 0 174.5 20.5 c 128,-1,72
 153 41 153 41 153 73 c 2,73,-1
 153 193 l 1,74,-1
 49 193 l 2,75,76
 33 193 33 193 20.5 205.5 c 128,-1,77
 8 218 8 218 8 234 c 128,-1,78
 8 250 8 250 20 264 c 0,79,80
 34 276 34 276 49 276 c 2,81,-1
 143 276 l 2,82,83
 153 276 153 276 153 286 c 2,84,-1
 153 315 l 2,0,1
EndSplineSet
Validated: 524321
EndChar

StartChar: mu
Encoding: 181 181 181
Width: 546
Flags: W
LayerCount: 2
Fore
SplineSet
334 659 m 0,0,1
 356 680 356 680 385 680 c 0,2,3
 416 680 416 680 438 659 c 0,4,5
 458 638 458 638 458 607 c 2,6,-1
 461 214 l 2,7,8
 462 113 462 113 398 49 c 0,9,10
 335 -14 335 -14 238.5 -14 c 0,11,12
 184.470583912 -14 184.470583912 -14 143.450470497 -0.83395874073 c 1,13,-1
 143 -88 l 2,14,15
 142.849609375 -117.165039062 142.849609375 -117.165039062 122 -140 c 0,16,17
 103 -161 103 -161 71 -161 c 0,18,19
 41 -161 41 -161 19 -140 c 0,20,21
 -2.234375 -118.765625 -2.234375 -118.765625 -2 -88 c 2,22,-1
 0.221098203517 202.963864661 l 2,23,24
 9.61551801723e-17 208.475023012 9.61551801723e-17 208.475023012 0 214 c 2,25,-1
 -2 607 l 2,26,27
 -2 638 -2 638 18 659 c 0,28,29
 40 680 40 680 70 680 c 0,30,31
 102 680 102 680 122 659 c 0,32,33
 142 636 142 636 142 607 c 2,34,-1
 144.387399031 299.02552504 l 1,35,-1
 145 299 l 1,36,-1
 144.75503876 251.6 l 1,37,-1
 145 220 l 2,38,39
 145 180 145 180 154 167 c 0,40,41
 162 153 162 153 170 142 c 0,42,43
 187 118 187 118 230 118 c 0,44,45
 275 118 275 118 294 145 c 0,46,47
 309 165 309 165 312 182 c 0,48,49
 316 210 316 210 316 220 c 2,50,-1
 314 607 l 2,51,52
 314 638 314 638 334 659 c 0,0,1
EndSplineSet
Validated: 524321
EndChar

StartChar: ordmasculine
Encoding: 186 186 188
Width: 431
VWidth: 838
Flags: W
LayerCount: 2
Fore
SplineSet
284.25390625 656.75390625 m 6,0,1
 284.25390625 702.0078125 284.25390625 702.0078125 248 702.0078125 c 4,2,3
 229.506835938 702.0078125 229.506835938 702.0078125 222.0234375 692.030273438 c 4,4,5
 221.426757812 691.234375 221.426757812 691.234375 220.751953125 690.499023438 c 4,6,7
 210.99609375 679.856445312 210.99609375 679.856445312 210.99609375 656.75390625 c 6,8,-1
 210.99609375 428.75390625 l 6,9,10
 210.99609375 404.793945312 210.99609375 404.793945312 220.12890625 395.662109375 c 4,11,12
 221.151367188 394.638671875 221.151367188 394.638671875 222.013671875 393.489257812 c 4,13,14
 229.505859375 383.5 229.505859375 383.5 246.90625 383.5 c 132,-1,15
 264.307617188 383.5 264.307617188 383.5 272.52734375 391.720703125 c 4,16,17
 278.091796875 397.28515625 278.091796875 397.28515625 281.172851562 407.716796875 c 132,-1,18
 284.25390625 418.1484375 284.25390625 418.1484375 284.25390625 428.75390625 c 6,19,-1
 284.25390625 656.75390625 l 6,0,1
429.99609375 661.25390625 m 6,20,-1
 429.99609375 424.25390625 l 6,21,22
 429.99609375 344.950195312 429.99609375 344.950195312 380.833984375 297.788085938 c 4,23,24
 359.643554688 274.58984375 359.643554688 274.58984375 324.4375 261.048828125 c 132,-1,25
 289.231445312 247.5078125 289.231445312 247.5078125 248 247.5078125 c 4,26,27
 192.952148438 247.5078125 192.952148438 247.5078125 152.3828125 270.073242188 c 4,28,29
 112.577148438 290.13671875 112.577148438 290.13671875 87.4677734375 333.1796875 c 4,30,31
 65.25390625 371.260742188 65.25390625 371.260742188 65.25390625 424.25390625 c 6,32,-1
 65.25390625 661.25390625 l 6,33,34
 65.25390625 715.536132812 65.25390625 715.536132812 87.595703125 751.796875 c 4,35,36
 102.176757812 776.745117188 102.176757812 776.745117188 115.381835938 788.629882812 c 4,37,38
 145.383789062 815.6328125 145.383789062 815.6328125 165.3828125 822.298828125 c 132,-1,39
 185.380859375 828.96484375 185.380859375 828.96484375 196.625 831.775390625 c 4,40,41
 221.522460938 838 221.522460938 838 248 838 c 4,42,43
 301.798828125 838 301.798828125 838 349.064453125 811.978515625 c 4,44,45
 398.45703125 784.787109375 398.45703125 784.787109375 417.9375 730.673828125 c 4,46,47
 429.99609375 697.178710938 429.99609375 697.178710938 429.99609375 661.25390625 c 6,20,-1
EndSplineSet
Validated: 524289
EndChar

StartChar: approxequal
Encoding: 8776 8776 197
Width: 529
Flags: W
LayerCount: 2
Fore
SplineSet
15 353 m 1,0,-1
 14 353 l 1,1,-1
 14 354 l 1,2,3
 -2 371 -2 371 0 394 c 0,4,5
 1 405 1 405 5.5 414.5 c 128,-1,6
 10 424 10 424 19 432 c 0,7,8
 33 445 33 445 46 453.5 c 128,-1,9
 59 462 59 462 73 468 c 0,10,11
 99 479 99 479 132 481 c 0,12,13
 147 483 147 483 160 481 c 128,-1,14
 173 479 173 479 185 476 c 0,15,16
 197 472 197 472 207.5 468 c 128,-1,17
 218 464 218 464 228 459 c 256,18,19
 238 454 238 454 246.5 450.5 c 128,-1,20
 255 447 255 447 265 444 c 0,21,22
 285 439 285 439 305 439 c 0,23,24
 313 440 313 440 319.5 441 c 128,-1,25
 326 442 326 442 333 444 c 0,26,27
 339 446 339 446 345.5 449.5 c 128,-1,28
 352 453 352 453 359 458 c 0,29,30
 376 470 376 470 398 468 c 0,31,32
 419 465 419 465 433 449 c 0,33,34
 441 441 441 441 444 431 c 128,-1,35
 447 421 447 421 447 410 c 0,36,37
 445 387 445 387 429 372 c 0,38,39
 419 362 419 362 410 356 c 0,40,41
 401 348 401 348 392 344 c 0,42,43
 376 334 376 334 359 330 c 0,44,45
 343 325 343 325 319 323 c 0,46,47
 305 322 305 322 292.5 324 c 128,-1,48
 280 326 280 326 269 329 c 256,49,50
 258 332 258 332 248 336 c 128,-1,51
 238 340 238 340 228 345 c 0,52,53
 218 349 218 349 209 353 c 128,-1,54
 200 357 200 357 189 360 c 0,55,56
 168 366 168 366 144 365 c 0,57,58
 127 363 127 363 114 359 c 0,59,60
 107 357 107 357 101 353.5 c 128,-1,61
 95 350 95 350 88 345 c 0,62,63
 70 332 70 332 50 335 c 0,64,65
 28 337 28 337 15 353 c 1,0,-1
445 254 m 0,66,67
 461 235 461 235 459 214 c 0,68,69
 459 191 459 191 442 176 c 0,70,71
 437 171 437 171 432.5 167.5 c 128,-1,72
 428 164 428 164 423 160 c 0,73,74
 414 152 414 152 405 148 c 0,75,76
 397 143 397 143 389 139.5 c 128,-1,77
 381 136 381 136 372 134 c 0,78,79
 354 129 354 129 331 128 c 0,80,81
 305 127 305 127 283 133 c 0,82,83
 272 136 272 136 262.5 140 c 128,-1,84
 253 144 253 144 243 149 c 0,85,86
 223 158 223 158 203 164 c 0,87,88
 193 167 193 167 181.5 169 c 128,-1,89
 170 171 170 171 157 169 c 0,90,91
 140 169 140 169 127 163 c 0,92,93
 114 159 114 159 101 149 c 0,94,95
 84 137 84 137 62 139 c 0,96,97
 52 140 52 140 40 149 c 0,98,99
 34 153 34 153 27 158 c 0,100,101
 11 175 11 175 13 198 c 0,102,103
 15 223 15 223 32 237 c 0,104,105
 58 260 58 260 86 272 c 0,106,107
 100 278 100 278 114 281 c 128,-1,108
 128 284 128 284 144 286 c 0,109,110
 174 287 174 287 198 280 c 0,111,112
 210 277 210 277 220.5 272.5 c 128,-1,113
 231 268 231 268 242 263 c 0,114,115
 251 259 251 259 260 255 c 128,-1,116
 269 251 269 251 278 249 c 0,117,118
 297 243 297 243 318 244 c 0,119,120
 326 245 326 245 332.5 245.5 c 128,-1,121
 339 246 339 246 345 248 c 0,122,123
 358 252 358 252 372 262 c 0,124,125
 388 274 388 274 410 272 c 0,126,127
 432 269 432 269 445 254 c 0,66,67
EndSplineSet
Validated: 33
EndChar

StartChar: guillemotleft
Encoding: 171 171 199
Width: 523
Flags: W
LayerCount: 2
Fore
SplineSet
139 554 m 0,0,1
 152 562 152 562 168.5 562 c 0,2,3
 201.714285714 562 201.714285714 562 220 530 c 256,4,5
 228 516 228 516 228 500 c 128,-1,6
 228 484 228 484 218 469 c 2,7,-1
 135 342 l 2,8,9
 132 337 132 337 132 331.5 c 128,-1,10
 132 326 132 326 135 320 c 2,11,-1
 218 194 l 2,12,13
 228 179 228 179 228 162.5 c 0,14,15
 228 128.074074074 228 128.074074074 198.5 109.5 c 0,16,17
 185 101 185 101 167.5 101 c 0,18,19
 132.076923077 101 132.076923077 101 117 129 c 1,20,-1
 10 296 l 2,21,22
 0 312 0 312 0 326 c 0,23,24
 0 350 0 350 10 366 c 2,25,-1
 117 534 l 2,26,27
 125 548 125 548 139 554 c 0,0,1
342 534 m 2,28,29
 360.666666667 562 360.666666667 562 394.5 562 c 0,30,31
 427.714285714 562 427.714285714 562 446 530 c 0,32,33
 453 516 453 516 453 500 c 128,-1,34
 453 484 453 484 443 469 c 2,35,-1
 361 342 l 2,36,37
 358 337 358 337 358 331.5 c 128,-1,38
 358 326 358 326 361 320 c 2,39,-1
 443 194 l 2,40,41
 453 179 453 179 453 162.5 c 128,-1,42
 453 146 453 146 445.5 132 c 0,43,44
 428.892857143 101 428.892857143 101 393 101 c 0,45,46
 360 101 360 101 342 129 c 2,47,-1
 236 296 l 2,48,49
 225 313 225 313 225 331.5 c 128,-1,50
 225 350 225 350 236 366 c 2,51,-1
 342 534 l 2,28,29
EndSplineSet
Validated: 524289
EndChar

StartChar: ellipsis
Encoding: 8230 8230 201
Width: 705
Flags: W
LayerCount: 2
Fore
SplineSet
150 138 m 0,0,1
 161 127 161 127 168 110 c 0,2,3
 175 96 175 96 175 77 c 0,4,5
 175 57 175 57 168 43 c 0,6,7
 161 26 161 26 150 15 c 0,8,9
 137 4 137 4 122 -4 c 0,10,11
 105 -10 105 -10 87 -10 c 0,12,13
 68 -10 68 -10 53 -4 c 0,14,15
 45 0 45 0 38 4.5 c 128,-1,16
 31 9 31 9 25 15 c 0,17,18
 12 28 12 28 6 43 c 256,19,20
 0 58 0 58 0 77 c 0,21,22
 0 95 0 95 6 110 c 256,23,24
 12 125 12 125 25 138 c 0,25,26
 31 144 31 144 38 148.5 c 128,-1,27
 45 153 45 153 53 157 c 0,28,29
 68 163 68 163 87 163 c 0,30,31
 105 163 105 163 122 157 c 0,32,33
 137 149 137 149 150 138 c 0,0,1
150 138 m 0,34,35
 161 127 161 127 168 110 c 0,36,37
 175 96 175 96 175 77 c 0,38,39
 175 57 175 57 168 43 c 0,40,41
 161 26 161 26 150 15 c 0,42,43
 137 4 137 4 122 -4 c 0,44,45
 105 -10 105 -10 87 -10 c 0,46,47
 68 -10 68 -10 53 -4 c 0,48,49
 45 0 45 0 38 4.5 c 128,-1,50
 31 9 31 9 25 15 c 0,51,52
 12 28 12 28 6 43 c 256,53,54
 0 58 0 58 0 77 c 0,55,56
 0 95 0 95 6 110 c 256,57,58
 12 125 12 125 25 138 c 0,59,60
 31 144 31 144 38 148.5 c 128,-1,61
 45 153 45 153 53 157 c 0,62,63
 68 163 68 163 87 163 c 0,64,65
 105 163 105 163 122 157 c 0,66,67
 137 149 137 149 150 138 c 0,34,35
380 138 m 0,68,69
 391 127 391 127 398 110 c 0,70,71
 405 96 405 96 405 77 c 0,72,73
 405 57 405 57 398 43 c 0,74,75
 391 26 391 26 380 15 c 0,76,77
 367 4 367 4 352 -4 c 0,78,79
 335 -10 335 -10 317 -10 c 0,80,81
 298 -10 298 -10 283 -4 c 0,82,83
 275 0 275 0 268 4.5 c 128,-1,84
 261 9 261 9 255 15 c 0,85,86
 242 28 242 28 236 43 c 256,87,88
 230 58 230 58 230 77 c 0,89,90
 230 95 230 95 236 110 c 256,91,92
 242 125 242 125 255 138 c 0,93,94
 261 144 261 144 268 148.5 c 128,-1,95
 275 153 275 153 283 157 c 0,96,97
 298 163 298 163 317 163 c 0,98,99
 335 163 335 163 352 157 c 0,100,101
 367 149 367 149 380 138 c 0,68,69
610 138 m 0,102,103
 621 127 621 127 628 110 c 0,104,105
 635 96 635 96 635 77 c 0,106,107
 635 57 635 57 628 43 c 0,108,109
 621 26 621 26 610 15 c 0,110,111
 597 4 597 4 582 -4 c 0,112,113
 565 -10 565 -10 547 -10 c 0,114,115
 528 -10 528 -10 513 -4 c 0,116,117
 505 0 505 0 498 4.5 c 128,-1,118
 491 9 491 9 485 15 c 0,119,120
 472 28 472 28 466 43 c 256,121,122
 460 58 460 58 460 77 c 0,123,124
 460 95 460 95 466 110 c 256,125,126
 472 125 472 125 485 138 c 0,127,128
 491 144 491 144 498 148.5 c 128,-1,129
 505 153 505 153 513 157 c 0,130,131
 528 163 528 163 547 163 c 0,132,133
 565 163 565 163 582 157 c 0,134,135
 597 149 597 149 610 138 c 0,102,103
EndSplineSet
Validated: 5
EndChar

StartChar: OE
Encoding: 338 338 206
Width: 723
Flags: W
LayerCount: 2
Fore
SplineSet
417 140 m 2,0,1
 417 130 417 130 427 130 c 2,2,-1
 588 130 l 2,3,4
 612.625 130 612.625 130 634 111 c 0,5,6
 646.050847458 96.2711864407 646.050847458 96.2711864407 653 65 c 1,7,8
 653 40.375 653 40.375 634 19 c 0,9,10
 615 0 615 0 588 0 c 2,11,-1
 225 0 l 2,12,13
 119.714285714 0 119.714285714 0 60 66 c 0,14,15
 0 128.857142857 0 128.857142857 0 231 c 2,16,-1
 0 474 l 2,17,18
 0 525 0 525 10 552 c 0,19,20
 31.4696485623 609.968051118 31.4696485623 609.968051118 55.2348242812 635.484025559 c 0,21,22
 120.912289489 706 120.912289489 706 225 706 c 2,23,-1
 585 706 l 2,24,25
 612 706 612 706 631 687 c 256,26,27
 650 668 650 668 650 641 c 256,28,29
 650 614 650 614 631 595 c 256,30,31
 612 576 612 576 585 576 c 2,32,-1
 427 576 l 2,33,34
 417 576 417 576 417 566 c 2,35,-1
 417 442 l 2,36,37
 417 432 417 432 427 432 c 2,38,-1
 544 432 l 2,39,40
 571 432 571 432 589.5 413.5 c 128,-1,41
 608 395 608 395 608 368.5 c 128,-1,42
 608 342 608 342 590 322 c 0,43,44
 571 303 571 303 544 303 c 2,45,-1
 427 303 l 2,46,47
 417 303 417 303 417 293 c 2,48,-1
 417 140 l 2,0,1
271 565 m 2,49,50
 271 575 271 575 261 575 c 2,51,-1
 233 575 l 2,52,53
 168.714285714 575 168.714285714 575 151 513 c 0,54,55
 145 493 145 493 145 470 c 2,56,-1
 145 235 l 2,57,58
 145 185.181818182 145 185.181818182 168 158 c 0,59,60
 186.666666667 130 186.666666667 130 233 130 c 2,61,-1
 261 130 l 2,62,63
 265 130 265 130 269 132 c 0,64,65
 271 136 271 136 271 140 c 2,66,-1
 271 565 l 2,49,50
EndSplineSet
Validated: 524289
EndChar

StartChar: endash
Encoding: 8211 8211 208
Width: 533
Flags: W
LayerCount: 2
Fore
SplineSet
0 364 m 256,0,1
 0 390 0 390 18 408 c 0,2,3
 37 427 37 427 62 427 c 2,4,-1
 314 427 l 1,5,-1
 416 427 l 2,6,7
 442 427 442 427 461 408 c 0,8,9
 479 390 479 390 479 364 c 256,10,11
 479 338 479 338 461 320 c 0,12,13
 441 302 441 302 416 302 c 2,14,-1
 314 302 l 1,15,-1
 62 302 l 2,16,17
 38 302 38 302 18 320 c 0,18,19
 0 338 0 338 0 364 c 256,0,1
EndSplineSet
Validated: 1
EndChar

StartChar: emdash
Encoding: 8212 8212 209
Width: 624
Flags: W
LayerCount: 2
Fore
SplineSet
0 364 m 256,0,1
 0 390 0 390 18 408 c 0,2,3
 37 427 37 427 62 427 c 2,4,-1
 384 427 l 1,5,-1
 516 427 l 2,6,7
 542 427 542 427 561 408 c 0,8,9
 579 390 579 390 579 364 c 256,10,11
 579 338 579 338 561 320 c 0,12,13
 541 302 541 302 516 302 c 2,14,-1
 384 302 l 1,15,-1
 62 302 l 2,16,17
 38 302 38 302 18 320 c 0,18,19
 0 338 0 338 0 364 c 256,0,1
EndSplineSet
Validated: 1
EndChar

StartChar: quotedblleft
Encoding: 8220 8220 210
Width: 461
Flags: W
LayerCount: 2
Fore
SplineSet
25 446 m 0,0,1
 14 457 14 457 6 475 c 0,2,3
 0 491 0 491 0 509 c 0,4,5
 0 516 0 516 0.5 522 c 128,-1,6
 1 528 1 528 2 533 c 0,7,8
 4 539 4 539 5.5 545 c 128,-1,9
 7 551 7 551 9 557 c 0,10,11
 11 562 11 562 13.5 568 c 128,-1,12
 16 574 16 574 19 580 c 256,13,14
 22 586 22 586 25 592.5 c 128,-1,15
 28 599 28 599 32 606 c 2,16,-1
 53 645 l 1,17,-1
 75 684 l 2,18,19
 79 694 79 694 90 700 c 0,20,21
 100 705 100 705 111 705 c 0,22,23
 134 705 134 705 145 687 c 0,24,25
 157 667 157 667 147 647 c 2,26,-1
 135 622 l 1,27,-1
 124 597 l 2,28,29
 121 594 121 594 123 589 c 0,30,31
 125 586 125 586 128 584 c 0,32,33
 133 582 133 582 137 579.5 c 128,-1,34
 141 577 141 577 145 574 c 0,35,36
 153 568 153 568 159 560 c 0,37,38
 169 546 169 546 173 535 c 0,39,40
 178 520 178 520 178 506 c 0,41,42
 178 489 178 489 171 472 c 256,43,44
 164 455 164 455 152 444 c 0,45,46
 146 438 146 438 139 433.5 c 128,-1,47
 132 429 132 429 124 425 c 0,48,49
 109 419 109 419 90 419 c 0,50,51
 69 419 69 419 54 426 c 0,52,53
 39 432 39 432 25 446 c 0,0,1
239 446 m 0,54,55
 227 457 227 457 220 475 c 0,56,57
 217 483 217 483 215 491.5 c 128,-1,58
 213 500 213 500 213 509 c 0,59,60
 213 522 213 522 216 533 c 0,61,62
 217 545 217 545 222 557 c 0,63,64
 224 562 224 562 226.5 568 c 128,-1,65
 229 574 229 574 232 580 c 256,66,67
 235 586 235 586 238.5 592.5 c 128,-1,68
 242 599 242 599 245 606 c 2,69,-1
 267 645 l 1,70,-1
 288 684 l 2,71,72
 294 694 294 694 303 700 c 0,73,74
 313 705 313 705 324 705 c 0,75,76
 347 705 347 705 358 687 c 0,77,78
 370 667 370 667 361 647 c 2,79,-1
 349 622 l 1,80,-1
 337 597 l 2,81,82
 335 594 335 594 337 589 c 0,83,84
 339 585 339 585 342 584 c 0,85,86
 350 580 350 580 359 574 c 0,87,88
 367 568 367 568 373 560 c 0,89,90
 381 549 381 549 386 535 c 0,91,92
 389 528 389 528 390 521 c 128,-1,93
 391 514 391 514 391 506 c 0,94,95
 391 487 391 487 385 472 c 0,96,97
 381 464 381 464 376.5 457 c 128,-1,98
 372 450 372 450 366 444 c 0,99,100
 353 432 353 432 337 425 c 0,101,102
 322 419 322 419 304 419 c 0,103,104
 283 419 283 419 268 426 c 0,105,106
 251 432 251 432 239 446 c 0,54,55
EndSplineSet
Validated: 33
EndChar

StartChar: quotedblright
Encoding: 8221 8221 211
Width: 461
Flags: W
LayerCount: 2
Fore
SplineSet
366 692 m 0,0,1
 376 680 376 680 385 663 c 0,2,3
 391 646 391 646 391 628 c 0,4,5
 391 622 391 622 390.5 616 c 128,-1,6
 390 610 390 610 389 604 c 0,7,8
 387 598 387 598 385.5 592 c 128,-1,9
 384 586 384 586 382 581 c 0,10,11
 380 575 380 575 377.5 569 c 128,-1,12
 375 563 375 563 372 557 c 256,13,14
 369 551 369 551 366 545 c 128,-1,15
 363 539 363 539 359 532 c 2,16,-1
 338 493 l 1,17,-1
 316 454 l 2,18,19
 312 444 312 444 301 438 c 0,20,21
 292 432 292 432 281 432 c 256,22,23
 270 432 270 432 260.5 437.5 c 128,-1,24
 251 443 251 443 246 451 c 256,25,26
 241 459 241 459 240 469.5 c 128,-1,27
 239 480 239 480 244 490 c 2,28,-1
 256 515 l 1,29,-1
 268 540 l 2,30,31
 270 545 270 545 268 548 c 0,32,33
 267 552 267 552 263 554 c 0,34,35
 255 557 255 557 246 564 c 0,36,37
 238 570 238 570 232 578 c 0,38,39
 222 592 222 592 218 603 c 0,40,41
 213 618 213 618 213 632 c 0,42,43
 213 641 213 641 215 649.5 c 128,-1,44
 217 658 217 658 220 666 c 256,45,46
 223 674 223 674 228 680.5 c 128,-1,47
 233 687 233 687 239 693 c 0,48,49
 250 705 250 705 267 712 c 0,50,51
 283 718 283 718 301 718 c 0,52,53
 320 718 320 718 337 712 c 0,54,55
 353 704 353 704 366 692 c 0,0,1
152 692 m 0,56,57
 164 680 164 680 171 663 c 0,58,59
 174 655 174 655 176 646.5 c 128,-1,60
 178 638 178 638 178 628 c 0,61,62
 178 616 178 616 175 604 c 0,63,64
 173 591 173 591 169 581 c 0,65,66
 167 575 167 575 164.5 569 c 128,-1,67
 162 563 162 563 159 557 c 256,68,69
 156 551 156 551 152.5 545 c 128,-1,70
 149 539 149 539 146 532 c 2,71,-1
 124 493 l 1,72,-1
 103 454 l 2,73,74
 97 444 97 444 88 438 c 256,75,76
 79 432 79 432 67 432 c 0,77,78
 56 432 56 432 47 437.5 c 128,-1,79
 38 443 38 443 33 451 c 256,80,81
 28 459 28 459 26.5 469.5 c 128,-1,82
 25 480 25 480 30 490 c 2,83,-1
 42 515 l 1,84,-1
 54 540 l 2,85,86
 56 545 56 545 54 548 c 0,87,88
 54 552 54 552 49 554 c 256,89,90
 44 556 44 556 40.5 558.5 c 128,-1,91
 37 561 37 561 32 564 c 0,92,93
 28 567 28 567 25 570.5 c 128,-1,94
 22 574 22 574 18 578 c 0,95,96
 10 589 10 589 5 603 c 0,97,98
 0 618 0 618 0 632 c 0,99,100
 0 649 0 649 6 666 c 0,101,102
 14 683 14 683 26 693 c 0,103,104
 38 706 38 706 54 712 c 0,105,106
 69 718 69 718 87 718 c 0,107,108
 106 718 106 718 123 712 c 0,109,110
 131 708 131 708 138.5 703.5 c 128,-1,111
 146 699 146 699 152 692 c 0,56,57
EndSplineSet
Validated: 1
EndChar

